<svg id="Слой_1" data-name="Слой 1" xmlns="http://www.w3.org/2000/svg" viewBox="0 0 115 94.51"><defs><style>.cls-1{fill:#fd0;}.cls-2{fill:#1d1d1b;}</style></defs><title>about1</title><path class="cls-1" d="M19.22,58.38A37.13,37.13,0,1,1,56.35,95.51,37.12,37.12,0,0,1,19.22,58.38Z" transform="translate(1 -1)"/><path class="cls-2" d="M67.05,57.39l-8,5.49,4.66,4.66a.43.43,0,0,0,.41-.06l4.81-7.68a29.49,29.49,0,0,1-1.83-2.41ZM44.37,59.63l4.91,7.85a1.84,1.84,0,0,0,.25.14l4.81-4.74L46.17,57.3l-1.8,2.33ZM17,57.54c6.94,0,6.71-3.71,9.19-8.24-2.36-1.66-2.62-5.36-11.93-6.86l-2.92,2.93a1.5,1.5,0,0,1-2.13-2.12c.27-.27,3.25-4.09,4.73-3.89,6.13.85,10.81,3,13.77,6.73a12.47,12.47,0,0,0,.33-1.34l0-.34a1.89,1.89,0,0,1,.12-.61,10.88,10.88,0,0,0,.06-1.14,11.23,11.23,0,0,0-22.46,0c0,4,1.54,3.67,1.86,6.52A9.43,9.43,0,0,0,17,57.54Zm7.23,3.4,5.42-4a41.61,41.61,0,0,1-.93-4.81,12.55,12.55,0,0,1-5.07,6.43l.58,2.34ZM10.57,58.72a12.39,12.39,0,0,1-5.31-6.65,40.63,40.63,0,0,1-1,4.92L10,61.19l.62-2.47ZM17,60.54A12.42,12.42,0,0,1,13.35,60c-.38,1.55-.6,2.63-.84,3.41,1.92,2.06,3.46,2.92,4.63,3,.9,0,2.39-.74,4.53-3.06a20.86,20.86,0,0,1-.83-3.43,12.3,12.3,0,0,1-3.81.6ZM75.11,4H52.49A15.33,15.33,0,0,0,37.81,19.48a15.82,15.82,0,0,0,2.93,9.16l-.07.87a13.73,13.73,0,0,0-.49,4,16.59,16.59,0,0,0,33.17,0A18.34,18.34,0,0,0,73,30l2-6.79V4.46L75,4.27,75.11,4ZM66,50.79a19.63,19.63,0,0,1-18.57-.09l-.1,3.73c3.54,2.34,7.34,4.38,9.38,6.12,2-1.74,5.85-3.78,9.38-6.12L66,50.79Zm39.33-19.68H92a8.72,8.72,0,0,0-8.48,8.71,8.94,8.94,0,0,0,1.82,5.33l-.07.81A8,8,0,0,0,85,48.24a9.64,9.64,0,0,0,19.27,0,11.07,11.07,0,0,0-.25-2.15l1.26-4.15s0-8.33.05-10.83Zm-7,29a13,13,0,0,1-3.67.53,12.85,12.85,0,0,1-4-.65v2.1l3.85,4.14,3.86-4.14v-2Zm-16-14.56c-1-1-1.75-3.29-1.75-5.71A11.75,11.75,0,0,1,91.9,28.11h14.29a2.31,2.31,0,0,1,2,3V42.39l-1.17,3.86a13,13,0,0,1,.16,2,12.28,12.28,0,0,1-6,10.51v2.64l8.46,2.78A6.4,6.4,0,0,1,114,70.66V84.84a1.5,1.5,0,0,1-3,0V70.65A3.4,3.4,0,0,0,108.68,67l-8.34-2.73L96.18,68.7V84.84a1.5,1.5,0,0,1-3,0V69.27L88.6,64.38a16.92,16.92,0,0,1-2.4.83,10.65,10.65,0,0,1,2.7,6.86V84.84a1.5,1.5,0,0,1-3,0V72.17c-.22-3.12-1.42-5-3.46-6.06a1.32,1.32,0,0,1-.87-.36L71.1,61.9l-4.62,7.37-.23.29a3.24,3.24,0,0,1-4.56.24l-3.51-3.5V84.84a1.5,1.5,0,0,1-3,0V66.28L51.66,69.8a3.32,3.32,0,0,1-4.56-.24l-.24-.29-4.59-7.33c-1.55,1.21-3.33,1.17-10.84,3.93a7.38,7.38,0,0,0-1.12.58,1.49,1.49,0,0,1-1.25,1.09,7.78,7.78,0,0,0-1.62,4.63V84.84a1.5,1.5,0,0,1-3,0V72.07a11.57,11.57,0,0,1,1.69-5.56l-2.37-1c-2.28,2.44-4.58,4-6.81,3.91s-4.32-1.59-6.4-3.75c-1.05.47-2.72,1-5.56,2.15a5.41,5.41,0,0,0-3,4.38V85a1.5,1.5,0,0,1-3,0V72a8.42,8.42,0,0,1,4.52-6.74l.2-.11,4.13-1.72L1.6,58.79a2,2,0,0,1-.54-1.67A44.31,44.31,0,0,0,2.81,43.93a1.69,1.69,0,0,1,0-.33c0-.31,0-.62,0-.94a14.23,14.23,0,0,1,28.46,0,13.86,13.86,0,0,1-.17,2.15,53.1,53.1,0,0,0,1.74,12.33c.55,1.78-4.1,4.8-6.49,6.21l2,.83a9.5,9.5,0,0,1,2-1.09l10.52-3.88,3.44-4.36.16-6.13A19.55,19.55,0,0,1,37.18,33.5,17.26,17.26,0,0,1,37.7,29c-1.73-2.05-2.89-5.63-2.89-9.48A18.36,18.36,0,0,1,52.41,1H75.53c2.1.36,2.9,1.88,2.46,3.84V23.61l-1.93,6.51a19.76,19.76,0,0,1,.29,3.38,19.53,19.53,0,0,1-7.44,15.36l.16,6,3.43,4.36L82.72,63l4.83-1.58V58.67A12.75,12.75,0,0,1,82,48.24a11.12,11.12,0,0,1,.29-2.71ZM42.44,25.21V21l0-.19a4,4,0,0,1,3.63-3.64l.21,0h10c5.59,0,10.25,1.44,13.84,4.32a1.5,1.5,0,0,1-1.88,2.34c-2.93-2.35-6.87-3.62-12-3.66h-9.9a1,1,0,0,0-1,1v4.08a1.5,1.5,0,1,1-3,0ZM88.32,37.89h6.4c2.72.15,5,1,6.54,2.71a1.5,1.5,0,0,1-2.27,2c-.77-.9-2.1-1.54-4.31-1.67H88.32a1.5,1.5,0,0,1,0-3Zm-13.15,47v-8a1.5,1.5,0,0,1,3,0v8a1.5,1.5,0,0,1-3,0Zm28.72,0V73.94a1.5,1.5,0,0,1,3,0v10.9a1.5,1.5,0,0,1-3,0Zm-68.72,0v-8a1.5,1.5,0,0,1,3,0v8a1.5,1.5,0,0,1-3,0Zm-28.72,0V75.75a1.5,1.5,0,0,1,3,0v9.09a1.5,1.5,0,0,1-3,0Z" transform="translate(1 -1)"/></svg>