<svg id="Слой_1" data-name="Слой 1" xmlns="http://www.w3.org/2000/svg" viewBox="0 0 94.5 94.75"><defs><style>.cls-1{fill:#fd0;}.cls-2{fill:#1d1d1b;}</style></defs><title>about2</title><path class="cls-1" d="M19.5,51.87A37.13,37.13,0,1,1,56.63,89,37.12,37.12,0,0,1,19.5,51.87Z" transform="translate(-10 -1)"/><path class="cls-2" d="M71.66,44q2.18,2,4.09,3.76,1.95-1.84,4.19-3.84A19.65,19.65,0,0,0,76,43.5a20,20,0,0,0-4.34.47Zm6.25,5.84c1.23,1.21,2.36,2.36,3.39,3.47l3.4-7.79c-.44-.22-.9-.42-1.36-.6q-3,2.59-5.43,4.92Zm-4.32,0C72,48.3,70.23,46.7,68.32,45c-.49.2-1,.42-1.43.66l3.31,7.59c1-1.11,2.16-2.26,3.39-3.47ZM39.81,75.31,35,80.12l2.51,2.51,4.07-6.7a18.2,18.2,0,0,0-1.69-.71l-.08.09Zm-6.94,6.94-3.25,3.26,3.07,5,3.21-5.29-3-3Zm-6.09,4.37a1.6,1.6,0,0,1-.67-1.11l-4.74-7.78a20,20,0,0,0-8.33,15h4.34V87.5a1.5,1.5,0,0,1,3,0v5.25H30.51l-3.73-6.13ZM28,82.87l2.74-2.75-4.83-4.83a20.74,20.74,0,0,0-2,.88L28,82.87ZM32.87,78l3.69-3.68A19.81,19.81,0,0,0,33,74a19.51,19.51,0,0,0-3.77.36L32.87,78Zm11.32-.58-4.8,7.89a1.59,1.59,0,0,1-.62,1l-3.91,6.42H45.38V87.5a1.5,1.5,0,0,1,3,0v5.25H53a20,20,0,0,0-8.77-15.33ZM33,52.5a9.27,9.27,0,1,0,9.25,9.25A9.28,9.28,0,0,0,33,52.5ZM28.25,13H101.5V4H28.25v9ZM56,62.25h4.21V57a1.5,1.5,0,0,1,3,0v5.25h25V57a1.5,1.5,0,0,1,3,0v5.25H96A20,20,0,0,0,87.32,47c-4,9.35-4.72,12.22-6.69,10-1.39-1.57-3-3.27-4.88-5.1q-2.81,2.74-4.87,5.1c-2,2.22-2.65-.57-6.58-9.71a20,20,0,0,0-8.26,15Zm41.65,3h-.35a2,2,0,0,0,.35,0ZM13.75,19h11.5V1H104.5V65.25H97.69a2,2,0,0,1-.35,0H44.74a12.3,12.3,0,0,1-5,6.75A23,23,0,0,1,56,94c-.09,1.06-.19,1.7-1.44,1.75H11.5A1.58,1.58,0,0,1,10,94,23,23,0,0,1,26.28,72a12.26,12.26,0,0,1-1-19.74v-12H13.75a3.5,3.5,0,0,1-3.5-3.5V22.5a3.5,3.5,0,0,1,3.5-3.5Zm0,3a.5.5,0,0,0-.5.5V36.75a.5.5,0,0,0,.5.5H26.89l7.61,5v-5h5.25a.5.5,0,0,0,.5-.5V22.5a.5.5,0,0,0-.5-.5Zm62-3a12.25,12.25,0,0,1,6.8,22.44A23,23,0,0,1,99,62.25h2.53V16H28.25v3h11.5a3.5,3.5,0,0,1,3.5,3.5V36.75a3.5,3.5,0,0,1-3.5,3.5H37.5v7.52l-9.25-6v8.73a12.25,12.25,0,0,1,17,11.29v.5H53a23,23,0,0,1,16.08-20.7A12.25,12.25,0,0,1,75.75,19Zm0,3A9.25,9.25,0,1,0,85,31.25,9.25,9.25,0,0,0,75.75,22ZM31.5,7h3v3h-3V7Zm5.88,0h3v3h-3V7Zm5.87,0h3v3h-3V7Zm-27,18.38H37.5v3H16.25v-3Zm0,5.87h15v3h-15v-3Zm18.25,0h3v3h-3v-3Zm12.63-12h3v3h-3v-3Zm5.87,0h3v3H53v-3Zm5.88,0h3v3h-3v-3Zm36.62,0h3v3h-3v-3Zm0,6h3v3h-3v-3Zm0,6h3v3h-3v-3Zm-6.63,64h-26a3.5,3.5,0,0,1-3.5-3.5V77.53a3.5,3.5,0,0,1,3.5-3.5h2.25V66.51L76.62,74H88.87a3.5,3.5,0,0,1,3.5,3.5V91.78a3.5,3.5,0,0,1-3.5,3.5Zm0-3a.5.5,0,0,0,.5-.5V77.53a.5.5,0,0,0-.5-.5H75.73l-7.61-5v5H62.87a.5.5,0,0,0-.5.5V91.78a.5.5,0,0,0,.5.5Zm-24-11.78H86.13v3H64.88v-3Zm0,5.87h15v3h-15v-3Zm18.25,0h3v3h-3v-3Z" transform="translate(-10 -1)"/></svg>