<svg id="Слой_1" data-name="Слой 1" xmlns="http://www.w3.org/2000/svg" viewBox="0 0 102.88 97"><defs><style>.cls-1{fill:#fd0;}.cls-2{fill:#1d1d1b;}</style></defs><title>about3</title><path class="cls-1" d="M18,50.13A37.13,37.13,0,1,1,55.13,87.25,37.13,37.13,0,0,1,18,50.13Z" transform="translate(-5 1)"/><path class="cls-2" d="M95,85.24H72.5V87A3.5,3.5,0,0,1,69,90.5H43.75a3.5,3.5,0,0,1-3.5-3.5V85.25h-22a8.08,8.08,0,0,1-1.31-.11L8,85.12v4.5A3.38,3.38,0,0,0,11.38,93H101.5a3.38,3.38,0,0,0,3.38-3.38l.12-4.37Zm-25.45,0H43.25V87a.5.5,0,0,0,.5.5H69a.5.5,0,0,0,.5-.5V85.25Zm6.35-60.37v2.18A14.48,14.48,0,0,0,79,24.88Zm0-6.13v3.13h5A2.1,2.1,0,0,0,81.1,21V18.75ZM81.09,13H75.85v2.75h5.24V13Zm-5.6,17.58A14,14,0,0,1,74,34.64c6.52-2,10.62-5.81,12.27-11.49l.12-.43a22.43,22.43,0,0,0,.7-4.9,1.63,1.63,0,0,1,0-1.19,36.93,36.93,0,0,0-.4-5.07C86.47,9,85.32,7.94,83,7.87H75.85V10h5.38a2.84,2.84,0,0,1,2.87,3.12v8.16c-.43,4-3.62,7-8.6,9.3Zm-38,0c-5-2.25-8.17-5.28-8.6-9.3V13.12A2.83,2.83,0,0,1,31.74,10h5.39V7.87H30c-2.35.07-3.5,1.16-3.76,3.69C24.46,24,28.71,31.45,39,34.64a14.63,14.63,0,0,1-1.47-4.06ZM34,24.88a14.32,14.32,0,0,0,3.13,2.18V24.88Zm-2.12-6.13V21a5,5,0,0,0,.17.84h5.08V18.75Zm0-5.75v2.75h5.25V13ZM56.63,42H54.88v9H58.1V42ZM72.85,27V7.87H40.13V27a11.61,11.61,0,0,0,2.81,8.1,1.36,1.36,0,0,1,.81.78C45.9,37.71,49,38.81,53.28,39h6.41c4.25-.19,7.39-1.29,9.53-3.13a1.41,1.41,0,0,1,.81-.78A11.66,11.66,0,0,0,72.85,27ZM23.3,21.88a26,26,0,0,1-.39-3.13H18.25a4.49,4.49,0,0,0-4.5,4.5v54.5a4.49,4.49,0,0,0,4.5,4.5H94.5a4.49,4.49,0,0,0,4.5-4.5s0-14.37,0-23.49a1.5,1.5,0,0,1,3,0c0,9.12,0,23.48,0,23.48a7.47,7.47,0,0,1-1.5,4.5H105a2.88,2.88,0,0,1,2.88,2.87v4.5A6.38,6.38,0,0,1,101.5,96H11.38A6.37,6.37,0,0,1,5,89.62v-4.5a2.88,2.88,0,0,1,2.88-2.87h4.37a7.47,7.47,0,0,1-1.5-4.5V23.25a7.5,7.5,0,0,1,7.5-7.5h4.61a38.59,38.59,0,0,1,.4-4.53C23.67,7.25,26,5,30,4.88h3.9V2.06a2.81,2.81,0,0,1,3-3.06h16.4a1.5,1.5,0,0,1,0,3H36.88V4.88H76.1V2H59.72a1.5,1.5,0,0,1,0-3H76.13a2.81,2.81,0,0,1,3,3.06V4.88H83c4,.09,6.32,2.37,6.72,6.34a38.59,38.59,0,0,1,.4,4.53H94.5a7.5,7.5,0,0,1,7.5,7.5V46.91a1.5,1.5,0,0,1-3,0V23.25a4.49,4.49,0,0,0-4.5-4.5H90.06a26,26,0,0,1-.39,3.13h2.58a3.5,3.5,0,0,1,3.5,3.5V75.63a3.5,3.5,0,0,1-3.5,3.49H20.5A3.5,3.5,0,0,1,17,75.63V25.38a3.5,3.5,0,0,1,3.5-3.5ZM56.75,72.13H43.2c-2.07.19-3.86-.67-4-3V67.42a3.69,3.69,0,0,1,2.88-3.9V56.61c.08-3.36,1.87-5.53,5.23-5.61h4.52V41.91c-4.36-.4-7.78-1.76-10.23-3.91H40l-.38,0c-8.16-2.12-13.33-6.54-15.54-13.07H20.5a.5.5,0,0,0-.5.5V75.63a.49.49,0,0,0,.5.49H92.25a.49.49,0,0,0,.5-.49V25.38a.5.5,0,0,0-.5-.5H88.89c-2.2,6.53-7.38,11-15.54,13.07L73,38H71.32c-2.45,2.15-5.87,3.51-10.22,3.91V51h4.51c3.37.08,5.15,2.25,5.24,5.61v6.91a3.69,3.69,0,0,1,2.87,3.9v1.74c-.09,2.3-1.87,3.16-4,3Zm.5-5.76H43c-.71.18-.81.46-.79,1v1.71a2.62,2.62,0,0,0,.72.07H70a2.57,2.57,0,0,0,.72-.07V67.35c0-.52-.07-.8-.79-1ZM56.75,54H47.38c-1.48,0-2.2.65-2.26,2.66v6.71H67.85V56.66c0-2-.77-2.62-2.25-2.66Zm16.1-30.25a1.58,1.58,0,0,1,0-.75v.75Z" transform="translate(-5 1)"/></svg>