<svg id="Слой_1" data-name="Слой 1" xmlns="http://www.w3.org/2000/svg" viewBox="0 0 60.22 59.91"><defs><style>.cls-1{fill:#fd0;}</style></defs><title>advantage3</title><path class="cls-1" d="M39.55,6.64c10,2.09,9.53.66,2.67,8.22,1.1,10.15,2.33,9.26-7,5.08-9.31,4.18-8.09,5.07-7-5.08-6.86-7.56-7.33-6.13,2.66-8.22,5.08-8.85,3.57-8.85,8.64,0ZM38,8l-2.81-4.9L32.43,8a2.48,2.48,0,0,1-.67.48L26.24,9.66,30,13.85a2.16,2.16,0,0,1,.25.78l-.61,5.61,5.15-2.31a2.26,2.26,0,0,1,.82,0l5.16,2.31-.61-5.61a2.16,2.16,0,0,1,.25-.78l3.79-4.19L38.7,8.51A2.43,2.43,0,0,1,38,8ZM15,10.21h3.63a2.12,2.12,0,0,1,2.12,2.13V14a2.12,2.12,0,0,1-2.12,2.13H15A2.12,2.12,0,0,1,12.86,14V12.34A2.12,2.12,0,0,1,15,10.21Zm0,2L14.86,14l3.75.13.12-1.75L15,12.21ZM18.77.71c1.3.67,5.48,1.91,4.15,4.5l-.73,1.45c-1.33,2.6-4.79,0-6.09-.72a2.12,2.12,0,0,1-.93-2.85l.74-1.45A2.12,2.12,0,0,1,18.77.71Zm-.91,1.78a.13.13,0,0,0-.17.06L17,4a.12.12,0,0,0,.06.17l3.23,1.65a.11.11,0,0,0,.16-.06l.74-1.44a.13.13,0,0,0-.05-.17L17.86,2.49Zm2.5,17.88L17.13,22a.13.13,0,0,0-.05.17l.73,1.45a.13.13,0,0,0,.17.05L21.21,22a.13.13,0,0,0,.06-.17l-.74-1.45a.13.13,0,0,0-.17-.05Zm-.91-1.79a2.13,2.13,0,0,1,2.86.93L23.05,21c1.32,2.59-2.86,3.84-4.16,4.51A2.14,2.14,0,0,1,16,24.54l-.74-1.45c-1.32-2.59,2.86-3.84,4.16-4.51Zm32.66-8.37h3.62a2.13,2.13,0,0,1,2.13,2.13V14a2.13,2.13,0,0,1-2.13,2.13H52.11A2.13,2.13,0,0,1,50,14V12.34a2.13,2.13,0,0,1,2.13-2.13Zm0,2L52,14l3.75.13.13-1.75-3.75-.13Zm.75-9.72L49.63,4.14a.13.13,0,0,0-.05.17l.73,1.44a.13.13,0,0,0,.17.06l3.23-1.65A.13.13,0,0,0,53.77,4L53,2.55a.13.13,0,0,0-.17-.06ZM52,.71a2.12,2.12,0,0,1,2.86.93l.74,1.45c1.32,2.59-2.86,3.84-4.16,4.5a2.13,2.13,0,0,1-2.86-.93l-.74-1.45C46.47,2.62,50.65,1.38,52,.71Zm-.68,17.87c1.3.67,5.48,1.92,4.15,4.51l-.73,1.45c-1.33,2.59-4.79-.06-6.09-.72A2.12,2.12,0,0,1,47.67,21l.74-1.45a2.13,2.13,0,0,1,2.86-.93Zm-.91,1.79a.13.13,0,0,0-.17.05l-.74,1.45a.12.12,0,0,0,.06.17l3.23,1.64a.12.12,0,0,0,.16-.05l.74-1.45a.13.13,0,0,0,0-.17l-3.23-1.64ZM18.91,53l-10-17L2.33,40.39,12.54,57.52,18.91,53ZM52.14,32.16l-.63-.63c-.64-.3-1.61-.22-3.11.77L40.94,37l2.69.3,8.51-5.15Zm-4.75-1.58C49.18,29.4,51,29,52.6,29.84l.22.17,1.3,1.3c2.43-.58,4.7.19,5.64,2.34.92,1.87.27,3.58-.33,5.38l-.19.34-10,11.38a2.65,2.65,0,0,1-.65.33l-27.74,3c-1.77,1.26-8.21,7.54-9.47,5.43L.13,40.6a1,1,0,0,1,.3-1.34l13.62-9.13a1,1,0,0,1,1.12,1.66L10.53,34.9,20.69,52.06,48,49.14,57.6,38.2c.39-1.17.94-2.49.35-3.7s-2-1.89-4.14-1l-9.43,5.71a2.73,2.73,0,0,1-.63.14l-18.25-2c-1.15-.12-1.41-1.15-.46-1.81l7.28-5.1c1-2.13,1-3.41.53-4.16-1.83-1.54-4.27-1.82-7.58-.51l-7.7,4A1,1,0,0,1,16.65,28l7.79-4c3.83-1.53,7.23-1.37,9.83.91l.16.17c1.12,1.6.9,5.74-.75,6.9l-5.32,3.72,3.18.35,9.29-5.86c1.81-1.21,3.64-1.68,5.27-.78l.22.17,1.07,1.07Zm-9.56,6,7.82-4.95L45,31c-.64-.3-1.61-.22-3.11.77l-7.17,4.53,3,.33.07,0ZM13.73,49.34a2.88,2.88,0,1,1-2.87,2.87,2.87,2.87,0,0,1,2.87-2.87Zm0,2a.88.88,0,1,0,.88.87.87.87,0,0,0-.88-.87Z"/></svg>