<svg id="Слой_1" data-name="Слой 1" xmlns="http://www.w3.org/2000/svg" viewBox="0 0 57 55.59"><defs><style>.cls-1{fill:#fd0;}</style></defs><title>advantage4</title><path class="cls-1" d="M10.25,46.09H5.88v3.37h4.37V46.09Zm1-2a1,1,0,0,1,1,1v5.37a1,1,0,0,1-1,1H4.88a1,1,0,0,1-1-1V45.09a1,1,0,0,1,1-1ZM41.87,3C52-1.1,49-2.17,54.37,7.34a1,1,0,1,1-1.74,1L49.91,3.5c-6.8,22.1-22.13,34.61-45.27,38a1,1,0,1,1-.28-2c22.45-3.24,37.17-15.29,43.71-36.8L42.63,4.89A1,1,0,0,1,41.87,3ZM5.75,5H16.63a1,1,0,0,1,0,2H5.75a1,1,0,0,1,0-2Zm0,3.63H16.63a1,1,0,0,1,0,2H5.75a1,1,0,0,1,0-2Zm0,3.87h6.88a1,1,0,0,1,0,2H5.75a1,1,0,0,1,0-2Zm0,4h6.88a1,1,0,0,1,0,2H5.75a1,1,0,0,1,0-2ZM1,53.59H56a1,1,0,0,1,0,2H1a1,1,0,0,1,0-2ZM52.63,17.34a1,1,0,0,1,1,1V50.46a1,1,0,0,1-1,1H46.25a1,1,0,0,1-1-1V18.34a1,1,0,0,1,1-1Zm-1,2H47.25V49.46h4.38V19.34Zm-9.5,11.25a1,1,0,0,1,1,1V50.46a1,1,0,0,1-1,1H35.75a1,1,0,0,1-1-1V31.59a1,1,0,0,1,1-1Zm-1,2H36.75V49.46h4.38V32.59Zm-9.13,4a1,1,0,0,1,1,1V50.46a1,1,0,0,1-1,1H25.63a1,1,0,0,1-1-1V37.59a1,1,0,0,1,1-1Zm-1,2H26.63V49.46H31V38.59Zm-9.12,2.75a1,1,0,0,1,1,1v8.12a1,1,0,0,1-1,1H15.5a1,1,0,0,1-1-1V42.34a1,1,0,0,1,1-1Zm-1,2H16.5v6.12h4.38V43.34Z"/></svg>