<svg id="Слой_1" data-name="Слой 1" xmlns="http://www.w3.org/2000/svg" viewBox="0 0 49.37 48.5"><defs><style>.cls-1{fill:#fd0;}</style></defs><title>advantage6</title><path class="cls-1" d="M26.35,37.73l-2.44-2.6-.77-.82a1,1,0,0,1,1.46-1.37l.63.67,2.68,2.86,4.78-4.83L30,28.77l-4.78,4.84-.63-.67a1,1,0,0,0-1.46,1.37l.77.82a7.6,7.6,0,0,0-1.66,3.94c.72.17,2-.09,4.1-1.34Zm16-21.49,2.69,2.87,1.2-1.22c2.25-2.46.32-5.43-2.76-2.78l-1.13,1.13ZM32,28l9.62-9.61L41,17.67l-9.56,9.68L32,28Zm11-8.15-9.61,9.61.71.75,9.55-9.68L43,19.85ZM9.69,26.25H29.63l1.23-1.19H9.69a1,1,0,1,1,0-2H32.84l3.66-3.71V11.12H6.87V46.5H36.25V30.88L28.52,38.7c-2.56,1.71-4.85,2.71-6.64,2.35a5.77,5.77,0,0,1-1.16,1.08H33a1,1,0,1,1,0,2H9.69a1,1,0,1,1,0-2H19.6L19,41.58c-.88-.88.48-2,1.09-2.51.09-2.09,2.27-5.29,2.7-5.86l4.89-5h-18a1,1,0,1,1,0-2ZM10.55,2a5.15,5.15,0,0,1,.95,3.05,6.26,6.26,0,0,1-1.27,4.08H37.5a1,1,0,0,1,.34.06c2.17,0,3.3-1.15,3.41-4C41.15,3.07,40.07,2,38.12,2ZM4.88,45.81H1a1,1,0,0,1-1-1V5.48C.13,2,2.11,0,5.63,0l.53,0,.22,0H38.12c3.17,0,5,2.11,5.13,5.19-.13,3.48-1.71,5.67-4.75,6v6.16l3.63-3.67c4.2-3.64,9.57.3,6.15,4.93a7.69,7.69,0,0,1-.88,4.93,1.63,1.63,0,0,1-.28.38,56.61,56.61,0,0,1-5.22,5.88,1,1,0,0,1-1.42-1.41,51.74,51.74,0,0,0,5.11-5.77,6.35,6.35,0,0,0,.23-1.41L38.2,28.9a1.29,1.29,0,0,1,0,.35V47.5a1,1,0,0,1-1,1H5.87a1,1,0,0,1-1-1V45.81ZM9.43,4.37C9.16,2.85,8.07,2,5.61,2S2.09,3.09,2,5.54V43.81H4.88V6.45c-.22-1.64,1.38-2,2.42-2.08ZM6.87,9.06a3.51,3.51,0,0,0,2.5-2.68h-2a3.08,3.08,0,0,0-.47,0V9.06ZM9.69,19.88H33a1,1,0,0,1,0,2H9.69a1,1,0,1,1,0-2Zm0-3.07H33a1,1,0,0,1,0,2H9.69a1,1,0,1,1,0-2Zm0-3.12H33a1,1,0,0,1,0,2H9.69a1,1,0,1,1,0-2Zm0,25.25h8a1,1,0,0,1,0,2h-8a1,1,0,1,1,0-2Z"/></svg>