<svg id="Слой_1" data-name="Слой 1" xmlns="http://www.w3.org/2000/svg" viewBox="0 0 57.02 56.89"><defs><style>.cls-1{fill:#fd0;}</style></defs><title>advantage7</title><path class="cls-1" d="M21.75,14.63a7.13,7.13,0,1,0,7.13,7.12,7.12,7.12,0,0,0-7.13-7.12ZM20.69,33.56V30.81a9.11,9.11,0,0,1-8-8.18H9.75a1,1,0,0,1,0-2h2.94a9.13,9.13,0,0,1,8-7.94v-3a1,1,0,1,1,2,0v3a9.13,9.13,0,0,1,8.12,8h2.82a1,1,0,0,1,0,2h-2.8a9.12,9.12,0,0,1-8.14,8.2v2.73a1,1,0,1,1-2,0Zm1.06-17.31a5.5,5.5,0,1,1-5.5,5.5,5.5,5.5,0,0,1,5.5-5.5Zm0,2a3.5,3.5,0,1,0,3.5,3.5,3.5,3.5,0,0,0-3.5-3.5Zm-1.37,3.5a1.38,1.38,0,0,1,2.75,0,1.38,1.38,0,1,1-2.75,0ZM5.85,25.69a16.38,16.38,0,1,1,15.9,12.44A16.2,16.2,0,0,1,7.43,29.58a1,1,0,1,1,1.76-.94,14.2,14.2,0,0,0,12.56,7.49A14.38,14.38,0,1,0,7.38,21.75a14.63,14.63,0,0,0,.41,3.46,1,1,0,1,1-1.94.48ZM33.71,39.92,36,42.21l6-6L39.72,34a22,22,0,0,1-6,5.91Zm5.08,2.33,3.46,3.46,3.21-3.21L42,39l-3.21,3.21Zm2.05,4.88-3.46-3.47-.67.67c-1.16,1.16-3.16-1.65-4.78-3.35a21.74,21.74,0,1,1,11-24.48A1,1,0,1,1,41,17a20,20,0,1,0,.51,4.77c0-1.81,2-2.31,2-.64v.62a21.71,21.71,0,0,1-2.7,10.52c1.6,1.56,4.45,3.53,3.28,4.7l-.67.67,3.47,3.46.54-.55c1.22-1.22,3.58,2.17,3.66,2.25a1,1,0,1,1-1.41,1.42l-1.54-1.55-5.72,5.72,6.8,6.79a1,1,0,0,1-1.42,1.41l-7.5-7.5a1,1,0,0,1,0-1.41l.55-.54Zm12.74-1.71,3.13,3.12A1,1,0,0,1,55.29,50l-3.12-3.13a1,1,0,1,1,1.41-1.41Z"/></svg>