<svg id="Слой_1" data-name="Слой 1" xmlns="http://www.w3.org/2000/svg" viewBox="0 0 60.81 58.42"><defs><style>.cls-1{fill:#fd0;}</style></defs><title>advantage2</title><path class="cls-1" d="M11.17,56.07l4.9-3.77L7.22,40.14,2.34,43.61l8.83,12.46ZM33.44,30.25H25.17c-.75,0-2.4-.41-2.86.38l-.27.3L9.64,40.05,16,48.75l3.8.52a54,54,0,0,0,10.56,1.35c4.38-.25,7.27-.69,8.78-1.26l6-4.19,12.51-7.93c1.22-1.43,1.27-2.25,1.06-2.72-.41-.54-1.21-.83-3.09.13L42.1,40.54l-.4.09H25c-1.7-.14-3.54-1-2.43-2.89L25,34a1.75,1.75,0,0,1,.85-.47h3.58c1.29-.1,2.6-.93,3.89-2.83l.14-.42ZM52,43.2l5.12-.8a2.25,2.25,0,0,0,1.71-1.55,1.13,1.13,0,0,0-1.12-1,1.26,1.26,0,0,1-.31-.09L52,43.2ZM41.61,33.37a10.55,10.55,0,0,1-3.76,1.24l-2.77,0a11,11,0,0,1-2.22-.52,6,6,0,0,1-3.37,1.39H26.38l-1.92,3a4.77,4.77,0,0,0,.66.09H41.49l6.87-3c.13-1.55-.59-2.27-1.91-2.27H41.61ZM27.06,28.25a17.89,17.89,0,0,1-.85-3.34L26,18c.11-4.62,1.94-7.74,5.78-8.61l.22,0h8.88l.22,0c3.84.87,5.67,4,5.77,8.61l-.24,6.78A13.69,13.69,0,0,1,44,31.38h2.49a3.6,3.6,0,0,1,3.89,3.39l4.46-1.94c2.17-1.09,4.3-1.26,5.6.6.88,1.65.22,3.35-1.06,4.92a3.13,3.13,0,0,1,1.47,2.38v.34a4.18,4.18,0,0,1-3.2,3.26l-8.88,1.41a1,1,0,0,1-.62-.08l-1.87,1.18-6.09,4.23-.21.11c-1.82.72-5.1,1.18-9.6,1.44a56.27,56.27,0,0,1-10.95-1.39L17.58,51l.68.93c1.28,1.77-6.81,8-8.13,6.17L.13,44C-1.13,42.16,7,36.4,8.26,38.16l.2.28,12.24-9c1.08-1.63,2.88-1.27,4.53-1.18Zm17.72-9c-2.26-1.12-4.69-1-7.46.59L37.1,20A13.14,13.14,0,0,1,28,19.05l.21,5.6a14.18,14.18,0,0,0,1,3.6h4.45c2.4-.66,1.92,2,1.47,3.22l-.11.21c-.19.28-.38.56-.58.81.22,0,.46.1.7.13h2.47c3.87-.6,6.12-2.87,7-8l.2-5.37ZM28,16.86a11.68,11.68,0,0,0,8.42,1.21,9.57,9.57,0,0,1,8.34-1c-.29-3.41-1.71-5.15-4.07-5.72H32.07c-2.3.55-3.72,2.22-4.05,5.48ZM9.83,51.5a1.75,1.75,0,1,1,1.75,1.75A1.75,1.75,0,0,1,9.83,51.5ZM35.7,5.75V1a1,1,0,0,1,2,0V5.75a1,1,0,0,1-2,0Zm3.92-.58,3.62-3.63A1,1,0,0,1,44.66,3L41,6.58a1,1,0,1,1-1.41-1.41ZM31.87,6.46,28.37,3a1,1,0,0,1,1.41-1.42L33.28,5a1,1,0,1,1-1.41,1.42Z"/></svg>