<svg id="Слой_1" data-name="Слой 1" xmlns="http://www.w3.org/2000/svg" viewBox="0 0 154.75 18"><defs><style>.cls-1{fill:#fcbc04;}.cls-2{fill:#c4c4c4;}</style></defs><title>arrow2</title><polygon class="cls-1" points="143.5 12 146.25 0 154.75 8.5 143.5 12 143.5 12"/><path class="cls-2" d="M0,16.63A1.38,1.38,0,1,1,1.37,18,1.38,1.38,0,0,1,0,16.63Z"/><path class="cls-2" d="M11.25,14.38a1.38,1.38,0,1,1,1.37,1.37,1.38,1.38,0,0,1-1.37-1.37Z"/><path class="cls-2" d="M22.25,11.38a1.38,1.38,0,1,1,1.38,1.37,1.38,1.38,0,0,1-1.38-1.37Z"/><path class="cls-2" d="M33.25,9.63A1.38,1.38,0,1,1,34.62,11a1.38,1.38,0,0,1-1.37-1.37Z"/><path class="cls-2" d="M44.5,7.38a1.38,1.38,0,1,1,1.37,1.37A1.38,1.38,0,0,1,44.5,7.38Z"/><path class="cls-2" d="M55.5,5.63A1.38,1.38,0,1,1,56.87,7,1.38,1.38,0,0,1,55.5,5.63Z"/><path class="cls-2" d="M66.75,4.63A1.38,1.38,0,1,1,68.12,6a1.38,1.38,0,0,1-1.37-1.37Z"/><path class="cls-2" d="M78.25,3.13A1.38,1.38,0,1,1,79.62,4.5a1.38,1.38,0,0,1-1.37-1.37Z"/><path class="cls-2" d="M89,1.88a1.38,1.38,0,1,1,1.38,1.37A1.38,1.38,0,0,1,89,1.88Z"/><path class="cls-2" d="M100.25,1.88a1.38,1.38,0,1,1,1.38,1.37,1.38,1.38,0,0,1-1.38-1.37Z"/><path class="cls-2" d="M111.25,2.13a1.38,1.38,0,1,1,1.37,1.37,1.38,1.38,0,0,1-1.37-1.37Z"/><path class="cls-2" d="M122.75,3.38a1.38,1.38,0,1,1,1.38,1.37,1.38,1.38,0,0,1-1.38-1.37Z"/><path class="cls-2" d="M133.75,4.13a1.38,1.38,0,1,1,1.37,1.37,1.38,1.38,0,0,1-1.37-1.37Z"/></svg>