<svg id="Слой_1" data-name="Слой 1" xmlns="http://www.w3.org/2000/svg" viewBox="0 0 154.75 18"><defs><style>.cls-1{fill:#fbbb04;}.cls-2{fill:#c3c3c3;}</style></defs><title>arrow1</title><polygon class="cls-1" points="143.5 6 146.25 18 154.75 9.5 143.5 6 143.5 6"/><path class="cls-2" d="M.12,1.38A1.38,1.38,0,1,1,1.5,2.75,1.38,1.38,0,0,1,.12,1.38Z" transform="translate(-0.12)"/><path class="cls-2" d="M11.37,3.63A1.38,1.38,0,1,1,12.75,5a1.38,1.38,0,0,1-1.38-1.37Z" transform="translate(-0.12)"/><path class="cls-2" d="M22.38,6.63A1.38,1.38,0,1,1,23.75,8a1.37,1.37,0,0,1-1.37-1.37Z" transform="translate(-0.12)"/><path class="cls-2" d="M33.38,8.38a1.37,1.37,0,1,1,1.37,1.37,1.37,1.37,0,0,1-1.37-1.37Z" transform="translate(-0.12)"/><path class="cls-2" d="M44.63,10.63A1.37,1.37,0,1,1,46,12a1.37,1.37,0,0,1-1.37-1.37Z" transform="translate(-0.12)"/><path class="cls-2" d="M55.62,12.38A1.38,1.38,0,1,1,57,13.75a1.38,1.38,0,0,1-1.38-1.37Z" transform="translate(-0.12)"/><path class="cls-2" d="M66.87,13.38a1.38,1.38,0,1,1,1.38,1.37,1.38,1.38,0,0,1-1.38-1.37Z" transform="translate(-0.12)"/><path class="cls-2" d="M78.38,14.88a1.37,1.37,0,1,1,1.37,1.37,1.37,1.37,0,0,1-1.37-1.37Z" transform="translate(-0.12)"/><path class="cls-2" d="M89.13,16.13A1.38,1.38,0,1,1,90.5,17.5a1.37,1.37,0,0,1-1.37-1.37Z" transform="translate(-0.12)"/><path class="cls-2" d="M100.38,16.13a1.38,1.38,0,1,1,1.37,1.37,1.37,1.37,0,0,1-1.37-1.37Z" transform="translate(-0.12)"/><path class="cls-2" d="M111.38,15.88a1.37,1.37,0,1,1,1.37,1.37,1.37,1.37,0,0,1-1.37-1.37Z" transform="translate(-0.12)"/><path class="cls-2" d="M122.88,14.63A1.38,1.38,0,1,1,124.25,16a1.37,1.37,0,0,1-1.37-1.37Z" transform="translate(-0.12)"/><path class="cls-2" d="M133.88,13.88a1.37,1.37,0,1,1,1.37,1.37,1.37,1.37,0,0,1-1.37-1.37Z" transform="translate(-0.12)"/></svg>