<svg id="Слой_1" data-name="Слой 1" xmlns="http://www.w3.org/2000/svg" viewBox="0 0 77 77"><defs><style>.cls-1{fill:#545453;}.cls-2{fill:#ffdc00;}</style></defs><title>candidat1</title><path class="cls-1" d="M0,38.5A38.5,38.5,0,1,1,38.5,77,38.5,38.5,0,0,1,0,38.5Z" transform="translate(0 0)"/><path class="cls-2" d="M21,48.67a.7.7,0,0,0-.7.71v1.37a.7.7,0,0,0,.7.7h2.62a.7.7,0,0,0,.71-.7V49.38a.71.71,0,0,0-.71-.71ZM36.17,33a2.24,2.24,0,0,0-.25,1,2.39,2.39,0,0,0,4.78,0,2.33,2.33,0,0,0-.29-1.14,6.86,6.86,0,0,1-2.28.38,7,7,0,0,1-2-.27Zm-5-10.61,10.6-.71a3.16,3.16,0,0,1,3.09.74h.94a3.42,3.42,0,0,0,0-.45,7.33,7.33,0,0,0-14.66,0c0,.14,0,.28,0,.42Zm13.43,4.83a7.72,7.72,0,0,0,1.11-3.2h-.85l-.26,3.2ZM32.25,27l.06-3L31.23,24a7.59,7.59,0,0,0,1,3Zm28.2,27.56H16.17v1.78H60.45V54.55ZM29.38,40.05a.83.83,0,0,0-.83.82V53H48.2V40.87a.82.82,0,0,0-.82-.82ZM60.44,28.61H48.5a.2.2,0,0,0-.2.2v7.32a.2.2,0,0,0,.2.2h6.44a.82.82,0,0,1,.8.79v1.65l2.67-2.26a2.28,2.28,0,0,1,.52-.18h1.51a.2.2,0,0,0,.2-.2V28.81a.2.2,0,0,0-.2-.2ZM50.27,37.93H48.5a1.81,1.81,0,0,1-1.8-1.8v-1.2H42.21a4,4,0,0,1-7.82-.13H28.87c-1.08.07-1.9.75-2.35,2.53l-2.64,9.76a2.3,2.3,0,0,1,2,2.29v1.37A2.3,2.3,0,0,1,24.3,53H27V40.87a2.43,2.43,0,0,1,2.43-2.42h18a2.43,2.43,0,0,1,2.42,2.42V53h3.73l-3.26-15ZM60.44,27a1.81,1.81,0,0,1,1.8,1.8v7.32a1.81,1.81,0,0,1-1.8,1.8H59.22c-2.43,2-5.08,4.9-5.08,2.57V37.93H51.91l3.26,15h6.08a.82.82,0,0,1,.8.8v3.38a.81.81,0,0,1-.8.79h-.7V59A.8.8,0,1,1,59,59V57.92H17.67V59a.8.8,0,1,1-1.59,0V57.92h-.71a.81.81,0,0,1-.79-.79V53.75a.81.81,0,0,1,.79-.8h5a2.3,2.3,0,0,1-1.63-2.2V49.38a2.29,2.29,0,0,1,2.3-2.3h1.23L25,36.92c.55-2.21,1.82-3.62,3.88-3.72h5.56a3.6,3.6,0,0,1,.27-.78,7.19,7.19,0,0,1-3.33-3.9,9,9,0,0,1-1.78-5.38,8.67,8.67,0,0,1,0-1.14,8.92,8.92,0,0,1,17.84,0c0,.3-.07.61-.06.91a.88.88,0,0,1,0,.71A9.06,9.06,0,0,1,44,30.32a7.8,7.8,0,0,1-2.09,1.92,4,4,0,0,1,.37,1.09H46.7V28.81A1.81,1.81,0,0,1,48.5,27Zm-19.83,4.1a5.88,5.88,0,0,0,2.11-1.83l.17-.17.41-5.8a1.91,1.91,0,0,0-1.24,0l-8.15.56-.11,5.81a5.77,5.77,0,0,0,2,1.54.82.82,0,0,1,.79.29,5.64,5.64,0,0,0,1.55.22,5.4,5.4,0,0,0,2-.38,4,4,0,0,0,.47-.21Zm-3.86-2.6h2.88v1.6H36.75v-1.6ZM35.31,24.7h1.94v1.6H35.31V24.7Zm4.32,0h1.93v1.6H39.63V24.7Zm.51,6.62a.78.78,0,0,1,.47-.21,4,4,0,0,1-.47.21ZM38.5,44.08a3.68,3.68,0,1,1-3.67,3.67,3.67,3.67,0,0,1,3.67-3.67Zm0,1.59a2.08,2.08,0,1,0,2.08,2.08,2.08,2.08,0,0,0-2.08-2.08ZM49.44,34.08h6.25v1.6H49.44v-1.6Zm0-2.57H59.81v1.6H49.44v-1.6Zm7.69,2.57h1.93v1.6H57.13v-1.6Zm-7.69-4.75H59.81v1.59H49.44V29.33ZM16.38,21H26.75a1.81,1.81,0,0,1,1.8,1.8v7.32a1.81,1.81,0,0,1-1.8,1.8H22.67V34.5c0,2.33-2.65-.52-5.08-2.57H16.38a1.8,1.8,0,0,1-1.8-1.8V22.81a1.8,1.8,0,0,1,1.8-1.8Zm0,1.6a.2.2,0,0,0-.21.2v7.32a.2.2,0,0,0,.21.2h1.51a2.21,2.21,0,0,1,.51.18l2.68,2.26V31.12a.81.81,0,0,1,.8-.79h4.87a.2.2,0,0,0,.2-.2V22.81a.2.2,0,0,0-.2-.2Zm1.31,5.47h3.75v1.6H17.69v-1.6Zm0-2.57h7.87v1.6H17.69v-1.6Zm5.18,2.57h1.94v1.6H22.87v-1.6Zm-5.18-4.75h7.87v1.59H17.69V23.33Z" transform="translate(0 0)"/></svg>