<svg id="Слой_1" data-name="Слой 1" xmlns="http://www.w3.org/2000/svg" viewBox="0 0 77 77"><defs><style>.cls-1{fill:#545453;}.cls-2{fill:#ffdc00;}</style></defs><title>candidat3</title><path class="cls-1" d="M0,38.5A38.5,38.5,0,1,1,38.5,77,38.5,38.5,0,0,1,0,38.5Z" transform="translate(0 0)"/><path class="cls-2" d="M43.24,36a14.4,14.4,0,0,1-.15-1.75c0-.88,0-1.65,0-1.83a.88.88,0,0,1,0-.23.76.76,0,0,1,.55-.6,6.57,6.57,0,0,0,1.45-4.11c0-.64-.47-2,.43-2.25a1.83,1.83,0,0,0,1.32-1.75V17.12A1.83,1.83,0,0,0,45,15.3H32a1.83,1.83,0,0,0-1.83,1.82V23.5c0,1.87,2.13,1.49,1.89,2.68a6.43,6.43,0,0,0-.14,1.32,6.5,6.5,0,0,0,1.52,4.19,3.17,3.17,0,0,0,.3.34,6.55,6.55,0,0,0,9.34.18.88.88,0,0,0,0,.23c0,.18,0,1,0,1.83a8.21,8.21,0,0,1-9.3-.09A14,14,0,0,1,33.63,36a24.07,24.07,0,0,1,4.81,2.87A24.26,24.26,0,0,1,43.24,36Zm1.47-3.21L45,36.1l10.56,2.5a1,1,0,0,1,.61.73l1.25,23.5a.79.79,0,0,1-.8.84H20.25a.8.8,0,0,1-.8-.84l1.25-23.5a1,1,0,0,1,.62-.73l10.56-2.5.29-3.42a8.18,8.18,0,0,1-1.84-5.18,7.94,7.94,0,0,1,.05-1,3.43,3.43,0,0,1-1.8-3V17.12A3.42,3.42,0,0,1,32,13.7H45a3.42,3.42,0,0,1,3.42,3.42V23.5a3.43,3.43,0,0,1-1.8,3,7.94,7.94,0,0,1,.05,1,8.1,8.1,0,0,1-2,5.31ZM35.07,62.08V44.54l-5.35-6.28L23,39.85l4.24,4.88a2.14,2.14,0,0,1,.19.52V62.87a.8.8,0,1,1-1.59,0V45.55l-3.64-4.18-1.1,20.71h4.74v.79a.8.8,0,1,0,1.59,0v-.79ZM38.44,41a10.42,10.42,0,0,0-1.06,1.19l2.82,2.49V43.31A9.23,9.23,0,0,0,38.44,41Zm8.82-2.73L41.8,44.69a.8.8,0,1,1-1.28-1l1-1.24,3.94-4.62-1.44-.34A17.94,17.94,0,0,0,39.66,40a10.36,10.36,0,0,1,1.91,2.52l-1,1.24a.8.8,0,1,0,1.21,1l.07,17.31h7.65v.79a.8.8,0,1,0,1.6,0v-.79h4.73l-1.1-20.71-3.63,4.18V62.87a.8.8,0,1,1-1.6,0V45.25a1.81,1.81,0,0,1,.2-.52l4.24-4.88-6.63-1.57Zm-15.79-.44,3.88,4.56A10.27,10.27,0,0,1,37.22,40,22.82,22.82,0,0,0,33,37.47l-1.48.37Zm7.2,24.24-2-1.64v1.64Zm1.53-2.87-3.53-2.89v2l3.53,2.89v-2Zm0-4.13-3.53-2.89v2.06l3.53,2.89V55.08ZM36.67,46l3.53,2.89V46.83l-3.53-3.12v.39a.61.61,0,0,1,0,.3V46Zm3.53,5-3.53-2.89v2L40.2,53V51ZM32.33,24.62V20.87a.76.76,0,0,1,1-.78l11,2.12a.93.93,0,0,1,.64.79v1.88a.8.8,0,0,1-1.59,0V23.66l-9.41-1.82v2.78a.8.8,0,1,1-1.59,0Zm1.11,7.07a.77.77,0,0,1,.3.34,3.17,3.17,0,0,1-.3-.34ZM35.07,58.9a1.22,1.22,0,0,1,0-.27v.27Zm0-4.13a1.13,1.13,0,0,1,0-.26v.26Zm0-4.12a1.22,1.22,0,0,1,0-.27v.27Zm0-4.13a1.13,1.13,0,0,1,0-.26v.26Z" transform="translate(0 0)"/></svg>