<svg id="Слой_1" data-name="Слой 1" xmlns="http://www.w3.org/2000/svg" viewBox="0 0 77 77"><defs><style>.cls-1{fill:#545453;}.cls-2{fill:#ffdc00;}</style></defs><title>candidat4</title><path class="cls-1" d="M0,38.5A38.5,38.5,0,1,1,38.5,77,38.5,38.5,0,0,1,0,38.5Z" transform="translate(0 0)"/><path class="cls-2" d="M30.94,33.7h1.68a5.35,5.35,0,0,0,.05.55h1.68a1.9,1.9,0,0,1-.12-.36l0-.19H36l-1.47-1.47a2.65,2.65,0,0,0-.35,1.47l0,.19a1.9,1.9,0,0,0,.12.36H32.67a5.35,5.35,0,0,1-.05-.55,4.11,4.11,0,0,1,.8-2.62A.8.8,0,0,1,34.61,30a6,6,0,0,1,3.25-.84.8.8,0,1,1,0,1.6,4.69,4.69,0,0,0-2.07.4l2.36,2.36c1.92-1.15,3.72-1.36,4.69.17h2.36a7.2,7.2,0,0,0-14.24,0Zm-5.52,0h3.91a8.8,8.8,0,0,1,17.47,0h5.88l8.12-8.12L47.17,12,25.42,33.7ZM30.2,56.17H27.71L29,57.42l1.24-1.25ZM61.63,33.7a.81.81,0,0,1,.79.8V55.37a.81.81,0,0,1-.79.8H32.47l-2.95,2.95a.82.82,0,0,1-1.13,0l-2.94-2.95H15a.82.82,0,0,1-.8-.8V44.93l-.57-.57a.82.82,0,0,1,0-1.13l.57-.57V34.5a.82.82,0,0,1,.8-.8h8.16L46.6,10.26a.82.82,0,0,1,1.13,0L62.49,25a.82.82,0,0,1,0,1.13L54.94,33.7Zm-.8,1.6h-45V54.58h45V35.3ZM48.28,29.08l1.24-1.23L50.65,29l-1.24,1.24-1.13-1.14ZM50.4,27l1.24-1.24,1.13,1.14-1.24,1.23L50.4,27Zm-7.87-3.62,1.24-1.24,1.13,1.13-1.23,1.24-1.14-1.13Zm2.13-2.12L45.89,20,47,21.11l-1.23,1.24-1.13-1.13ZM39.79,21l6.1-6.1a1.81,1.81,0,0,1,2.55,0l9.46,9.46a1.81,1.81,0,0,1,0,2.55L51.8,33a.8.8,0,1,1-1.13-1.13l6.1-6.1a.21.21,0,0,0,0-.28L47.31,16A.23.23,0,0,0,47,16l-6.09,6.1A.8.8,0,1,1,39.79,21ZM22.38,48.2h1.75v1.6H22.38V48.2Zm4.87,5.22h-8.5a1.8,1.8,0,0,1-1.8-1.8V38.25a1.81,1.81,0,0,1,1.8-1.8h8.56a.8.8,0,1,1,0,1.6H18.75a.2.2,0,0,0-.2.2V51.62a.2.2,0,0,0,.2.21h8.5a.8.8,0,1,1,0,1.59Zm22-17h8.63a1.8,1.8,0,0,1,1.79,1.8V51.62a1.79,1.79,0,0,1-1.79,1.8H49.25a.8.8,0,1,1,0-1.59h8.63a.2.2,0,0,0,.2-.21V38.25a.2.2,0,0,0-.2-.2H49.25a.8.8,0,1,1,0-1.6Zm-11-.25a8.8,8.8,0,1,1-8.8,8.8,8.8,8.8,0,0,1,8.8-8.8Zm0,1.6a7.2,7.2,0,1,0,7.2,7.2,7.2,7.2,0,0,0-7.2-7.2Zm.92,11a2.61,2.61,0,0,0,1.38-.89c.47-.84.49-1.56-1.38-2.09v3Zm-1.59-8.07a2.76,2.76,0,0,0-1.42.94c-.46.84-.49,1.56,1.42,2.09v-3ZM40.93,42a4.7,4.7,0,0,0-1.76-1.18v3.33c2.62.66,4.14,2.15,2.74,4.59a4.28,4.28,0,0,1-2.74,1.66v.28a.8.8,0,0,1-1.59,0v-.31a5.79,5.79,0,0,1-3.41-2.21.8.8,0,0,1,1.28-1,4.16,4.16,0,0,0,2.13,1.55V45.4c-2.64-.65-4.18-2.15-2.77-4.59a4.26,4.26,0,0,1,2.77-1.71.8.8,0,0,1,1.59.09,6,6,0,0,1,2.9,1.7A.8.8,0,1,1,40.93,42ZM52.5,40.08h1.75v1.59H52.5V40.08Zm-3,0h1.75v1.59H49.5V40.08Zm3,8.12h1.75v1.6H52.5V48.2Zm-3,0h1.75v1.6H49.5V48.2ZM25.38,40.08h1.75v1.59H25.38V40.08Zm-3,0h1.75v1.59H22.38V40.08Zm3,8.12h1.75v1.6H25.38V48.2Z" transform="translate(0 0)"/></svg>