<svg id="Слой_1" data-name="Слой 1" xmlns="http://www.w3.org/2000/svg" viewBox="0 0 77 77"><defs><style>.cls-1{fill:#545453;}.cls-2{fill:#ffdc00;}</style></defs><title>candidat2</title><path class="cls-1" d="M0,38.5A38.5,38.5,0,1,1,38.5,77,38.5,38.5,0,0,1,0,38.5Z" transform="translate(0 0)"/><path class="cls-2" d="M18.5,28.92a.2.2,0,0,0-.2.2V55.5a.2.2,0,0,0,.2.2h1.33V28.92ZM21.42,55.7h7.39a.86.86,0,0,1,.63,0h7.44a.2.2,0,0,0,.2-.2V29.12a.2.2,0,0,0-.2-.2H29.57a.84.84,0,0,1-.89,0H21.42V55.7ZM18.5,27.33h9.83V19.75a2.29,2.29,0,0,1,2.3-2.3H57.25a2.3,2.3,0,0,1,2.3,2.3V58.13a2.29,2.29,0,0,1-2.3,2.29H30.63a2.29,2.29,0,0,1-2.3-2.29V57.3H18.5a1.81,1.81,0,0,1-1.8-1.8V29.12a1.8,1.8,0,0,1,1.8-1.79Zm11.42,0h7a1.79,1.79,0,0,1,1.79,1.79V55.5a1.8,1.8,0,0,1-1.79,1.8h-7v.83a.71.71,0,0,0,.71.7H57.25a.7.7,0,0,0,.7-.7V19.75a.7.7,0,0,0-.7-.7H30.63a.7.7,0,0,0-.71.7v7.58Zm12,22.78L45.2,47l2.87,2.87,6-5.82,3,3.13-9,9.06-6.22-6.14Zm2.3,0L48.12,54l6.76-6.82L54,46.32l-6,5.8-2.88-2.88-1,.9Zm9.12-27H34.17v1.66H53.33V23.17Zm.8-1.59a.81.81,0,0,1,.79.79v3.25a.82.82,0,0,1-.79.81H33.37a.82.82,0,0,1-.79-.81V22.37a.81.81,0,0,1,.79-.79ZM55,30.42H46.75V28.83H55v1.59Zm-9.63,0h-3V28.83h3v1.59ZM55,34.92H46.75V33.33H55v1.59Zm-9.63,0h-3V33.33h3v1.59Zm9.63,4H46.75V37.33H55v1.59Zm-9.63,0h-3V37.33h3v1.59Zm9.63,4H46.75v-1.6H55v1.6Zm-9.63,0h-3v-1.6h3v1.6Zm-18.67-11a3.3,3.3,0,0,1-2.4,2.41V50.17a3.32,3.32,0,0,1,2.4,2.41h4.6a3.32,3.32,0,0,1,2.4-2.41V34.33a3.3,3.3,0,0,1-2.4-2.41Zm-1.5-.79a.82.82,0,0,1,.8-.8h6a.82.82,0,0,1,.8.8,1.7,1.7,0,0,0,1.7,1.7.81.81,0,0,1,.8.79V50.88a.81.81,0,0,1-.8.79,1.7,1.7,0,0,0-1.7,1.7.82.82,0,0,1-.8.81H26a.82.82,0,0,1-.8-.81,1.7,1.7,0,0,0-1.7-1.7.81.81,0,0,1-.8-.79V33.62a.81.81,0,0,1,.8-.79,1.7,1.7,0,0,0,1.7-1.7Zm3.93,9.17a2.08,2.08,0,1,0,2.07,2.08,2.08,2.08,0,0,0-2.07-2.08Zm0-1.6a3.68,3.68,0,1,1-3.68,3.68,3.68,3.68,0,0,1,3.68-3.68Z" transform="translate(0 0)"/></svg>