<svg id="Слой_1" data-name="Слой 1" xmlns="http://www.w3.org/2000/svg" viewBox="0 0 48.88 2.75"><defs><style>.cls-1{fill:#ffdc00;}</style></defs><title>dots</title><path class="cls-1" d="M49.69,1.5a1.38,1.38,0,1,1,1.37,1.37A1.37,1.37,0,0,1,49.69,1.5ZM3.56,1.5A1.38,1.38,0,1,1,4.94,2.87,1.37,1.37,0,0,1,3.56,1.5Zm9.23,0a1.38,1.38,0,1,1,1.37,1.37A1.37,1.37,0,0,1,12.79,1.5ZM22,1.5a1.38,1.38,0,1,1,1.38,1.37A1.37,1.37,0,0,1,22,1.5Zm9.23,0a1.38,1.38,0,1,1,1.37,1.37A1.37,1.37,0,0,1,31.24,1.5Zm9.22,0a1.38,1.38,0,1,1,1.38,1.37A1.37,1.37,0,0,1,40.46,1.5Z" transform="translate(-3.56 -0.13)"/></svg>