<svg xmlns="http://www.w3.org/2000/svg" version="1.1" xmlns:xlink="http://www.w3.org/1999/xlink" xmlns:svgjs="http://svgjs.dev/svgjs" width="66.68" height="54.44"><svg id="SvgjsSvg1005" data-name="Слой 1" xmlns="http://www.w3.org/2000/svg" viewBox="0 0 66.68 54.44"><defs><style>.cls-1{fill:#fd0;}.cls-2{fill:#545453;}</style></defs><title>favicon</title><path class="cls-1" d="M55.32,51.72,48.77,39.9A20.12,20.12,0,0,1,24.86,20.06a19.73,19.73,0,0,1,.33-3.59A10.48,10.48,0,0,0,36.68,16a9.26,9.26,0,1,0,3.12-3.56A10.44,10.44,0,0,0,38.8,1,20.13,20.13,0,0,1,59.52,34.1L66,45.83A5.24,5.24,0,0,1,64,53l-1.46.81a5.25,5.25,0,0,1-7.14-2Z"></path><path class="cls-2" d="M10.06,23.29H25.11a20.1,20.1,0,0,0,10.41,14.6V49.33a4.34,4.34,0,0,1-4.29,4.39H29.79a4.34,4.34,0,0,1-4.34-4.34v-16H10.06v16a4.34,4.34,0,0,1-4.34,4.34H4.34A4.34,4.34,0,0,1,0,49.38V4.55A4.34,4.34,0,0,1,4.34.21H5.72a4.34,4.34,0,0,1,4.34,4.34Z"></path><path class="cls-2" d="M23.08,7.51A7.5,7.5,0,1,1,30.59,15h0A7.5,7.5,0,0,1,23.08,7.51Z"></path></svg><style>@media (prefers-color-scheme: light) { :root { filter: none; } }
@media (prefers-color-scheme: dark) { :root { filter: none; } }
</style></svg>