<svg id="Слой_1" data-name="Слой 1" xmlns="http://www.w3.org/2000/svg" viewBox="0 0 17.72 12.57"><defs><style>.cls-1{fill:#e1e1e0;}</style></defs><title>form2</title><path class="cls-1" d="M.86,11.09a.5.5,0,1,0,.67.74L7,7,8.52,8.37a.53.53,0,0,0,.67,0l1.64-1.44,5.47,4.9a.5.5,0,0,0,.67-.74L11.56,6.24l5.25-4.75a.5.5,0,1,0-.67-.74L8.86,7.33,1.62.76A.5.5,0,0,0,1,1.5L6.22,6.28.86,11.09ZM0,1.56A1.56,1.56,0,0,1,1.56,0h14.6a1.56,1.56,0,0,1,1.56,1.56V11a1.56,1.56,0,0,1-1.56,1.56H1.56A1.56,1.56,0,0,1,0,11V1.56Z"/></svg>