<svg id="Слой_1" data-name="Слой 1" xmlns="http://www.w3.org/2000/svg" viewBox="0 0 16.3 16.04"><defs><style>.cls-1{fill:#e1e1e0;}</style></defs><title>form3</title><path class="cls-1" d="M11,15.68a3.3,3.3,0,0,0,3.09-.09L16,13.72a1.58,1.58,0,0,0-.28-2.25L13.53,9.32c-.76-.38-1.35-.38-1.78,0a1.9,1.9,0,0,0-.75,1.4c-1.2.63-2.38.35-3.56-.84l-1.21-1Q4.45,7.09,5.39,5.3a1.9,1.9,0,0,0,1.4-.75,1.51,1.51,0,0,0,0-1.78L4.64.62A1.58,1.58,0,0,0,2.39.34L.52,2.21A2.77,2.77,0,0,0,.43,5.3,21.47,21.47,0,0,0,11,15.68Z"/></svg>