<svg id="Слой_1" data-name="Слой 1" xmlns="http://www.w3.org/2000/svg" viewBox="0 0 55.25 55.25"><defs><style>.cls-1{fill:#fcbc04;}</style></defs><title>in</title><path class="cls-1" d="M27.63,0A27.63,27.63,0,1,1,0,27.63,27.63,27.63,0,0,1,27.63,0Zm0,2A25.63,25.63,0,1,0,53.25,27.63,25.62,25.62,0,0,0,27.63,2ZM22.94,16.88H33.25a6.38,6.38,0,0,1,6.38,6.37V33.56a6.38,6.38,0,0,1-6.38,6.38H22.94a6.38,6.38,0,0,1-6.38-6.38V23.25a6.38,6.38,0,0,1,6.38-6.37Zm0,2a4.37,4.37,0,0,0-4.38,4.37V33.56a4.38,4.38,0,0,0,4.38,4.38H33.25a4.38,4.38,0,0,0,4.38-4.38V23.25a4.37,4.37,0,0,0-4.38-4.37Zm9.56,3.31a1.57,1.57,0,1,1,1.56,1.56,1.56,1.56,0,0,1-1.56-1.56Zm-4.5.12a5.94,5.94,0,1,1-5.94,5.94A5.94,5.94,0,0,1,28,22.31Zm0,2a3.94,3.94,0,1,0,3.94,3.94A3.95,3.95,0,0,0,28,24.31Z"/></svg>