<svg id="Слой_2" data-name="Слой 2" xmlns="http://www.w3.org/2000/svg" viewBox="0 0 219.04 54.42"><defs><style>.cls-1{fill:#fd0;}.cls-2,.cls-3{fill:#545453;}.cls-3{fill-rule:evenodd;}</style></defs><title>logo</title><path class="cls-1" d="M55.8,52,49.25,40.18a20.55,20.55,0,0,1-3.79.36A20.16,20.16,0,0,1,25.67,16.75a10.48,10.48,0,0,0,11.49-.47,9.26,9.26,0,1,0,3.12-3.56,10.44,10.44,0,0,0-1-11.45A20.13,20.13,0,0,1,60,34.38l6.49,11.73a5.24,5.24,0,0,1-2,7.13l-1.46.81a5.25,5.25,0,0,1-7.14-2Z" transform="translate(-0.48 -0.29)"/><path class="cls-2" d="M74.15,3.91h8.63V25q0,5.11,1.24,7.11c.82,1.33,2.44,2,4.84,2,2.21,0,3.78-.63,4.73-1.89S95,28.56,95,25V3.91h8.63v22.5q0,7-2.66,10.4-3.37,4.35-12.12,4.35-8.51,0-12-4.3-2.73-3.47-2.72-10.45V3.91Z" transform="translate(-0.48 -0.29)"/><path class="cls-2" d="M10.54,23.57H25.59A20.12,20.12,0,0,0,36,38.17V49.61A4.34,4.34,0,0,1,31.65,54H30.27a4.34,4.34,0,0,1-4.34-4.34v-16H10.54v16A4.34,4.34,0,0,1,6.2,54H4.82A4.34,4.34,0,0,1,.48,49.61V4.83A4.34,4.34,0,0,1,4.82.49H6.2a4.34,4.34,0,0,1,4.34,4.34V23.57Z" transform="translate(-0.48 -0.29)"/><path class="cls-2" d="M23.56,7.79a7.5,7.5,0,1,1,7.5,7.49,7.5,7.5,0,0,1-7.5-7.49Z" transform="translate(-0.48 -0.29)"/><path class="cls-2" d="M189.62,28.36h8.74q0,3.63,2.25,5a7.65,7.65,0,0,0,4,.78,9.16,9.16,0,0,0,3.54-.52,3.2,3.2,0,0,0,1.95-3.21q0-3.06-3.66-4.45l-4.49-1.19q-6.39-1.56-8.81-3.84t-2.42-7.35a10,10,0,0,1,2.36-7q3.38-3.73,11.64-3.73,7.63,0,10.94,4.29a10.81,10.81,0,0,1,2.06,6.69h-8.21a3.47,3.47,0,0,0-1.83-3.32,7.68,7.68,0,0,0-3.37-.62,7.24,7.24,0,0,0-3.4.7,2.85,2.85,0,0,0-1.33,2.77,3.15,3.15,0,0,0,1.18,2.72,16,16,0,0,0,5,1.74q7.56,1.54,10.34,4t2.78,7.25q0,5-2.37,7.82-3.48,4.25-12.05,4.25-6.8,0-10.28-2.44-4.56-3.11-4.55-10.36Z" transform="translate(-0.48 -0.29)"/><polygon class="cls-2" points="169.41 10.67 159.36 10.67 159.36 3.62 187.97 3.62 187.97 10.67 178.04 10.67 178.04 39.83 169.41 39.83 169.41 10.67 169.41 10.67"/><polygon class="cls-2" points="147.08 3.62 155.71 3.62 155.71 39.83 147.08 39.83 147.08 3.62 147.08 3.62"/><polygon class="cls-2" points="119.11 18.18 118.64 39.83 110.01 39.83 110.01 3.62 118.72 3.61 130.56 25.07 131.1 25.07 131.1 3.62 139.73 3.62 139.73 39.83 130.99 39.83 119.11 18.18 119.11 18.18"/><polygon class="cls-2" points="74.71 47.58 78.02 47.58 78.02 51.76 77.31 51.76 77.31 48.16 75.42 48.16 75.42 51.76 74.71 51.76 74.71 47.58 74.71 47.58"/><path class="cls-3" d="M79.24,50a2.14,2.14,0,0,1,.65-1.71,1.92,1.92,0,0,1,1.31-.46,1.85,1.85,0,0,1,1.41.56,2.15,2.15,0,0,1,.55,1.56,2.63,2.63,0,0,1-.25,1.26,1.68,1.68,0,0,1-.7.72,2,2,0,0,1-1,.25,1.87,1.87,0,0,1-1.42-.56A2.23,2.23,0,0,1,79.24,50ZM80,50a1.76,1.76,0,0,0,.35,1.2,1.13,1.13,0,0,0,.88.39,1.11,1.11,0,0,0,.88-.4,1.81,1.81,0,0,0,.35-1.22,1.76,1.76,0,0,0-.35-1.17,1.16,1.16,0,0,0-.88-.4,1.14,1.14,0,0,0-.88.4A1.72,1.72,0,0,0,80,50Z" transform="translate(-0.48 -0.29)"/><path class="cls-3" d="M84.34,47.87h2.92v3.59h.45v1.77h-.58V52h-3.3v1.19h-.58V51.46h.37a6.16,6.16,0,0,0,.72-3.59Zm.59.58a6.8,6.8,0,0,1-.63,3h2.25v-3Z" transform="translate(-0.48 -0.29)"/><path class="cls-3" d="M91.48,46.14h.62a1.08,1.08,0,0,1-.18.59.66.66,0,0,1-.37.21,5.26,5.26,0,0,1-.88,0,2.89,2.89,0,0,0-1.19.16,1,1,0,0,0-.46.54,3.09,3.09,0,0,0-.16,1,2,2,0,0,1,.63-.6,1.66,1.66,0,0,1,.8-.19,1.77,1.77,0,0,1,1.36.56A2.1,2.1,0,0,1,92.19,50a2.36,2.36,0,0,1-.27,1.19,2.1,2.1,0,0,1-.64.73,1.78,1.78,0,0,1-1,.25,1.75,1.75,0,0,1-1.16-.34,2,2,0,0,1-.63-.87,5.22,5.22,0,0,1-.22-1.84,3.28,3.28,0,0,1,.55-2.23,2.33,2.33,0,0,1,1.72-.57,5.43,5.43,0,0,0,.82,0,.15.15,0,0,0,.13-.11Zm0,3.8a1.72,1.72,0,0,0-.31-1.07,1,1,0,0,0-.87-.42,1,1,0,0,0-.9.44,2,2,0,0,0-.32,1.18,1.62,1.62,0,0,0,.35,1.11,1.17,1.17,0,0,0,.87.38,1,1,0,0,0,.85-.44,1.94,1.94,0,0,0,.33-1.18Z" transform="translate(-0.48 -0.29)"/><path class="cls-3" d="M92.73,50a2.13,2.13,0,0,1,.64-1.71,2,2,0,0,1,1.32-.46,1.84,1.84,0,0,1,1.4.56,2.11,2.11,0,0,1,.55,1.56,2.77,2.77,0,0,1-.24,1.26,1.7,1.7,0,0,1-.71.72,2,2,0,0,1-1,.25,1.85,1.85,0,0,1-1.42-.56A2.23,2.23,0,0,1,92.73,50Zm.72,0a1.81,1.81,0,0,0,.35,1.2,1.15,1.15,0,0,0,.89.39,1.12,1.12,0,0,0,.88-.4,1.81,1.81,0,0,0,.35-1.22,1.71,1.71,0,0,0-.36-1.17,1.12,1.12,0,0,0-.87-.4,1.16,1.16,0,0,0-.89.4,1.77,1.77,0,0,0-.35,1.2Z" transform="translate(-0.48 -0.29)"/><path class="cls-3" d="M97.43,53.65V47.87h.64v.54a1.62,1.62,0,0,1,.52-.47,1.37,1.37,0,0,1,.7-.16,1.62,1.62,0,0,1,1.56,1,3,3,0,0,1,.2,1.09,2.73,2.73,0,0,1-.23,1.16,1.69,1.69,0,0,1-.66.78,1.76,1.76,0,0,1-.93.27A1.33,1.33,0,0,1,98.6,52a1.3,1.3,0,0,1-.46-.37v2ZM98.07,50a1.8,1.8,0,0,0,.33,1.19,1,1,0,0,0,.79.38,1,1,0,0,0,.8-.39,1.87,1.87,0,0,0,.34-1.24,1.82,1.82,0,0,0-.33-1.19,1,1,0,0,0-.78-.4,1,1,0,0,0-.8.42A1.92,1.92,0,0,0,98.07,50Z" transform="translate(-0.48 -0.29)"/><polygon class="cls-2" points="103.57 47.58 106.88 47.58 106.88 51.76 106.17 51.76 106.17 48.16 104.28 48.16 104.28 51.76 103.57 51.76 103.57 47.58 103.57 47.58"/><path class="cls-3" d="M111.22,50.69l.73.1a1.79,1.79,0,0,1-.64,1,2.17,2.17,0,0,1-2.64-.21,2.19,2.19,0,0,1-.53-1.58,2.29,2.29,0,0,1,.54-1.63,1.82,1.82,0,0,1,1.4-.58,1.8,1.8,0,0,1,1.37.57A2.27,2.27,0,0,1,112,50a1.58,1.58,0,0,1,0,.19h-3.11a1.67,1.67,0,0,0,.39,1,1.15,1.15,0,0,0,.87.36,1.1,1.1,0,0,0,.66-.2,1.37,1.37,0,0,0,.44-.66Zm-2.32-1.13h2.33a1.34,1.34,0,0,0-.27-.79,1.06,1.06,0,0,0-.87-.41,1.14,1.14,0,0,0-.82.32,1.3,1.3,0,0,0-.37.88Z" transform="translate(-0.48 -0.29)"/><path class="cls-3" d="M112.81,53.65V47.87h.64v.54a1.5,1.5,0,0,1,.51-.47,1.42,1.42,0,0,1,.7-.16,1.65,1.65,0,0,1,.94.27,1.62,1.62,0,0,1,.62.78,2.79,2.79,0,0,1,.21,1.09,2.89,2.89,0,0,1-.23,1.16,1.75,1.75,0,0,1-1.59,1.05A1.28,1.28,0,0,1,114,52a1.33,1.33,0,0,1-.47-.37v2Zm.64-3.67a1.8,1.8,0,0,0,.33,1.19,1,1,0,0,0,.78.38,1,1,0,0,0,.81-.39,1.93,1.93,0,0,0,.33-1.24,1.82,1.82,0,0,0-.32-1.19,1,1,0,0,0-.78-.4,1,1,0,0,0-.8.42,1.92,1.92,0,0,0-.35,1.23Z" transform="translate(-0.48 -0.29)"/><path class="cls-2" d="M120,50.51l.7.1a1.78,1.78,0,0,1-.59,1.12,1.68,1.68,0,0,1-1.15.4,1.78,1.78,0,0,1-1.38-.56A2.28,2.28,0,0,1,117,50a2.89,2.89,0,0,1,.23-1.18,1.53,1.53,0,0,1,.68-.76,2,2,0,0,1,1-.25,1.73,1.73,0,0,1,1.11.34,1.57,1.57,0,0,1,.55,1l-.68.1a1.14,1.14,0,0,0-.35-.63.92.92,0,0,0-.61-.21,1.1,1.1,0,0,0-.87.38,1.82,1.82,0,0,0-.33,1.21,1.9,1.9,0,0,0,.32,1.22,1,1,0,0,0,.84.38,1,1,0,0,0,.7-.25,1.24,1.24,0,0,0,.35-.79Z" transform="translate(-0.48 -0.29)"/><path class="cls-3" d="M121,50a2.13,2.13,0,0,1,.64-1.71,2,2,0,0,1,1.32-.46,1.84,1.84,0,0,1,1.4.56A2.11,2.11,0,0,1,125,49.9a2.77,2.77,0,0,1-.24,1.26,1.74,1.74,0,0,1-.7.72,2.07,2.07,0,0,1-1,.25,1.85,1.85,0,0,1-1.42-.56A2.23,2.23,0,0,1,121,50Zm.72,0a1.81,1.81,0,0,0,.35,1.2,1.15,1.15,0,0,0,.89.39,1.12,1.12,0,0,0,.88-.4,1.81,1.81,0,0,0,.35-1.22,1.71,1.71,0,0,0-.36-1.17,1.12,1.12,0,0,0-.87-.4,1.16,1.16,0,0,0-.89.4,1.77,1.77,0,0,0-.35,1.2Z" transform="translate(-0.48 -0.29)"/><polygon class="cls-2" points="125.26 47.58 125.97 47.58 125.97 49.31 127.93 49.31 127.93 47.58 128.64 47.58 128.64 51.76 127.93 51.76 127.93 49.9 125.97 49.9 125.97 51.76 125.26 51.76 125.26 47.58 125.26 47.58"/><path class="cls-3" d="M132.87,51.52a2.54,2.54,0,0,1-.76.47,2,2,0,0,1-.78.14,1.55,1.55,0,0,1-1.06-.33,1.14,1.14,0,0,1-.37-.86,1.19,1.19,0,0,1,.14-.56,1.1,1.1,0,0,1,.37-.4,1.71,1.71,0,0,1,.51-.24,6,6,0,0,1,.63-.1,7,7,0,0,0,1.26-.24,1.77,1.77,0,0,0,0-.19.8.8,0,0,0-.2-.61,1.54,1.54,0,0,0-1.55-.06,1,1,0,0,0-.35.62l-.7-.1a1.86,1.86,0,0,1,.31-.71,1.39,1.39,0,0,1,.63-.43,3.06,3.06,0,0,1,.95-.14,2.6,2.6,0,0,1,.87.12,1.2,1.2,0,0,1,.5.32,1.18,1.18,0,0,1,.22.48,4.68,4.68,0,0,1,0,.65v.94a9.75,9.75,0,0,0,.05,1.25,1.56,1.56,0,0,0,.17.5H133a1.52,1.52,0,0,1-.14-.52ZM132.82,50a5.4,5.4,0,0,1-1.16.27,2.2,2.2,0,0,0-.62.14.58.58,0,0,0-.28.23.56.56,0,0,0-.1.33.61.61,0,0,0,.21.47,1,1,0,0,0,.63.19,1.46,1.46,0,0,0,.73-.18,1.11,1.11,0,0,0,.47-.49,1.79,1.79,0,0,0,.11-.7V50Z" transform="translate(-0.48 -0.29)"/><path class="cls-2" d="M134.93,47.87h3.29V52h-.71V48.45h-1.87v2.08a6,6,0,0,1,0,1,.71.71,0,0,1-.26.41,1,1,0,0,1-.61.17l-.57,0v-.59h.31a.76.76,0,0,0,.31-.05.29.29,0,0,0,.13-.14,3.62,3.62,0,0,0,0-.64V47.87Z" transform="translate(-0.48 -0.29)"/><path class="cls-3" d="M142,51.52a2.67,2.67,0,0,1-.76.47,2,2,0,0,1-.78.14,1.53,1.53,0,0,1-1.06-.33,1.11,1.11,0,0,1-.37-.86,1.08,1.08,0,0,1,.14-.56,1.07,1.07,0,0,1,.36-.4,1.71,1.71,0,0,1,.51-.24,6,6,0,0,1,.63-.1,7,7,0,0,0,1.27-.24v-.19a.76.76,0,0,0-.2-.61,1.19,1.19,0,0,0-.81-.24,1.24,1.24,0,0,0-.74.18,1.14,1.14,0,0,0-.35.62l-.69-.1a1.72,1.72,0,0,1,.31-.71,1.29,1.29,0,0,1,.63-.43,3,3,0,0,1,.95-.14,2.6,2.6,0,0,1,.87.12,1.16,1.16,0,0,1,.49.32,1.06,1.06,0,0,1,.22.48,3.25,3.25,0,0,1,0,.65v.94a10.56,10.56,0,0,0,0,1.25,1.58,1.58,0,0,0,.18.5h-.74a1.32,1.32,0,0,1-.14-.52ZM141.9,50a5.25,5.25,0,0,1-1.16.27,2.29,2.29,0,0,0-.62.14.61.61,0,0,0-.38.56.62.62,0,0,0,.22.47,1,1,0,0,0,.63.19,1.49,1.49,0,0,0,.73-.18,1.09,1.09,0,0,0,.46-.49,1.6,1.6,0,0,0,.12-.7V50Z" transform="translate(-0.48 -0.29)"/><path class="cls-3" d="M146.41,47.87h2.91v3.59h.45v1.77h-.57V52h-3.3v1.19h-.58V51.46h.37a6.16,6.16,0,0,0,.72-3.59Zm.59.58a7.09,7.09,0,0,1-.63,3h2.24v-3Z" transform="translate(-0.48 -0.29)"/><path class="cls-2" d="M150.85,47.87h3.29V52h-.71V48.45h-1.87v2.08a6,6,0,0,1-.05,1,.71.71,0,0,1-.26.41,1,1,0,0,1-.61.17l-.57,0v-.59h.31a.76.76,0,0,0,.31-.05.25.25,0,0,0,.13-.14,3.62,3.62,0,0,0,0-.64V47.87Z" transform="translate(-0.48 -0.29)"/><path class="cls-3" d="M158.44,47.87V52h-.71V50.42h-.4a1.17,1.17,0,0,0-.56.1,2,2,0,0,0-.53.62l-.63.9h-.88l.77-1.12a1.25,1.25,0,0,1,.7-.58,1.29,1.29,0,0,1-.9-.44,1.21,1.21,0,0,1-.3-.81,1.12,1.12,0,0,1,.39-.89,1.67,1.67,0,0,1,1.11-.33Zm-.71.58h-1a1.18,1.18,0,0,0-.82.2.67.67,0,0,0-.18.46.6.6,0,0,0,.27.55,1.82,1.82,0,0,0,.95.18h.78V48.45Z" transform="translate(-0.48 -0.29)"/><path class="cls-3" d="M161.65,47.87h1.63a2.81,2.81,0,0,1,.89.1,1.07,1.07,0,0,1,.51.36,1,1,0,0,1,.21.65,1,1,0,0,1-.13.52.94.94,0,0,1-.37.37,1,1,0,0,1,.49.37,1.05,1.05,0,0,1,.19.64,1.1,1.1,0,0,1-.42.88,1.87,1.87,0,0,1-1.12.28h-1.88V47.87Zm.71,1.76h.75a2.72,2.72,0,0,0,.62-.05.61.61,0,0,0,.3-.19.49.49,0,0,0,.13-.35.47.47,0,0,0-.23-.46,1.84,1.84,0,0,0-.8-.13h-.77v1.18Zm0,1.83h.93a1.6,1.6,0,0,0,.82-.14.54.54,0,0,0,.24-.48.64.64,0,0,0-.13-.37.6.6,0,0,0-.34-.22,3.62,3.62,0,0,0-.67,0h-.85v1.25Z" transform="translate(-0.48 -0.29)"/><path class="cls-3" d="M168.53,51.52a2.81,2.81,0,0,1-.76.47,2.09,2.09,0,0,1-.79.14,1.55,1.55,0,0,1-1.06-.33,1.13,1.13,0,0,1-.36-.86,1.09,1.09,0,0,1,.5-1,1.71,1.71,0,0,1,.51-.24,6,6,0,0,1,.63-.1,7.19,7.19,0,0,0,1.27-.24v-.19a.8.8,0,0,0-.2-.61,1.19,1.19,0,0,0-.81-.24,1.24,1.24,0,0,0-.74.18,1,1,0,0,0-.35.62l-.69-.1a1.6,1.6,0,0,1,.31-.71,1.31,1.31,0,0,1,.62-.43,3.08,3.08,0,0,1,1-.14,2.68,2.68,0,0,1,.87.12,1.16,1.16,0,0,1,.49.32,1.06,1.06,0,0,1,.22.48,4.27,4.27,0,0,1,0,.65v.94a10.56,10.56,0,0,0,0,1.25,1.85,1.85,0,0,0,.17.5h-.74a1.52,1.52,0,0,1-.13-.52ZM168.47,50a5.25,5.25,0,0,1-1.16.27,2.29,2.29,0,0,0-.62.14.63.63,0,0,0-.28.23.56.56,0,0,0-.1.33.59.59,0,0,0,.22.47.94.94,0,0,0,.62.19,1.44,1.44,0,0,0,.73-.18,1.06,1.06,0,0,0,.47-.49,1.6,1.6,0,0,0,.12-.7V50Z" transform="translate(-0.48 -0.29)"/><polygon class="cls-2" points="169.78 47.58 170.49 47.58 170.49 51.17 172.1 51.17 172.1 47.58 172.81 47.58 172.81 51.17 174.42 51.17 174.42 47.58 175.12 47.58 175.12 51.76 169.78 51.76 169.78 47.58 169.78 47.58"/><path class="cls-3" d="M179.49,50.69l.73.1a1.74,1.74,0,0,1-.64,1,1.87,1.87,0,0,1-1.19.35,1.89,1.89,0,0,1-1.45-.56,2.23,2.23,0,0,1-.53-1.58,2.29,2.29,0,0,1,.54-1.63,1.82,1.82,0,0,1,1.4-.58,1.8,1.8,0,0,1,1.37.57,2.27,2.27,0,0,1,.53,1.6,1.58,1.58,0,0,1,0,.19h-3.11a1.67,1.67,0,0,0,.39,1,1.23,1.23,0,0,0,1.54.16,1.43,1.43,0,0,0,.43-.66Zm-2.32-1.13h2.33a1.34,1.34,0,0,0-.27-.79,1,1,0,0,0-.87-.41,1.14,1.14,0,0,0-.82.32,1.34,1.34,0,0,0-.37.88Z" transform="translate(-0.48 -0.29)"/><polygon class="cls-2" points="180.6 47.58 183 47.58 183 48.16 181.31 48.16 181.31 51.76 180.6 51.76 180.6 47.58 180.6 47.58"/><path class="cls-3" d="M183.54,50a2.14,2.14,0,0,1,.65-1.71,1.92,1.92,0,0,1,1.31-.46,1.88,1.88,0,0,1,1.41.56,2.14,2.14,0,0,1,.54,1.56,2.77,2.77,0,0,1-.24,1.26,1.68,1.68,0,0,1-.7.72,2.07,2.07,0,0,1-1,.25,1.85,1.85,0,0,1-1.42-.56,2.23,2.23,0,0,1-.54-1.62Zm.73,0a1.76,1.76,0,0,0,.35,1.2,1.18,1.18,0,0,0,1.76,0,1.81,1.81,0,0,0,.35-1.22,1.76,1.76,0,0,0-.35-1.17,1.16,1.16,0,0,0-.88-.4,1.13,1.13,0,0,0-.88.4,1.72,1.72,0,0,0-.35,1.2Z" transform="translate(-0.48 -0.29)"/><path class="cls-3" d="M193.47,46.14h.63a1.17,1.17,0,0,1-.18.59.66.66,0,0,1-.37.21,5.4,5.4,0,0,1-.89,0,2.92,2.92,0,0,0-1.19.16,1,1,0,0,0-.45.54,2.82,2.82,0,0,0-.16,1,2,2,0,0,1,.63-.6,1.6,1.6,0,0,1,.8-.19,1.78,1.78,0,0,1,1.36.56,2.1,2.1,0,0,1,.54,1.53,2.36,2.36,0,0,1-.27,1.19,2.2,2.2,0,0,1-.64.73,1.79,1.79,0,0,1-1,.25,1.73,1.73,0,0,1-1.15-.34,2.11,2.11,0,0,1-.64-.87,5.47,5.47,0,0,1-.22-1.84,3.28,3.28,0,0,1,.56-2.23,2.32,2.32,0,0,1,1.72-.57,5.53,5.53,0,0,0,.82,0,.14.14,0,0,0,.12-.11Zm0,3.8a1.72,1.72,0,0,0-.31-1.07,1,1,0,0,0-.87-.42,1,1,0,0,0-.9.44,2,2,0,0,0-.32,1.18,1.62,1.62,0,0,0,.35,1.11,1.17,1.17,0,0,0,.87.38,1,1,0,0,0,.85-.44,1.94,1.94,0,0,0,.33-1.18Z" transform="translate(-0.48 -0.29)"/><polygon class="cls-2" points="194.51 47.58 195.22 47.58 195.22 50.76 197.19 47.58 197.95 47.58 197.95 51.76 197.24 51.76 197.24 48.59 195.27 51.76 194.51 51.76 194.51 47.58 194.51 47.58"/><path class="cls-2" d="M200.37,50.15V49.6a5.26,5.26,0,0,0,.61,0,.55.55,0,0,0,.31-.19.52.52,0,0,0,.14-.39.55.55,0,0,0-.19-.45.67.67,0,0,0-.49-.17.87.87,0,0,0-.84.7l-.67-.12a1.61,1.61,0,0,1,2.56-.8,1.13,1.13,0,0,1,.38.87.91.91,0,0,1-.49.81,1.16,1.16,0,0,1,.47.43,1.24,1.24,0,0,1-.25,1.53,1.66,1.66,0,0,1-1.14.35,1.46,1.46,0,0,1-1.66-1.26l.67-.15a1,1,0,0,0,.36.62,1,1,0,0,0,.64.22.88.88,0,0,0,.59-.2.66.66,0,0,0,.24-.52.64.64,0,0,0-.15-.42.64.64,0,0,0-.31-.23,3,3,0,0,0-.62,0Z" transform="translate(-0.48 -0.29)"/><polygon class="cls-2" points="202.61 47.58 203.32 47.58 203.32 49.31 205.28 49.31 205.28 47.58 205.99 47.58 205.99 51.76 205.28 51.76 205.28 49.9 203.32 49.9 203.32 51.76 202.61 51.76 202.61 47.58 202.61 47.58"/><path class="cls-3" d="M210.35,50.69l.73.1a1.85,1.85,0,0,1-.64,1,2.17,2.17,0,0,1-2.64-.21,2.19,2.19,0,0,1-.54-1.58,2.29,2.29,0,0,1,.54-1.63,1.83,1.83,0,0,1,1.41-.58,1.77,1.77,0,0,1,1.36.57,2.27,2.27,0,0,1,.53,1.6v.19H208a1.67,1.67,0,0,0,.39,1,1.19,1.19,0,0,0,.88.36,1.12,1.12,0,0,0,.66-.2,1.44,1.44,0,0,0,.44-.66ZM208,49.56h2.32a1.41,1.41,0,0,0-.26-.79,1.08,1.08,0,0,0-.88-.41,1.16,1.16,0,0,0-.82.32,1.29,1.29,0,0,0-.36.88Z" transform="translate(-0.48 -0.29)"/><path class="cls-2" d="M214.66,50.51l.69.1a1.77,1.77,0,0,1-.58,1.12,1.7,1.7,0,0,1-1.15.4,1.78,1.78,0,0,1-1.38-.56,2.28,2.28,0,0,1-.52-1.6,2.89,2.89,0,0,1,.23-1.18,1.53,1.53,0,0,1,.68-.76,2,2,0,0,1,1-.25,1.74,1.74,0,0,1,1.12.34,1.62,1.62,0,0,1,.55,1l-.69.1a1.13,1.13,0,0,0-.34-.63.92.92,0,0,0-.61-.21,1.08,1.08,0,0,0-.87.38,2.43,2.43,0,0,0,0,2.43,1,1,0,0,0,.84.38,1,1,0,0,0,.7-.25,1.29,1.29,0,0,0,.35-.79Z" transform="translate(-0.48 -0.29)"/><path class="cls-3" d="M218.64,51.52a2.67,2.67,0,0,1-.76.47,2,2,0,0,1-.78.14A1.55,1.55,0,0,1,216,51.8a1.11,1.11,0,0,1-.37-.86,1.19,1.19,0,0,1,.14-.56,1,1,0,0,1,.37-.4,1.71,1.71,0,0,1,.51-.24,6,6,0,0,1,.63-.1,7,7,0,0,0,1.26-.24c0-.1,0-.16,0-.19a.76.76,0,0,0-.21-.61,1.18,1.18,0,0,0-.8-.24,1.22,1.22,0,0,0-.74.18,1.09,1.09,0,0,0-.36.62l-.69-.1a1.72,1.72,0,0,1,.31-.71,1.39,1.39,0,0,1,.63-.43,3,3,0,0,1,1-.14,2.6,2.6,0,0,1,.87.12,1.2,1.2,0,0,1,.5.32,1.33,1.33,0,0,1,.22.48,4.68,4.68,0,0,1,0,.65v.94a9.75,9.75,0,0,0,0,1.25,1.35,1.35,0,0,0,.17.5h-.74a1.52,1.52,0,0,1-.14-.52Zm0-1.57a5.4,5.4,0,0,1-1.16.27,2.2,2.2,0,0,0-.62.14.54.54,0,0,0-.28.23.56.56,0,0,0-.1.33.61.61,0,0,0,.21.47,1,1,0,0,0,.63.19,1.46,1.46,0,0,0,.73-.18,1.11,1.11,0,0,0,.47-.49,1.79,1.79,0,0,0,.11-.7V50Z" transform="translate(-0.48 -0.29)"/></svg>