<svg id="Слой_1" data-name="Слой 1" xmlns="http://www.w3.org/2000/svg" viewBox="0 0 30.13 22.06"><defs><style>.cls-1{fill:#fcbc04;}</style></defs><title>mail</title><path class="cls-1" d="M2.44,0H27.69a2.44,2.44,0,0,1,2.44,2.44V19.63a2.44,2.44,0,0,1-2.44,2.43H2.44A2.43,2.43,0,0,1,0,19.63V2.44A2.44,2.44,0,0,1,2.44,0ZM28.13,3.36,19.85,11l8.28,7.73V3.36ZM3.36,2l11.7,10.76L26.65,2Zm8.18,10.25-8,7.81H26.58l-8.2-7.65-2.64,2.45a1.07,1.07,0,0,1-1.35,0l-2.85-2.61ZM2,18.74l8.07-7.85L2,3.47V18.74Z"/></svg>