<svg id="Слой_1" data-name="Слой 1" xmlns="http://www.w3.org/2000/svg" viewBox="0 0 25.38 35.12"><defs><style>.cls-1{fill:#fbbb04;fill-rule:evenodd;}</style></defs><title>mouse</title><path class="cls-1" d="M12,10.8a1.25,1.25,0,0,1,2.5,0v4.5a1.25,1.25,0,0,1-2.5,0V10.8Zm.87-7.86a10,10,0,0,0-10,10V23.06a10,10,0,0,0,10,10h.38a10,10,0,0,0,10-10V12.94a10,10,0,0,0-10-10Zm0-2.5h.38a12.5,12.5,0,0,1,12.5,12.5V23.06a12.5,12.5,0,0,1-12.5,12.5h-.38A12.5,12.5,0,0,1,.37,23.06V12.94A12.5,12.5,0,0,1,12.87.44Z" transform="translate(-0.37 -0.44)"/></svg>