<svg id="Слой_1" data-name="Слой 1" xmlns="http://www.w3.org/2000/svg" viewBox="0 0 1294 393.59"><defs><style>.cls-1{fill:#fbbb04;}.cls-2{fill:#c3c3c3;}</style></defs><title>path</title><polygon class="cls-1" points="92.02 381.4 94.77 393.34 103.27 384.88 92.02 381.4 92.02 381.4"/><path class="cls-2" d="M3.25,327a1.38,1.38,0,1,1,1.38,1.37A1.37,1.37,0,0,1,3.25,327Z" transform="translate(0 -0.94)"/><path class="cls-2" d="M.75,338.17a1.38,1.38,0,1,1,1.37,1.37,1.37,1.37,0,0,1-1.37-1.37Z" transform="translate(0 -0.94)"/><path class="cls-2" d="M0,348.37A1.37,1.37,0,0,1,1.38,347,1.37,1.37,0,1,1,0,348.37Z" transform="translate(0 -0.94)"/><path class="cls-2" d="M.5,359.82a1.38,1.38,0,1,1,1.38,1.37A1.37,1.37,0,0,1,.5,359.82Z" transform="translate(0 -0.94)"/><path class="cls-2" d="M4.5,370a1.38,1.38,0,1,1,1.38,1.37A1.37,1.37,0,0,1,4.5,370Z" transform="translate(0 -0.94)"/><path class="cls-2" d="M11.25,378A1.38,1.38,0,0,1,14,378a1.38,1.38,0,0,1-2.75,0Z" transform="translate(0 -0.94)"/><path class="cls-2" d="M20.75,383.21a1.38,1.38,0,1,1,1.38,1.36,1.37,1.37,0,0,1-1.38-1.36Z" transform="translate(0 -0.94)"/><path class="cls-2" d="M30.76,389.18a1.38,1.38,0,1,1,1.37,1.36,1.37,1.37,0,0,1-1.37-1.36Z" transform="translate(0 -0.94)"/><path class="cls-2" d="M41.26,392.41a1.38,1.38,0,1,1,1.37,1.37,1.37,1.37,0,0,1-1.37-1.37Z" transform="translate(0 -0.94)"/><path class="cls-2" d="M51.76,393.16a1.38,1.38,0,1,1,1.38,1.37,1.37,1.37,0,0,1-1.38-1.37Z" transform="translate(0 -0.94)"/><path class="cls-2" d="M63,392.91a1.38,1.38,0,1,1,1.38,1.37A1.37,1.37,0,0,1,63,392.91Z" transform="translate(0 -0.94)"/><path class="cls-2" d="M74,391.42a1.38,1.38,0,1,1,1.38,1.36A1.37,1.37,0,0,1,74,391.42Z" transform="translate(0 -0.94)"/><path class="cls-2" d="M85.27,389.43a1.38,1.38,0,1,1,1.37,1.36,1.37,1.37,0,0,1-1.37-1.36Z" transform="translate(0 -0.94)"/><polygon class="cls-1" points="680.51 272.72 680.32 260.47 670.23 266.98 680.51 272.72 680.51 272.72"/><path class="cls-2" d="M7.75,317.52a1.38,1.38,0,1,1,1.38,1.37,1.37,1.37,0,0,1-1.38-1.37Z" transform="translate(0 -0.94)"/><path class="cls-2" d="M12.5,307.57a1.38,1.38,0,0,1,2.75,0,1.38,1.38,0,0,1-2.75,0Z" transform="translate(0 -0.94)"/><path class="cls-2" d="M19,296.63A1.38,1.38,0,1,1,20.38,298,1.37,1.37,0,0,1,19,296.63Z" transform="translate(0 -0.94)"/><path class="cls-2" d="M25.5,288.17a1.38,1.38,0,1,1,1.38,1.37,1.37,1.37,0,0,1-1.38-1.37Z" transform="translate(0 -0.94)"/><path class="cls-2" d="M32.26,280.21a1.38,1.38,0,1,1,1.37,1.36,1.37,1.37,0,0,1-1.37-1.36Z" transform="translate(0 -0.94)"/><path class="cls-2" d="M40,271a1.38,1.38,0,1,1,1.37,1.37A1.37,1.37,0,0,1,40,271Z" transform="translate(0 -0.94)"/><path class="cls-2" d="M48.26,264a1.38,1.38,0,1,1,1.37,1.37A1.36,1.36,0,0,1,48.26,264Z" transform="translate(0 -0.94)"/><path class="cls-2" d="M56.76,257.07a1.38,1.38,0,1,1,1.38,1.37,1.37,1.37,0,0,1-1.38-1.37Z" transform="translate(0 -0.94)"/><path class="cls-2" d="M65,250.35a1.38,1.38,0,0,1,2.75,0,1.38,1.38,0,0,1-2.75,0Z" transform="translate(0 -0.94)"/><path class="cls-2" d="M75,243.63A1.37,1.37,0,1,1,76.39,245,1.37,1.37,0,0,1,75,243.63Z" transform="translate(0 -0.94)"/><path class="cls-2" d="M84.77,239.15a1.38,1.38,0,1,1,1.37,1.37,1.36,1.36,0,0,1-1.37-1.37Z" transform="translate(0 -0.94)"/><path class="cls-2" d="M95,233.93a1.38,1.38,0,1,1,1.37,1.37A1.37,1.37,0,0,1,95,233.93Z" transform="translate(0 -0.94)"/><path class="cls-2" d="M105.52,230a1.38,1.38,0,1,1,1.38,1.37,1.37,1.37,0,0,1-1.38-1.37Z" transform="translate(0 -0.94)"/><path class="cls-2" d="M115.52,226a1.38,1.38,0,1,1,1.38,1.37,1.37,1.37,0,0,1-1.38-1.37Z" transform="translate(0 -0.94)"/><path class="cls-2" d="M126.53,222.73a1.38,1.38,0,1,1,1.37,1.37,1.36,1.36,0,0,1-1.37-1.37Z" transform="translate(0 -0.94)"/><path class="cls-2" d="M137,221.49a1.38,1.38,0,1,1,1.37,1.37,1.37,1.37,0,0,1-1.37-1.37Z" transform="translate(0 -0.94)"/><path class="cls-2" d="M148.78,219.25a1.38,1.38,0,1,1,1.37,1.37,1.37,1.37,0,0,1-1.37-1.37Z" transform="translate(0 -0.94)"/><path class="cls-2" d="M159.78,219.25a1.38,1.38,0,1,1,1.38,1.37,1.37,1.37,0,0,1-1.38-1.37Z" transform="translate(0 -0.94)"/><path class="cls-2" d="M171.28,219.5a1.38,1.38,0,1,1,1.38,1.37,1.37,1.37,0,0,1-1.38-1.37Z" transform="translate(0 -0.94)"/><path class="cls-2" d="M181.78,219.5a1.38,1.38,0,1,1,1.38,1.37,1.37,1.37,0,0,1-1.38-1.37Z" transform="translate(0 -0.94)"/><path class="cls-2" d="M194,220.25a1.38,1.38,0,1,1,1.37,1.36,1.37,1.37,0,0,1-1.37-1.36Z" transform="translate(0 -0.94)"/><path class="cls-2" d="M204.79,220.25a1.38,1.38,0,1,1,1.38,1.36,1.37,1.37,0,0,1-1.38-1.36Z" transform="translate(0 -0.94)"/><path class="cls-2" d="M215.79,221.24a1.38,1.38,0,0,1,2.75,0,1.38,1.38,0,0,1-2.75,0Z" transform="translate(0 -0.94)"/><path class="cls-2" d="M227.29,222.24a1.38,1.38,0,1,1,1.38,1.37,1.37,1.37,0,0,1-1.38-1.37Z" transform="translate(0 -0.94)"/><path class="cls-2" d="M238.55,222.73a1.38,1.38,0,1,1,1.37,1.37,1.36,1.36,0,0,1-1.37-1.37Z" transform="translate(0 -0.94)"/><path class="cls-2" d="M249.55,224a1.38,1.38,0,0,1,2.75,0,1.38,1.38,0,0,1-2.75,0Z" transform="translate(0 -0.94)"/><path class="cls-2" d="M261.05,226.22a1.38,1.38,0,1,1,1.38,1.37,1.37,1.37,0,0,1-1.38-1.37Z" transform="translate(0 -0.94)"/><path class="cls-2" d="M271.55,227a1.38,1.38,0,0,1,2.75,0,1.38,1.38,0,0,1-2.75,0Z" transform="translate(0 -0.94)"/><path class="cls-2" d="M283.8,229.2a1.38,1.38,0,1,1,1.38,1.37,1.38,1.38,0,0,1-1.38-1.37Z" transform="translate(0 -0.94)"/><path class="cls-2" d="M295.56,230.45a1.38,1.38,0,1,1,1.37,1.36,1.37,1.37,0,0,1-1.37-1.36Z" transform="translate(0 -0.94)"/><path class="cls-2" d="M306.06,231.69a1.38,1.38,0,1,1,1.38,1.37,1.37,1.37,0,0,1-1.38-1.37Z" transform="translate(0 -0.94)"/><path class="cls-2" d="M316.31,232.69a1.38,1.38,0,1,1,1.38,1.36,1.37,1.37,0,0,1-1.38-1.36Z" transform="translate(0 -0.94)"/><path class="cls-2" d="M327.56,234.93a1.38,1.38,0,1,1,1.38,1.36,1.37,1.37,0,0,1-1.38-1.36Z" transform="translate(0 -0.94)"/><path class="cls-2" d="M339.07,236.91a1.38,1.38,0,1,1,1.37,1.37,1.36,1.36,0,0,1-1.37-1.37Z" transform="translate(0 -0.94)"/><path class="cls-2" d="M349.57,238.66a1.38,1.38,0,1,1,1.37,1.36,1.37,1.37,0,0,1-1.37-1.36Z" transform="translate(0 -0.94)"/><path class="cls-2" d="M361.07,240.15a1.38,1.38,0,1,1,1.38,1.37,1.37,1.37,0,0,1-1.38-1.37Z" transform="translate(0 -0.94)"/><path class="cls-2" d="M372.07,241.89a1.38,1.38,0,0,1,2.75,0,1.38,1.38,0,0,1-2.75,0Z" transform="translate(0 -0.94)"/><path class="cls-2" d="M383.57,243.63a1.38,1.38,0,0,1,2.75,0,1.38,1.38,0,0,1-2.75,0Z" transform="translate(0 -0.94)"/><path class="cls-2" d="M394.58,245.62A1.38,1.38,0,1,1,396,247a1.36,1.36,0,0,1-1.37-1.37Z" transform="translate(0 -0.94)"/><path class="cls-2" d="M405.58,247.61A1.38,1.38,0,1,1,407,249a1.37,1.37,0,0,1-1.37-1.37Z" transform="translate(0 -0.94)"/><path class="cls-2" d="M416.33,248.86a1.38,1.38,0,1,1,1.38,1.37,1.37,1.37,0,0,1-1.38-1.37Z" transform="translate(0 -0.94)"/><path class="cls-2" d="M427.08,250.85a1.38,1.38,0,1,1,1.38,1.37,1.37,1.37,0,0,1-1.38-1.37Z" transform="translate(0 -0.94)"/><path class="cls-2" d="M438.33,253.09a1.38,1.38,0,1,1,1.38,1.37,1.37,1.37,0,0,1-1.38-1.37Z" transform="translate(0 -0.94)"/><path class="cls-2" d="M450.34,254.08a1.38,1.38,0,1,1,1.37,1.37,1.37,1.37,0,0,1-1.37-1.37Z" transform="translate(0 -0.94)"/><path class="cls-2" d="M461.34,256.07a1.38,1.38,0,1,1,1.38,1.37,1.37,1.37,0,0,1-1.38-1.37Z" transform="translate(0 -0.94)"/><path class="cls-2" d="M472.59,257.07a1.38,1.38,0,1,1,1.38,1.37,1.37,1.37,0,0,1-1.38-1.37Z" transform="translate(0 -0.94)"/><path class="cls-2" d="M483.84,257.81a1.38,1.38,0,1,1,1.38,1.37,1.37,1.37,0,0,1-1.38-1.37Z" transform="translate(0 -0.94)"/><path class="cls-2" d="M495.35,259.8a1.38,1.38,0,1,1,1.37,1.37,1.36,1.36,0,0,1-1.37-1.37Z" transform="translate(0 -0.94)"/><path class="cls-2" d="M506.6,261.05a1.38,1.38,0,0,1,2.75,0,1.38,1.38,0,0,1-2.75,0Z" transform="translate(0 -0.94)"/><path class="cls-2" d="M517.85,262a1.38,1.38,0,1,1,1.38,1.37,1.38,1.38,0,0,1-1.38-1.37Z" transform="translate(0 -0.94)"/><path class="cls-2" d="M528.35,263a1.38,1.38,0,1,1,1.38,1.37,1.37,1.37,0,0,1-1.38-1.37Z" transform="translate(0 -0.94)"/><path class="cls-2" d="M539.61,264A1.37,1.37,0,1,1,541,265.4a1.36,1.36,0,0,1-1.37-1.37Z" transform="translate(0 -0.94)"/><path class="cls-2" d="M551.11,265.28a1.38,1.38,0,0,1,2.75,0,1.38,1.38,0,0,1-2.75,0Z" transform="translate(0 -0.94)"/><path class="cls-2" d="M562.61,265A1.38,1.38,0,1,1,564,266.4a1.37,1.37,0,0,1-1.37-1.37Z" transform="translate(0 -0.94)"/><path class="cls-2" d="M573.36,265.78a1.38,1.38,0,1,1,1.38,1.36,1.37,1.37,0,0,1-1.38-1.36Z" transform="translate(0 -0.94)"/><path class="cls-2" d="M584.61,266.52a1.38,1.38,0,0,1,2.75,0,1.38,1.38,0,0,1-2.75,0Z" transform="translate(0 -0.94)"/><path class="cls-2" d="M595.87,267a1.38,1.38,0,0,1,2.75,0,1.38,1.38,0,0,1-2.75,0Z" transform="translate(0 -0.94)"/><path class="cls-2" d="M607.12,267a1.38,1.38,0,0,1,2.75,0,1.38,1.38,0,0,1-2.75,0Z" transform="translate(0 -0.94)"/><path class="cls-2" d="M618.62,267a1.38,1.38,0,1,1,1.37,1.37,1.37,1.37,0,0,1-1.37-1.37Z" transform="translate(0 -0.94)"/><path class="cls-2" d="M629.37,267.77a1.38,1.38,0,1,1,1.38,1.36,1.37,1.37,0,0,1-1.38-1.36Z" transform="translate(0 -0.94)"/><path class="cls-2" d="M641.62,268.26a1.38,1.38,0,0,1,2.75,0,1.38,1.38,0,0,1-2.75,0Z" transform="translate(0 -0.94)"/><path class="cls-2" d="M652.13,268a1.38,1.38,0,1,1,1.37,1.37,1.36,1.36,0,0,1-1.37-1.37Z" transform="translate(0 -0.94)"/><path class="cls-2" d="M663.63,268a1.38,1.38,0,1,1,1.37,1.37,1.36,1.36,0,0,1-1.37-1.37Z" transform="translate(0 -0.94)"/><path class="cls-2" d="M686.38,268a1.38,1.38,0,1,1,1.38,1.37,1.37,1.37,0,0,1-1.38-1.37Z" transform="translate(0 -0.94)"/><path class="cls-2" d="M697.63,268a1.38,1.38,0,1,1,1.38,1.37,1.37,1.37,0,0,1-1.38-1.37Z" transform="translate(0 -0.94)"/><path class="cls-2" d="M708.89,268a1.38,1.38,0,1,1,1.37,1.37,1.36,1.36,0,0,1-1.37-1.37Z" transform="translate(0 -0.94)"/><path class="cls-2" d="M719.89,268.26a1.38,1.38,0,1,1,1.37,1.37,1.38,1.38,0,0,1-1.37-1.37Z" transform="translate(0 -0.94)"/><path class="cls-2" d="M731.14,268a1.38,1.38,0,1,1,1.38,1.37,1.37,1.37,0,0,1-1.38-1.37Z" transform="translate(0 -0.94)"/><path class="cls-2" d="M742.89,268a1.38,1.38,0,1,1,1.38,1.37,1.37,1.37,0,0,1-1.38-1.37Z" transform="translate(0 -0.94)"/><path class="cls-2" d="M754.4,268.26a1.38,1.38,0,1,1,1.37,1.37,1.37,1.37,0,0,1-1.37-1.37Z" transform="translate(0 -0.94)"/><path class="cls-2" d="M765.15,267.52a1.38,1.38,0,1,1,1.37,1.36,1.37,1.37,0,0,1-1.37-1.36Z" transform="translate(0 -0.94)"/><path class="cls-2" d="M776.65,267.27a1.38,1.38,0,1,1,1.37,1.37,1.37,1.37,0,0,1-1.37-1.37Z" transform="translate(0 -0.94)"/><path class="cls-2" d="M787.65,267a1.38,1.38,0,1,1,1.38,1.37,1.37,1.37,0,0,1-1.38-1.37Z" transform="translate(0 -0.94)"/><path class="cls-2" d="M799.15,267a1.38,1.38,0,1,1,1.38,1.37,1.37,1.37,0,0,1-1.38-1.37Z" transform="translate(0 -0.94)"/><path class="cls-2" d="M810.41,266.52a1.38,1.38,0,1,1,1.37,1.37,1.37,1.37,0,0,1-1.37-1.37Z" transform="translate(0 -0.94)"/><path class="cls-2" d="M821.66,266.27a1.38,1.38,0,1,1,1.37,1.37,1.37,1.37,0,0,1-1.37-1.37Z" transform="translate(0 -0.94)"/><path class="cls-2" d="M832.41,266.27a1.38,1.38,0,0,1,2.75,0,1.38,1.38,0,0,1-2.75,0Z" transform="translate(0 -0.94)"/><path class="cls-2" d="M843.41,264.78a1.38,1.38,0,1,1,1.38,1.37,1.37,1.37,0,0,1-1.38-1.37Z" transform="translate(0 -0.94)"/><path class="cls-2" d="M854.92,264.78a1.38,1.38,0,1,1,1.37,1.37,1.37,1.37,0,0,1-1.37-1.37Z" transform="translate(0 -0.94)"/><path class="cls-2" d="M866.42,264.28a1.38,1.38,0,1,1,1.37,1.37,1.37,1.37,0,0,1-1.37-1.37Z" transform="translate(0 -0.94)"/><path class="cls-2" d="M877.67,264.28a1.38,1.38,0,0,1,2.75,0,1.38,1.38,0,0,1-2.75,0Z" transform="translate(0 -0.94)"/><path class="cls-2" d="M888.92,263a1.38,1.38,0,1,1,1.38,1.37,1.37,1.37,0,0,1-1.38-1.37Z" transform="translate(0 -0.94)"/><path class="cls-2" d="M900.67,262a1.38,1.38,0,1,1,1.38,1.37,1.38,1.38,0,0,1-1.38-1.37Z" transform="translate(0 -0.94)"/><path class="cls-2" d="M911.68,261.79a1.38,1.38,0,1,1,1.37,1.37,1.36,1.36,0,0,1-1.37-1.37Z" transform="translate(0 -0.94)"/><path class="cls-2" d="M922.93,261.79a1.38,1.38,0,1,1,1.37,1.37,1.37,1.37,0,0,1-1.37-1.37Z" transform="translate(0 -0.94)"/><path class="cls-2" d="M933.93,260.8a1.38,1.38,0,1,1,1.38,1.37,1.37,1.37,0,0,1-1.38-1.37Z" transform="translate(0 -0.94)"/><path class="cls-2" d="M946.18,259.56a1.38,1.38,0,1,1,1.38,1.36,1.37,1.37,0,0,1-1.38-1.36Z" transform="translate(0 -0.94)"/><path class="cls-2" d="M957.19,258.06a1.38,1.38,0,1,1,1.37,1.37,1.37,1.37,0,0,1-1.37-1.37Z" transform="translate(0 -0.94)"/><path class="cls-2" d="M967.69,257.32a1.38,1.38,0,0,1,2.75,0,1.38,1.38,0,0,1-2.75,0Z" transform="translate(0 -0.94)"/><path class="cls-2" d="M978.44,256.32a1.38,1.38,0,1,1,1.37,1.37,1.37,1.37,0,0,1-1.37-1.37Z" transform="translate(0 -0.94)"/><path class="cls-2" d="M990.69,255.33a1.38,1.38,0,1,1,1.38,1.36,1.37,1.37,0,0,1-1.38-1.36Z" transform="translate(0 -0.94)"/><path class="cls-2" d="M1001.44,254.33a1.38,1.38,0,1,1,1.38,1.37,1.37,1.37,0,0,1-1.38-1.37Z" transform="translate(0 -0.94)"/><path class="cls-2" d="M1012.2,253.34a1.38,1.38,0,1,1,1.37,1.36,1.37,1.37,0,0,1-1.37-1.36Z" transform="translate(0 -0.94)"/><path class="cls-2" d="M1024,251.1a1.38,1.38,0,1,1,1.37,1.36,1.37,1.37,0,0,1-1.37-1.36Z" transform="translate(0 -0.94)"/><path class="cls-2" d="M1035.2,250.1a1.38,1.38,0,0,1,2.75,0,1.38,1.38,0,0,1-2.75,0Z" transform="translate(0 -0.94)"/><path class="cls-2" d="M1045.7,249.36a1.38,1.38,0,1,1,1.38,1.36,1.37,1.37,0,0,1-1.38-1.36Z" transform="translate(0 -0.94)"/><path class="cls-2" d="M1057.7,247.12a1.38,1.38,0,1,1,1.38,1.36,1.37,1.37,0,0,1-1.38-1.36Z" transform="translate(0 -0.94)"/><path class="cls-2" d="M1068.46,245.37a1.38,1.38,0,1,1,1.37,1.37,1.36,1.36,0,0,1-1.37-1.37Z" transform="translate(0 -0.94)"/><path class="cls-2" d="M1079.46,244.63a1.38,1.38,0,1,1,1.37,1.37,1.37,1.37,0,0,1-1.37-1.37Z" transform="translate(0 -0.94)"/><path class="cls-2" d="M1091,242.89a1.38,1.38,0,1,1,1.38,1.37,1.37,1.37,0,0,1-1.38-1.37Z" transform="translate(0 -0.94)"/><path class="cls-2" d="M1102,240.65a1.38,1.38,0,1,1,1.38,1.37,1.37,1.37,0,0,1-1.38-1.37Z" transform="translate(0 -0.94)"/><path class="cls-2" d="M1113.47,238.66a1.38,1.38,0,1,1,1.37,1.36,1.37,1.37,0,0,1-1.37-1.36Z" transform="translate(0 -0.94)"/><path class="cls-2" d="M1123.47,236.91a1.38,1.38,0,1,1,1.37,1.37,1.36,1.36,0,0,1-1.37-1.37Z" transform="translate(0 -0.94)"/><path class="cls-2" d="M1135,233.93a1.38,1.38,0,1,1,1.38,1.37,1.37,1.37,0,0,1-1.38-1.37Z" transform="translate(0 -0.94)"/><path class="cls-2" d="M1146.22,231.69a1.38,1.38,0,1,1,1.38,1.37,1.37,1.37,0,0,1-1.38-1.37Z" transform="translate(0 -0.94)"/><path class="cls-2" d="M1157.22,228.71a1.38,1.38,0,1,1,1.38,1.36,1.37,1.37,0,0,1-1.38-1.36Z" transform="translate(0 -0.94)"/><path class="cls-2" d="M1168,226.22a1.38,1.38,0,0,1,2.75,0,1.38,1.38,0,0,1-2.75,0Z" transform="translate(0 -0.94)"/><path class="cls-2" d="M1178.73,222.73a1.38,1.38,0,1,1,1.37,1.37,1.36,1.36,0,0,1-1.37-1.37Z" transform="translate(0 -0.94)"/><path class="cls-2" d="M1189.48,220a1.38,1.38,0,1,1,1.38,1.37,1.37,1.37,0,0,1-1.38-1.37Z" transform="translate(0 -0.94)"/><path class="cls-2" d="M1200.23,216.27a1.38,1.38,0,1,1,1.38,1.36,1.37,1.37,0,0,1-1.38-1.36Z" transform="translate(0 -0.94)"/><path class="cls-2" d="M1210.48,213a1.38,1.38,0,0,1,2.75,0,1.38,1.38,0,0,1-2.75,0Z" transform="translate(0 -0.94)"/><path class="cls-2" d="M1222,207.81a1.38,1.38,0,0,1,2.75,0,1.38,1.38,0,0,1-2.75,0Z" transform="translate(0 -0.94)"/><path class="cls-2" d="M1231.74,204.07a1.38,1.38,0,1,1,1.37,1.37,1.37,1.37,0,0,1-1.37-1.37Z" transform="translate(0 -0.94)"/><path class="cls-2" d="M1242.49,199.6a1.38,1.38,0,1,1,1.38,1.36,1.37,1.37,0,0,1-1.38-1.36Z" transform="translate(0 -0.94)"/><path class="cls-2" d="M1252,193.13a1.38,1.38,0,1,1,1.38,1.37,1.37,1.37,0,0,1-1.38-1.37Z" transform="translate(0 -0.94)"/><path class="cls-2" d="M1261.49,187.4a1.38,1.38,0,1,1,1.38,1.37,1.37,1.37,0,0,1-1.38-1.37Z" transform="translate(0 -0.94)"/><path class="cls-2" d="M1270.5,180.44a1.38,1.38,0,1,1,1.37,1.37,1.37,1.37,0,0,1-1.37-1.37Z" transform="translate(0 -0.94)"/><path class="cls-2" d="M1278.25,171.48a1.38,1.38,0,1,1,1.37,1.37,1.37,1.37,0,0,1-1.37-1.37Z" transform="translate(0 -0.94)"/><path class="cls-2" d="M1285.5,162.78a1.38,1.38,0,1,1,1.37,1.36,1.37,1.37,0,0,1-1.37-1.36Z" transform="translate(0 -0.94)"/><path class="cls-2" d="M1289.5,151.33a1.38,1.38,0,1,1,1.38,1.37,1.37,1.37,0,0,1-1.38-1.37Z" transform="translate(0 -0.94)"/><path class="cls-2" d="M1291.25,140.88a1.38,1.38,0,1,1,1.38,1.37,1.38,1.38,0,0,1-1.38-1.37Z" transform="translate(0 -0.94)"/><path class="cls-2" d="M1290.25,128.94a1.38,1.38,0,1,1,1.38,1.37,1.37,1.37,0,0,1-1.38-1.37Z" transform="translate(0 -0.94)"/><path class="cls-2" d="M1288.25,118.24a1.38,1.38,0,1,1,1.37,1.37,1.37,1.37,0,0,1-1.37-1.37Z" transform="translate(0 -0.94)"/><path class="cls-2" d="M1286,107.79a1.38,1.38,0,1,1,1.37,1.37,1.37,1.37,0,0,1-1.37-1.37Z" transform="translate(0 -0.94)"/><path class="cls-2" d="M1282.5,96.35a1.38,1.38,0,0,1,2.75,0,1.38,1.38,0,0,1-2.75,0Z" transform="translate(0 -0.94)"/><path class="cls-2" d="M1278.5,86.15a1.38,1.38,0,1,1,1.37,1.36,1.37,1.37,0,0,1-1.37-1.36Z" transform="translate(0 -0.94)"/><path class="cls-2" d="M1273.25,76.2a1.38,1.38,0,1,1,1.37,1.36,1.37,1.37,0,0,1-1.37-1.36Z" transform="translate(0 -0.94)"/><path class="cls-2" d="M1267.25,66a1.38,1.38,0,1,1,1.37,1.37,1.36,1.36,0,0,1-1.37-1.37Z" transform="translate(0 -0.94)"/><path class="cls-2" d="M1260.24,57.54a1.38,1.38,0,1,1,1.38,1.36,1.37,1.37,0,0,1-1.38-1.36Z" transform="translate(0 -0.94)"/><path class="cls-2" d="M1253,48.83a1.38,1.38,0,1,1,1.38,1.37,1.37,1.37,0,0,1-1.38-1.37Z" transform="translate(0 -0.94)"/><path class="cls-2" d="M1244.74,41.61a1.38,1.38,0,0,1,2.75,0,1.38,1.38,0,0,1-2.75,0Z" transform="translate(0 -0.94)"/><path class="cls-2" d="M1235.74,34.65a1.38,1.38,0,1,1,1.37,1.37,1.37,1.37,0,0,1-1.37-1.37Z" transform="translate(0 -0.94)"/><path class="cls-2" d="M1226,27.68a1.38,1.38,0,1,1,1.37,1.37,1.37,1.37,0,0,1-1.37-1.37Z" transform="translate(0 -0.94)"/><path class="cls-2" d="M1216,23a1.38,1.38,0,1,1,1.37,1.37A1.36,1.36,0,0,1,1216,23Z" transform="translate(0 -0.94)"/><path class="cls-2" d="M1205.23,19a1.38,1.38,0,0,1,2.75,0,1.38,1.38,0,0,1-2.75,0Z" transform="translate(0 -0.94)"/><path class="cls-2" d="M1194.48,14.49a1.38,1.38,0,1,1,1.38,1.37,1.37,1.37,0,0,1-1.38-1.37Z" transform="translate(0 -0.94)"/><path class="cls-2" d="M1183.73,11.26a1.38,1.38,0,1,1,1.37,1.37,1.37,1.37,0,0,1-1.37-1.37Z" transform="translate(0 -0.94)"/><path class="cls-2" d="M1172.48,9.52a1.38,1.38,0,0,1,2.75,0,1.38,1.38,0,0,1-2.75,0Z" transform="translate(0 -0.94)"/><path class="cls-2" d="M1161,7.53a1.38,1.38,0,1,1,1.38,1.37A1.37,1.37,0,0,1,1161,7.53Z" transform="translate(0 -0.94)"/><path class="cls-2" d="M1150.22,5.54a1.38,1.38,0,1,1,1.38,1.37,1.37,1.37,0,0,1-1.38-1.37Z" transform="translate(0 -0.94)"/><path class="cls-2" d="M1139.22,4.29a1.38,1.38,0,0,1,2.75,0,1.38,1.38,0,0,1-2.75,0Z" transform="translate(0 -0.94)"/><path class="cls-2" d="M1128.22,3.3a1.38,1.38,0,0,1,2.75,0,1.38,1.38,0,0,1-2.75,0Z" transform="translate(0 -0.94)"/><path class="cls-2" d="M1117.22,2.3a1.38,1.38,0,1,1,1.37,1.37,1.36,1.36,0,0,1-1.37-1.37Z" transform="translate(0 -0.94)"/></svg>