<svg id="Слой_1" data-name="Слой 1" xmlns="http://www.w3.org/2000/svg" viewBox="0 0 26.25 32.51"><defs><style>.cls-1{fill:#fcbc04;}</style></defs><title>place</title><path class="cls-1" d="M4.52,20.17,13.13,30l8.63-9.77a11.36,11.36,0,0,0,2.49-7.09,11.13,11.13,0,1,0-19.73,7ZM3,21.48a13.13,13.13,0,1,1,23.25-8.35,13.43,13.43,0,0,1-2.94,8.35L13.87,32.16a1,1,0,0,1-1.5,0L3,21.48ZM13.13,6.75a6.38,6.38,0,1,1-6.38,6.38,6.37,6.37,0,0,1,6.38-6.38Zm0,2a4.38,4.38,0,1,0,4.37,4.38,4.38,4.38,0,0,0-4.37-4.38Z"/></svg>