<svg id="Слой_1" data-name="Слой 1" xmlns="http://www.w3.org/2000/svg" viewBox="0 0 71.67 71.55"><defs><style>.cls-1{fill:#ffdc00;}</style></defs><title>situation8</title><path class="cls-1" d="M3,47.77V69H5V50.13a1.44,1.44,0,0,1,1.4-1.4H27a1.44,1.44,0,0,1,1.4,1.4V69H30V47.77h2.8V69h8.58V54.25a4.48,4.48,0,0,1,.3-.87c.88-1.12,1.66-2.14,2.35-3.07a1.45,1.45,0,0,1-.15-.68V47.78h5.79l-4.3,5.46h8.81l-4.29-5.46h5.91v2.91c.62.82,1.31,1.72,2.09,2.7a4.48,4.48,0,0,1,.3.87V69h11V47.78h2.8V70.38a1.44,1.44,0,0,1-1.4,1.39H1.64a1.44,1.44,0,0,1-1.4-1.39V47.78Zm34.72,0a1.63,1.63,0,0,1-3.24,0Zm4.5,0a1.63,1.63,0,0,1-3.24,0Zm20.36,0a1.63,1.63,0,0,1-3.21,0Zm4.87,0a1.62,1.62,0,0,1-3.2,0ZM55.37,69V56H44.17V69Zm-43.5,0v-4.2H7.79V69Zm6.75,0v-4.2h-4V69Zm2.8-4.2V69h4.2v-4.2Zm0-9.55h4.2V51.52h-4.2v3.71Zm-6.75,0h4V51.52h-4v3.71Zm-6.88,0h4.08V51.52H7.79v3.71ZM11.87,58H7.79V62h4.08V58Zm6.75,0h-4V62h4V58Zm7,0h-4.2V62h4.2V58Zm24.87,8.1V58.5a1.4,1.4,0,1,1,2.8,0v7.63a1.4,1.4,0,0,1-2.8,0Zm-4.62,0V58.5a1.4,1.4,0,1,1,2.8,0v7.63a1.4,1.4,0,0,1-2.8,0ZM59.39,52.25A1.63,1.63,0,1,1,61,53.88a1.63,1.63,0,0,1-1.63-1.63Zm0,4.37A1.63,1.63,0,1,1,61,58.25a1.63,1.63,0,0,1-1.63-1.63Zm4.88-4.37a1.63,1.63,0,1,1,1.62,1.63,1.62,1.62,0,0,1-1.62-1.63Zm0,4.37a1.63,1.63,0,1,1,1.62,1.63,1.62,1.62,0,0,1-1.62-1.63Zm-4.88,4.76A1.63,1.63,0,1,1,61,63a1.63,1.63,0,0,1-1.63-1.62Zm0,4.37A1.63,1.63,0,1,1,61,67.38a1.63,1.63,0,0,1-1.63-1.63Zm4.88-4.37A1.63,1.63,0,1,1,65.89,63a1.62,1.62,0,0,1-1.62-1.62Zm0,4.37a1.63,1.63,0,1,1,1.62,1.63,1.62,1.62,0,0,1-1.62-1.63ZM34.52,52.38A1.63,1.63,0,1,1,36.14,54a1.62,1.62,0,0,1-1.62-1.62Zm0,4.24a1.63,1.63,0,1,1,1.62,1.63,1.62,1.62,0,0,1-1.62-1.63Zm0,4.63a1.63,1.63,0,1,1,1.62,1.63,1.62,1.62,0,0,1-1.62-1.63Zm0,4.88a1.63,1.63,0,1,1,1.62,1.62,1.62,1.62,0,0,1-1.62-1.62Z" transform="translate(-0.24 -0.23)"/><path class="cls-1" d="M.24,47.77V40.63a1.44,1.44,0,0,1,1.4-1.4h1A8.1,8.1,0,0,1,7.24,33V13.87a1.44,1.44,0,0,1,1.4-1.39h3.1v-6a1.44,1.44,0,0,1,1.4-1.4H14V1.75a1.44,1.44,0,0,1,1.4-1.4h9.25A1.43,1.43,0,0,1,26,1.75V5.1h.48a1.44,1.44,0,0,1,1.4,1.4v6h3.6a1.44,1.44,0,0,1,1.4,1.39V28h8.32V17.88a1.44,1.44,0,0,1,1.4-1.4h1V8.88a1.53,1.53,0,0,1,1.24-1.4L46,7.35V4.25a1.4,1.4,0,1,1,2.8,0V7l1.7-.28v-5a1.4,1.4,0,1,1,2.8,0V6.16l1.83-.38V4.25a1.4,1.4,0,1,1,2.8,0v.89L58.44,5a1.33,1.33,0,0,1,1.73,1.36V16.48h1.1a1.44,1.44,0,0,1,1.4,1.4V40.49c3.58-.55,6.92-1.09,6.86-1.18,1.45.15,2.39.6,2.39,1.56v6.9h-2.8V42.48L55.79,44.34v3.43H49.88l-.11-.13-.11.13H43.87V35.15H28.78a7.87,7.87,0,0,1,1.71,4.08h.9a1.43,1.43,0,0,1,1.4,1.4v7.15H30V46.53H3v1.24Zm34.28,0v-.15a1.63,1.63,0,0,1,3.25,0c0,.05,0,.1,0,.15Zm4.5,0v-.15a1.63,1.63,0,0,1,3.25,0c0,.05,0,.1,0,.15Zm20.39,0a2.45,2.45,0,0,1,0-.27,1.63,1.63,0,0,1,3.25,0,2.45,2.45,0,0,1,0,.27Zm4.88,0a1.23,1.23,0,0,1,0-.27,1.63,1.63,0,0,1,3.25,0,1.24,1.24,0,0,1,0,.27ZM3,43.73H30V42H3v1.7Zm24.62-4.5a5.1,5.1,0,0,0-5-4.21H10.52a5.18,5.18,0,0,0-5,4.21ZM28,32.35H43.87V30.78H28v1.57ZM30.12,28V15.28H10v17h12.6a8,8,0,0,1,2.6.43V29.38a1.44,1.44,0,0,1,1.4-1.4Zm-5-15.5V7.9H14.54v4.58ZM23.24,5.1V3.15H16.79V5.1ZM57.37,16.48V8.14a106.59,106.59,0,0,1-10.95,2v6.36ZM45.52,27.25a1.63,1.63,0,1,1,1.62,1.62,1.64,1.64,0,0,1-.63-.12,1.34,1.34,0,0,1,.16.63V46.74c2.82-3.74,3.43-3.68,6.32.17V43.12a1.56,1.56,0,0,1,1.21-1.38l5.67-.83V19.27H44V28h1.23a1.39,1.39,0,0,1,.46.08,1.68,1.68,0,0,1-.21-.81Zm4.87,13.88A1.63,1.63,0,1,1,52,42.75a1.63,1.63,0,0,1-1.63-1.62ZM55,22.5a1.63,1.63,0,0,1,3.25,0,1.63,1.63,0,1,1-3.25,0Zm0,4.75a1.63,1.63,0,1,1,1.62,1.62A1.61,1.61,0,0,1,55,27.25Zm0,4.38a1.63,1.63,0,1,1,1.62,1.62A1.62,1.62,0,0,1,55,31.63ZM50.39,22.5A1.63,1.63,0,1,1,52,24.13a1.62,1.62,0,0,1-1.63-1.63Zm0,4.75A1.63,1.63,0,1,1,52,28.87a1.62,1.62,0,0,1-1.63-1.62Zm0,4.38A1.63,1.63,0,1,1,52,33.25a1.63,1.63,0,0,1-1.63-1.62ZM45.52,22.5a1.63,1.63,0,0,1,3.25,0,1.63,1.63,0,1,1-3.25,0ZM55,36.25a1.63,1.63,0,1,1,1.62,1.62A1.61,1.61,0,0,1,55,36.25Zm-4.63,0A1.63,1.63,0,1,1,52,37.87a1.62,1.62,0,0,1-1.63-1.62ZM34.52,38.5a1.63,1.63,0,1,1,1.62,1.62,1.61,1.61,0,0,1-1.62-1.62Zm0,4.75a1.63,1.63,0,1,1,1.62,1.63,1.62,1.62,0,0,1-1.62-1.63ZM39,38.5a1.63,1.63,0,1,1,1.62,1.62A1.61,1.61,0,0,1,39,38.5Zm0,4.75a1.63,1.63,0,1,1,1.62,1.63A1.62,1.62,0,0,1,39,43.25ZM11.39,18.13A1.63,1.63,0,1,1,13,19.75a1.63,1.63,0,0,1-1.63-1.62Zm0,4.74A1.63,1.63,0,1,1,13,24.5a1.63,1.63,0,0,1-1.63-1.63Zm0,4.38A1.63,1.63,0,1,1,13,28.87a1.62,1.62,0,0,1-1.63-1.62ZM16,18.13a1.63,1.63,0,1,1,1.62,1.62A1.62,1.62,0,0,1,16,18.13Zm0,4.74a1.63,1.63,0,1,1,1.62,1.63A1.62,1.62,0,0,1,16,22.87Zm0,4.38a1.63,1.63,0,1,1,1.62,1.62A1.61,1.61,0,0,1,16,27.25Zm4.62-9.12a1.63,1.63,0,1,1,1.63,1.62,1.63,1.63,0,0,1-1.63-1.62Zm0,4.74a1.63,1.63,0,1,1,1.63,1.63,1.63,1.63,0,0,1-1.63-1.63Zm0,4.38a1.63,1.63,0,1,1,1.63,1.62,1.62,1.62,0,0,1-1.63-1.62Zm4.5-9.12a1.63,1.63,0,1,1,1.63,1.62,1.63,1.63,0,0,1-1.63-1.62Zm0,4.74a1.63,1.63,0,1,1,1.63,1.63,1.63,1.63,0,0,1-1.63-1.63Z" transform="translate(-0.24 -0.23)"/></svg>