<svg id="Слой_1" data-name="Слой 1" xmlns="http://www.w3.org/2000/svg" viewBox="0 0 80.92 66.87"><defs><style>.cls-1{fill:#ffdc00;}</style></defs><title>situation10</title><path class="cls-1" d="M66.11,11.79l-.87-2c-1.3,3.09-.9,2.8-4.24,3.08,2.53,2.2,2.38,1.73,1.62,5,2.87-1.73,2.37-1.73,5.24,0-.75-3.26-.91-2.79,1.62-5-.67-.05-2.9.09-3.37-1Zm2.25-1.86c1.15.1,8.67.06,5.46,2.85l-3.54,3.07c.26,1.12,2.62,8.27-1,6.08l-4-2.42c-1,.59-7.06,5-6.09.9l1.05-4.56c-.87-.76-7-5.16-2.74-5.52l4.67-.4c.45-1.07,2.74-8.23,4.4-4.32l1.83,4.32ZM40.54,24.68a5.6,5.6,0,0,0-5.6,5.6v4.25a5.7,5.7,0,0,0,5.72,5.6,5.59,5.59,0,0,0,5.6-5.6V30.28a5.71,5.71,0,0,0-5.72-5.6ZM38,42.5a1.84,1.84,0,0,0,0,.41v2.62a2,2,0,0,0,2,2h1a2,2,0,0,0,2-2V42.91a2.45,2.45,0,0,0,0-.27,8.42,8.42,0,0,1-2.21.29A8.55,8.55,0,0,1,38,42.5ZM16.6,28.43A5.4,5.4,0,0,0,11.44,34v2.75a5.39,5.39,0,0,0,5.16,5.6,5.39,5.39,0,0,0,5.16-5.6V34a5.4,5.4,0,0,0-5.16-5.6Zm47.88,0A5.4,5.4,0,0,0,59.31,34v2.75a5.18,5.18,0,1,0,10.33,0V34a5.4,5.4,0,0,0-5.16-5.6Zm-2.54,18.2a2,2,0,0,0,2,2.13h1a2,2,0,0,0,2-2v-2a7.7,7.7,0,0,1-2.41.38,7.57,7.57,0,0,1-2.54-.43v1.88Zm-2.59,1.55-1.63.15a12.32,12.32,0,0,1,1.09,4.06V64.13H78.14V52.91c-.11-2.51-1.29-3.83-3.89-4.23l-4.8-.4a4.79,4.79,0,0,1-4.54,3.28h-1a4.76,4.76,0,0,1-4.56-3.38ZM19,46.73V44.8a7.77,7.77,0,0,1-5,0v2a2,2,0,0,0,2,2h1a2,2,0,0,0,2-2v-.05Zm4.13,1.6-1.53-.15A4.78,4.78,0,0,1,17,51.56H16a4.79,4.79,0,0,1-4.48-3.1l-4.31.1c-3,.3-4.22,1.54-4.44,3.55v12H22V52.53a12.35,12.35,0,0,1,1.13-4.2Zm3.62-.27a1.15,1.15,0,0,1-.3.28,7.15,7.15,0,0,0-1.65,4.27V64.13H56V52.61c-.43-3.9-2.17-5.53-5.17-5.68l-5.28-.3a4.77,4.77,0,0,1-4.65,3.68h-1a4.78,4.78,0,0,1-4.65-3.68l-5.27.3a5.23,5.23,0,0,0-3.23,1.13Zm-5-2.67,3.4.32a8,8,0,0,1,4.63-1.57l5.3-.31v-.92a4.59,4.59,0,0,1,.33-1.73,8.38,8.38,0,0,1-3.33-6.65V30.28a8.41,8.41,0,0,1,8.4-8.4,8.51,8.51,0,0,1,8.52,8.4v4.25a8.37,8.37,0,0,1-3.6,6.9,4.87,4.87,0,0,1,.23,1.48v.92l5.3.31a8,8,0,0,1,4.65,1.58l3.5-.33V44.16a5.24,5.24,0,0,1,.1-1,8.65,8.65,0,0,1-2.73-6.34V34a8,8,0,1,1,15.93,0v2.75a8.59,8.59,0,0,1-2.84,6.44,4.91,4.91,0,0,1,.09.94v1.33l4.89.41c3.93.59,6.21,3,6.36,7V65.53a1.44,1.44,0,0,1-1.4,1.4H1.41A1.44,1.44,0,0,1,0,65.53V52c.36-3.77,3.05-5.82,7.06-6.21l4.18-.1v-1.5a4.55,4.55,0,0,1,.11-1,8.61,8.61,0,0,1-2.73-6.34V34a8.19,8.19,0,0,1,8-8.4,8.19,8.19,0,0,1,8,8.4v2.75a8.59,8.59,0,0,1-2.84,6.44,4.91,4.91,0,0,1,.09.94v1.23ZM43.75,6.07c1.36.11,9.33,0,6,2.9l-4,3.44c.31,1.34,2.84,8.89-.89,6.64l-4.51-2.71c-1.17.7-7.57,5.44-6.58,1.19L35,12.41c-1-.89-7.51-5.52-3.17-5.89l5.24-.45C37.61,4.81,40-2.79,41.7,1.23l2,4.84ZM41.5,7.93,40.41,5.36c-1.6,3.79-.94,3.31-5,3.66,3.1,2.7,2.85,1.92,1.92,5.92,3.52-2.12,2.7-2.12,6.23,0-.93-4-1.19-3.22,1.92-5.92-.52,0-3.42.15-4-1.09Zm-22.14,2c1.15.1,8.67.06,5.46,2.85l-3.54,3.07c.26,1.12,2.62,8.27-1,6.08l-4-2.42c-1,.59-7.06,5-6.09.9l1-4.56c-.87-.76-7-5.16-2.74-5.52l4.67-.4c.45-1.07,2.74-8.23,4.4-4.32l1.83,4.32Zm-2.25,1.86-.87-2c-1.3,3.09-.9,2.8-4.24,3.08,2.53,2.2,2.38,1.73,1.62,5,2.87-1.73,2.37-1.73,5.24,0-.75-3.26-.91-2.79,1.62-5-.67-.05-2.9.09-3.37-1Z" transform="translate(-0.01 -0.07)"/></svg>