<svg id="Слой_1" data-name="Слой 1" xmlns="http://www.w3.org/2000/svg" viewBox="0 0 71.18 71.05"><defs><style>.cls-1{fill:#ffdc00;}</style></defs><title>situation7</title><path class="cls-1" d="M42.16,63.1,40.9,59H30.22L29,63.1Zm26.13-11H2.71v3a1.11,1.11,0,0,0,1.1,1.11H67.19a1.11,1.11,0,0,0,1.1-1.11v-3ZM2.71,49.35H68.29V18.13A1.11,1.11,0,0,0,67.19,17H55.46a20.28,20.28,0,1,1-40,0H3.81a1.11,1.11,0,0,0-1.1,1.11V49.35ZM43.06,36l-1.55-2.7,2.42-1.4,1.54,2.68a17.75,17.75,0,0,0,4.42-4.48l-2.63-1.52,1.4-2.43,2.62,1.51a17.28,17.28,0,0,0,1.58-6.05h-3v-2.8h3a17.22,17.22,0,0,0-1.62-6l-2.57,1.48-1.4-2.42,2.57-1.49a17.64,17.64,0,0,0-4.41-4.42L43.93,8.49l-2.42-1.4L43,4.49a17.58,17.58,0,0,0-6-1.65v3h-2.8V2.82A17.5,17.5,0,0,0,28.07,4.4l1.55,2.69-2.43,1.4L25.63,5.78a17.67,17.67,0,0,0-4.51,4.45l2.75,1.59-1.4,2.42L19.7,12.65A17.33,17.33,0,0,0,18,18.79h3.23v2.8H18a17.56,17.56,0,0,0,1.64,6.17l2.82-1.63,1.4,2.43-2.81,1.62a17.58,17.58,0,0,0,4.52,4.5l1.61-2.8,2.43,1.4L28,36.07a17.37,17.37,0,0,0,6.15,1.61V34.5H37v3.16A17.39,17.39,0,0,0,43.06,36ZM45.94,63.1a2.6,2.6,0,0,1,1.14.59C48.7,66,53.39,71,49.56,71h-28c-4.12,0,2-7.92,3.63-7.92h.7c.28-1.18.83-2.62,1.35-4.08H3.81a3.9,3.9,0,0,1-3.9-3.9v-37a3.9,3.9,0,0,1,3.9-3.9H16.07a20.28,20.28,0,0,1,38.73,0H67.19a3.9,3.9,0,0,1,3.9,3.9v37a3.9,3.9,0,0,1-3.9,3.9H44.11a40.19,40.19,0,0,1,1.06,4.08Zm-.73,2.8H25.91l-1.64,2.33H46.86L45.21,65.9Zm8.35-30.42a1.4,1.4,0,1,1,0,2.8h-.62a1.4,1.4,0,1,1,0-2.8ZM6.31,44.73H22.94a1.4,1.4,0,0,1,0,2.8H6.31a1.4,1.4,0,0,1,0-2.8Zm0-4.63H22.94a1.4,1.4,0,0,1,0,2.8H6.31a1.4,1.4,0,0,1,0-2.8Zm0-4.62h6.88a1.4,1.4,0,0,1,0,2.8H6.31a1.4,1.4,0,0,1,0-2.8Zm11.13,0h.62a1.4,1.4,0,1,1,0,2.8h-.62a1.4,1.4,0,1,1,0-2.8Zm47.25,9.25a1.4,1.4,0,0,1,0,2.8H48.06a1.4,1.4,0,0,1,0-2.8Zm0-4.63a1.4,1.4,0,0,1,0,2.8H48.06a1.4,1.4,0,0,1,0-2.8Zm0-4.62a1.4,1.4,0,0,1,0,2.8H57.81a1.4,1.4,0,0,1,0-2.8ZM36.84,8.75v9L42,14.9a1.4,1.4,0,1,1,1.35,2.45C38.54,20,34,23.56,34,20.13V8.75a1.4,1.4,0,1,1,2.8,0Z" transform="translate(0.09 0.02)"/></svg>