<svg id="Слой_1" data-name="Слой 1" xmlns="http://www.w3.org/2000/svg" viewBox="0 0 73.62 73.84"><defs><style>.cls-1{fill:#ffdc00;}</style></defs><title>situation6</title><path class="cls-1" d="M3.28,19.8a.34.34,0,0,0-.34.34V65.46a.34.34,0,0,0,.34.34H5.56v-46Zm5,46H21a1.52,1.52,0,0,1,1.07,0H34.85a.35.35,0,0,0,.35-.34V20.14a.35.35,0,0,0-.35-.34H22.31a1.54,1.54,0,0,1-1.55,0H8.31v46Zm-5-48.75H20.16V4A4,4,0,0,1,24.11.08H69.86a4,4,0,0,1,4,4V70a4,4,0,0,1-4,4H24.11a4,4,0,0,1-3.95-4V68.55H3.28A3.09,3.09,0,0,1,.19,65.46V20.14a3.09,3.09,0,0,1,3.09-3.09Zm19.63,0H34.85a3.09,3.09,0,0,1,3.09,3.09V65.46a3.09,3.09,0,0,1-3.09,3.09H22.91V70a1.2,1.2,0,0,0,1.2,1.2H69.86a1.2,1.2,0,0,0,1.2-1.2V4a1.2,1.2,0,0,0-1.2-1.2H24.11A1.2,1.2,0,0,0,22.91,4v13ZM43.5,56.2l5.66-5.33,4.93,4.93,10.32-10,5.23,5.4L54.19,66.75,43.5,56.2Zm4,0,6.71,6.62L65.79,51.16l-1.44-1.48-10.29,10-5-4.95-1.65,1.55ZM63.12,9.92H30.21v2.83H63.12V9.92Zm1.37-2.75a1.41,1.41,0,0,1,1.38,1.37v5.59a1.41,1.41,0,0,1-1.38,1.37H28.84a1.41,1.41,0,0,1-1.38-1.37V8.54a1.41,1.41,0,0,1,1.38-1.37ZM66,22.37H51.82V19.63H66v2.74Zm-16.53,0H44.3V19.63h5.16v2.74ZM66,30.11H51.82V27.36H66v2.75Zm-16.53,0H44.3V27.36h5.16v2.75ZM66,37H51.82V34.23H66V37ZM49.46,37H44.3V34.23h5.16V37ZM66,43.85H51.82V41.1H66v2.75Zm-16.53,0H44.3V41.1h5.16v2.75ZM17.37,25a5.68,5.68,0,0,1-4.12,4.13V56.3a5.68,5.68,0,0,1,4.12,4.13h7.9A5.68,5.68,0,0,1,29.4,56.3V29.08A5.68,5.68,0,0,1,25.27,25Zm-2.58-1.37a1.42,1.42,0,0,1,1.38-1.38H26.48a1.41,1.41,0,0,1,1.37,1.38,2.92,2.92,0,0,0,2.92,2.92,1.41,1.41,0,0,1,1.38,1.37V57.51a1.42,1.42,0,0,1-1.38,1.38,2.92,2.92,0,0,0-2.92,2.92,1.41,1.41,0,0,1-1.37,1.37H16.17a1.41,1.41,0,0,1-1.38-1.37,2.92,2.92,0,0,0-2.92-2.92,1.41,1.41,0,0,1-1.37-1.38V27.87a1.41,1.41,0,0,1,1.37-1.37,2.92,2.92,0,0,0,2.92-2.92Zm6.75,15.76a3.57,3.57,0,1,0,3.56,3.57,3.57,3.57,0,0,0-3.56-3.57Zm0-2.75a6.32,6.32,0,1,1-6.32,6.32,6.32,6.32,0,0,1,6.32-6.32Z" transform="translate(-0.19 -0.08)"/></svg>