<svg id="Слой_1" data-name="Слой 1" xmlns="http://www.w3.org/2000/svg" viewBox="0 0 63.46 63.46"><defs><style>.cls-1{fill:#fd0;}</style></defs><title>situation4</title><path class="cls-1" d="M25,22.39l-3.37,3.37a47.73,47.73,0,0,0,16.07,16l3.35-3.35c2.19-2.16,5.29-2.28,8.72-1.07A24.16,24.16,0,0,0,58,39.16l.26,0c3.47.73,5.1,3.5,5.23,7.35v9.9l0,.21c-.66,4.16-3.49,6.43-7.89,6.8h-.19c-11.57-.58-23.1-5.93-34.51-15.75l-5.1-5.11C5.92,31.2.58,19.67,0,8.1V7.91C.38,3.5,2.65.68,6.8,0L7,0h9.9c3.85.14,6.62,1.77,7.35,5.24l0,.25a24.21,24.21,0,0,0,1.79,8.18c1.2,3.42,1.09,6.53-1.07,8.72Zm-2-2c1.08-1.1,1.46-2.85.42-5.8A27.11,27.11,0,0,1,21.5,5.7C21.1,4,19.84,2.91,16.85,2.8H7.14c-2.59.45-4,2-4.34,5.25.57,10.73,5.5,21.61,15,32.65l5,5c11,9.5,21.91,14.43,32.64,15,3.24-.31,4.81-1.75,5.26-4.34V46.56c-.12-3-1.19-4.2-2.9-4.6a27.12,27.12,0,0,1-9-2c-2.93-1-4.67-.64-5.76.44-1.37,1.37-4.14,5.34-5.83,4.33A50.66,50.66,0,0,1,18.68,26.22c-1-1.69,3.06-4.52,4.35-5.8ZM6.45,18.1a50.87,50.87,0,0,1-2.07-10C3.94,5.48,5.65,4.2,8.05,4.25h8a1.4,1.4,0,1,1,0,2.8H8a3.38,3.38,0,0,0-.89.12,1.89,1.89,0,0,0,0,.52A49.06,49.06,0,0,0,9.1,17.21a1.4,1.4,0,1,1-2.65.89Zm39.8,36.26a48.9,48.9,0,0,0,9.52,1.94,1.87,1.87,0,0,0,.52,0,3.87,3.87,0,0,0,.12-.89v-8a1.4,1.4,0,0,1,2.79,0v8c.06,2.42-1.24,4.12-3.81,3.67a50.93,50.93,0,0,1-10-2.06,1.4,1.4,0,1,1,.89-2.65ZM39.9,12.63c6.8.65,10.56,4.43,10.77,11.1a1.4,1.4,0,1,1-2.8.09c-.16-5.17-2.74-7.88-8.23-8.4a1.4,1.4,0,0,1,.26-2.79Zm.48-6.48c10.47,1.72,16.23,7.52,16.67,17.31a1.4,1.4,0,1,1-2.8.13c-.37-8.27-5-13.14-14.33-14.68a1.4,1.4,0,1,1,.46-2.76ZM40.31,0C54.72,1.67,62.5,9.61,63.17,23.58a1.4,1.4,0,0,1-2.8.14C59.77,11.21,53.13,4.31,40,2.79A1.4,1.4,0,1,1,40.31,0Z"/></svg>