<svg id="Слой_1" data-name="Слой 1" xmlns="http://www.w3.org/2000/svg" viewBox="0 0 72.3 72.8"><defs><style>.cls-1{fill:#fd0;}</style></defs><title>situation5</title><path class="cls-1" d="M46.38,70V58.48l-14.33,0L32.15,70l14.23,0Zm2.8-11.49V70L65,69.9l-.1-11.47-15.72,0Zm-17-2.84H64.9a2.89,2.89,0,0,1,2.9,2.89V69.9a2.9,2.9,0,0,1-2.9,2.9H32.15a2.9,2.9,0,0,1-2.9-2.9V58.52a2.89,2.89,0,0,1,2.9-2.89Zm28,8.64a1.5,1.5,0,1,1,1.5,1.5,1.5,1.5,0,0,1-1.5-1.5Zm-9.37,0a1.5,1.5,0,1,1,1.5,1.5,1.5,1.5,0,0,1-1.5-1.5Zm4.62,0a1.5,1.5,0,1,1,1.5,1.5,1.5,1.5,0,0,1-1.5-1.5ZM36.89,65l.51.51L42,60.91a1.4,1.4,0,1,1,2,2c-.7.71-5,5.26-5,5.26-1,.75-1.62,1-2.55.36L34.91,67a1.4,1.4,0,1,1,2-2Zm4.86-36.7V16.87l-13.57,0,.09,11.48,13.48,0Zm2.8-11.48V28.34l25-.07L69.4,16.8l-24.85.06ZM34.65,14a14.85,14.85,0,1,0-.27,17.18H28.27a2.9,2.9,0,0,1-2.89-2.91V16.9A2.89,2.89,0,0,1,28.27,14ZM25.5,44.59a22.63,22.63,0,0,1-3.1.21,23,23,0,0,1-3.73-.31v4.64H25.5V44.59Zm0,7.33H18.67l0,17.83,6.85,0V51.92ZM41,34.88H69.28a2.89,2.89,0,0,1,2.89,2.9V49.15a2.89,2.89,0,0,1-2.89,2.9h-32a2.89,2.89,0,0,1-2.89-2.9V41.33A22.26,22.26,0,0,1,28.3,44V69.77a2.77,2.77,0,0,1-2.77,2.78H18.65a2.77,2.77,0,0,1-2.77-2.78V43.83A22.4,22.4,0,1,1,43.17,14H69.4a2.9,2.9,0,0,1,2.9,2.9V28.27a2.9,2.9,0,0,1-2.9,2.91H43a23.19,23.19,0,0,1-2,3.7Zm-3.74,0h.25a20.09,20.09,0,0,0,2.41-3.7H37.72A17.65,17.65,0,1,1,37.93,14h2.18A19.6,19.6,0,1,0,17.74,41.44,19.37,19.37,0,0,0,22.4,42c1.15,0,2.82-.48,4.08-.43a19.61,19.61,0,0,0,7.9-3.65,2.92,2.92,0,0,1,2.89-3Zm16,2.85-16.07.05.09,11.47,16,0V37.73Zm16-.06-13.23,0V49.19l13.33,0-.1-11.48ZM32,23.16l.52.51L37.16,19a1.4,1.4,0,1,1,2,2c-.71.7-5,5.25-5,5.25-1,.75-1.63,1-2.55.37L30,25.14a1.4,1.4,0,1,1,2-2Zm14.14-.64a1.5,1.5,0,1,1,1.5,1.5,1.5,1.5,0,0,1-1.5-1.5Zm4.75,0A1.5,1.5,0,1,1,52.4,24a1.5,1.5,0,0,1-1.5-1.5Zm4.5,0A1.5,1.5,0,1,1,56.9,24a1.5,1.5,0,0,1-1.5-1.5Zm4.63,0a1.5,1.5,0,1,1,1.5,1.5,1.5,1.5,0,0,1-1.5-1.5Zm4.75,0a1.5,1.5,0,1,1,1.5,1.5,1.5,1.5,0,0,1-1.5-1.5ZM38.9,43.4a1.5,1.5,0,1,1,1.5,1.5,1.5,1.5,0,0,1-1.5-1.5Zm4.63,0A1.5,1.5,0,1,1,45,44.9a1.5,1.5,0,0,1-1.5-1.5Zm4.75,0a1.5,1.5,0,1,1,1.5,1.5,1.5,1.5,0,0,1-1.5-1.5Zm12.49-4,2,2,2-2a1.4,1.4,0,0,1,2,2l-2,2,2,2a1.4,1.4,0,1,1-2,2l-2-2-2,2a1.4,1.4,0,0,1-2-2l2-2-2-2a1.4,1.4,0,0,1,2-2Z"/></svg>