<svg id="Слой_1" data-name="Слой 1" xmlns="http://www.w3.org/2000/svg" viewBox="0 0 85.6 70.22"><defs><style>.cls-1{fill:#fd0;}</style></defs><title>situation1</title><path class="cls-1" d="M16.13,18a3.15,3.15,0,0,1-.38-.35,5.76,5.76,0,0,1-2.47.63v2.27a3.86,3.86,0,0,0,1,2.61,12.08,12.08,0,0,0,1.85,1V18Zm0,9.08a6.19,6.19,0,0,1-3-1.23h-.91a2.8,2.8,0,0,0-2.8,2.8v5.61H11.1v-2.7a1.4,1.4,0,1,1,2.8,0v2.7h2.23V27.09Zm0-14H14.25a1,1,0,0,0-1,1v1.39a2.84,2.84,0,0,0,1.89-.85,1.68,1.68,0,0,1,1-.52v-1Zm64.45.27L72.19,5v8.42l8.4,0Zm-47-.91V11.12H31.35a1.14,1.14,0,0,0-1.13,1.14v1.68a3.11,3.11,0,0,0,2.1-.94,1.46,1.46,0,0,1,1.3-.51Zm0,10.77V16.68a4.92,4.92,0,0,1-.73-.64,5.92,5.92,0,0,1-2.67.7v2.43a4.19,4.19,0,0,0,1.38,3.15,5.2,5.2,0,0,0,2,.94Zm0,10.76V26.08a6.47,6.47,0,0,1-3.37-1.25h-1.2a3.1,3.1,0,0,0-3.1,3.1V34h2V31a1.4,1.4,0,1,1,2.8,0v3Zm0,30.65v-5H23.75a1.4,1.4,0,1,1,0-2.8h9.87V51.92H23.75a1.4,1.4,0,1,1,0-2.8h9.87v-5H23.75a1.4,1.4,0,1,1,0-2.8h9.87V36.82H25.25a2.1,2.1,0,0,1-2.1-2.09v-6.8a5.89,5.89,0,0,1,4.9-5.81,7.26,7.26,0,0,1-.63-2.95V12.26a3.93,3.93,0,0,1,3.93-3.94h2.27V5.47H18.92v59.2ZM85.45,38.33c0,10.42,0,30.49,0,30.49a1.43,1.43,0,0,1-1.4,1.4H35a1.44,1.44,0,0,1-1.4-1.4V67.47H17.52a1.43,1.43,0,0,1-1.39-1.4v-.35H1.4A1.43,1.43,0,0,1,0,64.32v-26a1.4,1.4,0,0,1,2.8,0v24.6H16.13V58.4H7.22a1.4,1.4,0,1,1,0-2.8h8.91V51.18H7.22a1.4,1.4,0,1,1,0-2.8h8.91V43.85H7.22a1.4,1.4,0,1,1,0-2.8h8.91v-4H8.62a2.05,2.05,0,0,1-2-2V28.66A5.61,5.61,0,0,1,11,23.18a6.74,6.74,0,0,1-.53-2.62V14.1a3.77,3.77,0,0,1,3.77-3.77h1.88V7.76H2.8V32.32a1.4,1.4,0,1,1-2.8,0v-26A1.44,1.44,0,0,1,1.4,5H16.13V4.07a1.44,1.44,0,0,1,1.39-1.4h16.1V1.57A1.44,1.44,0,0,1,35,.17H70a1.42,1.42,0,0,1,1.78.41L85,13.8a1.39,1.39,0,0,1,.41,1.78V32.2a1.4,1.4,0,1,1-2.8,0v-16l-11.84,0a1.44,1.44,0,0,1-1.41-1.4L69.4,3h-33V67.42h46.2c0-4.73,0-20.33,0-29.1a1.41,1.41,0,0,1,2.81,0ZM50,9.1a1.35,1.35,0,0,0-1.35,1.35v2a3.5,3.5,0,0,0,2.49-1.06,1.29,1.29,0,0,1,2.32.54c.28.86.93,1.44,2.66,1.42H58V10.45A1.34,1.34,0,0,0,56.65,9.1Zm0-2.8h6.63a4.15,4.15,0,0,1,4.15,4.15v7.12a7.83,7.83,0,0,1-.88,3.61,6.27,6.27,0,0,1,6,6.27v7.37A2.15,2.15,0,0,1,63.77,37H43.4a2.15,2.15,0,0,1-2.15-2.15V27.45a6.27,6.27,0,0,1,5.37-6.21A7.6,7.6,0,0,1,45.87,18v-7.5A4.15,4.15,0,0,1,50,6.3ZM57.44,24A7.7,7.7,0,0,1,53,25.35,7,7,0,0,1,48.87,24H47.52a3.48,3.48,0,0,0-3.47,3.48v6.72H46.5V30.82a1.4,1.4,0,0,1,2.8,0v3.35h8.2V30.82a1.4,1.4,0,0,1,2.8,0v3.35h2.82V27.45A3.47,3.47,0,0,0,59.65,24ZM53.3,22.54a5,5,0,0,0,4.7-5V16.1H56.16a5.55,5.55,0,0,1-4.44-1.7,6.33,6.33,0,0,1-3,.8V18a4.69,4.69,0,0,0,1.55,3.52,4.26,4.26,0,0,0,2.63,1.07h.45Zm-3.08-1.07a5.2,5.2,0,0,0,2.63,1.07,4.26,4.26,0,0,1-2.63-1.07Zm3.12,1.07a6.43,6.43,0,0,0,2.86-1.13,4.92,4.92,0,0,1-2.86,1.13ZM41.77,58.92H67.52a1.4,1.4,0,1,1,0,2.8H41.77a1.4,1.4,0,0,1,0-2.8Zm0-8.37H76.65a1.4,1.4,0,1,1,0,2.8H41.77a1.4,1.4,0,0,1,0-2.8Zm0-8.5H76.65a1.4,1.4,0,1,1,0,2.8H41.77a1.4,1.4,0,0,1,0-2.8Z"/></svg>