<svg id="Слой_1" data-name="Слой 1" xmlns="http://www.w3.org/2000/svg" viewBox="0 0 64.12 92.17"><defs><style>.cls-1{fill:#fd0;}</style></defs><title>situation3</title><path class="cls-1" d="M37.51,62.71l.75,1c1.82,2.66,1.18,5.2-1.3,6l.71,7.9a30.87,30.87,0,0,0,3.51-13.4c-1.19-.44-2.42-.93-3.67-1.47ZM35.24,81.88l-1.07-12H30.08L29,81.77l3.11,7.52,3.11-7.41Zm-8.66-4.3.71-7.9c-2.48-.77-3.12-3.31-1.3-6l.75-1c-1.25.54-2.48,1-3.67,1.47a31,31,0,0,0,3.51,13.4Zm4.8-10.45h3.76c1.48,0,1.86-.29.87-1.77l-3.88-5.17-3.89,5.17c-1,1.47-.61,1.79.87,1.77ZM52.6,64.88l4.7-3.63a14.39,14.39,0,0,0-3.77-3.15l-7-3.66.32,1.09c2.86,2,4.74,5.67,5.77,9.35Zm-32.27.23-.42.13c-2,.61-2.85-2.57-2.83-5.53-2.07,2.62-3.64,7-3.08,13.84,3.56-.53,2.88-.24,5.26,3A1.4,1.4,0,0,1,17,78.22l-1.5-2.06c-.9.13-3.89,1.14-4.13-.84a34.34,34.34,0,0,1-.15-7.24L5.5,63.67a9.2,9.2,0,0,0-.6,2.43V89.37h6.2V81.52a1.4,1.4,0,0,1,2.8,0v7.85H27.2A40.71,40.71,0,0,1,19.75,82,1.4,1.4,0,0,1,22,80.31a35.54,35.54,0,0,0,5.82,6L25.9,81.71c-3.18-4.42-5-9.51-5.57-16.6Zm-8.62-.19c1-4.51,3.19-7.59,5.71-9.39l.32-1.09-7,3.66A14.39,14.39,0,0,0,7,61.25l4.76,3.67Zm9.45-12.24-.5,1.71.19,7.6a71.73,71.73,0,0,0,8.45-3.54l-8.14-5.77Zm25.17,6.08c.06,4.76.31,7.18-2,6.48l-.42-.13c-.56,7.09-2.39,12.18-5.57,16.6l-1.92,4.57a35.9,35.9,0,0,0,5.82-6L45,76.57c2.38-3.26,1.7-3.55,5.26-3,.63-7.72-1.46-12.34-3.92-14.79Zm-3.24-6.08L35,58.45A71.73,71.73,0,0,0,43.4,62l.14-6.69a1.27,1.27,0,0,1,.14-.6l-.59-2Zm-1.3-4.36a25.2,25.2,0,0,1-19.39.08L22,49.84,32.12,57l10.07-7.14-.4-1.56ZM32,0A25.16,25.16,0,0,1,44.38,47.05l1.06,3.67,9.5,5c4.23,2.55,6.78,6,7.2,10.2v6.65a1.4,1.4,0,1,1-2.8,0V66.1a9.2,9.2,0,0,0-.6-2.43l-5.49,4.24c.75,4.8,0,8.92-2,8.62l-2.53-.37-1.5,2.07L44.5,82a39.81,39.81,0,0,1-7.45,7.39h13.3V81.52a1.4,1.4,0,0,1,2.8,0v7.85h6.2V79a1.4,1.4,0,0,1,2.8,0V89.37h2v2.8H0v-2.8H2.1V66c.44-4.38,3-7.79,7.22-10.34l9.49-5,1-3.55A25.15,25.15,0,0,1,32,0Zm0,2.8A22.35,22.35,0,1,0,54.35,25.15,22.35,22.35,0,0,0,32,2.8Zm.4,36.25c-1.57,0-2.42.12-4,.12-2.73,0-4.16-1.87-6.07-1.87H19.91a8.48,8.48,0,0,0-1.32.23c-2.38.38-2.23-3,1.32-3h2.43c2.76,0,4.12,1.88,6.07,1.88,1.55,0,2.39-.1,3.94-.13a1.4,1.4,0,0,1,0,2.8ZM43.85,25.89l-.25-.13c-2.06-1.09.32-2.83.75-3.61,0-1.33-3.43-1.41-4.33-1.48-1.85-.13-4.42-.24-4.42-2.77,0-1.7,1-3.13,1-4.75,0-.73,0-4.1-1.22-4.1-.89,0-1.66,2.11-2,2.78-.81,1.45-2,1.84-3.32,2.56a16,16,0,0,0-6,5.35,2.82,2.82,0,0,1-1.12.56h-4.5a1.4,1.4,0,1,1,0-2.8h3.8a18.42,18.42,0,0,1,6.54-5.59c.71-.37,1.77-.69,2.18-1.44,1-1.89,1.75-4.22,4.48-4.22,3.66,0,4,4.27,4,6.9,0,1.65-.91,3-1,4.55a9.94,9.94,0,0,0,1.82.18c2.69.2,6.92.53,6.92,4.27a2.47,2.47,0,0,1-.92,2.06,2.13,2.13,0,0,1,.55,1.44c0,1.94-1.12,2-1.94,3.22.55.81,1.06,1.19,1.06,2.28a2.15,2.15,0,0,1-1.32,2.19A2.74,2.74,0,0,1,45.15,35c0,3.15-3.14,4.53-5.4,4.53a20.26,20.26,0,0,1-3.45-.39,1.4,1.4,0,0,1,.4-2.77,17.62,17.62,0,0,0,3,.36c1.67,0,2.57-1,2.57-1.77l-.27-.22-.5-.35c-1.74-1.27.45-2.7,1.42-3.29A3.06,3.06,0,0,1,42,29c0-1.53.85-2.08,1.76-3l.11-.12Z"/></svg>