<svg id="Слой_1" data-name="Слой 1" xmlns="http://www.w3.org/2000/svg" viewBox="0 0 81.42 82.05"><defs><style>.cls-1{fill:#fd0;}</style></defs><title>situation2</title><path class="cls-1" d="M47,2.8H15.42v16H26.27a1.44,1.44,0,0,1,1.41,1.4v.37c.33-.34,1.47-1.77,2.34-1.77h2.73V10.4A2.42,2.42,0,0,1,35.15,8H47V2.8Zm-11.45,8v16H50c.87,0,2,1.43,2.34,1.77v-.37a1.44,1.44,0,0,1,1.41-1.4H67.13V10.8H35.55Zm-2.8,10.75H30.6c-.77.77-5.72,6.68-5.72,2.35V21.55H15a2.4,2.4,0,0,1-2.4-2.4V2.4A2.4,2.4,0,0,1,15,0H47.4a2.4,2.4,0,0,1,2.4,2.4V8H67.52a2.39,2.39,0,0,1,2.4,2.4V27.15a2.39,2.39,0,0,1-2.4,2.4H55.17V31.9c0,4.33-5-1.58-5.73-2.35H35.15a2.39,2.39,0,0,1-2.4-2.4v-5.6Zm6.15-6.92h25a1.4,1.4,0,1,1,0,2.79h-25a1.4,1.4,0,1,1,0-2.79Zm0,5.62h25a1.4,1.4,0,1,1,0,2.8h-25a1.4,1.4,0,1,1,0-2.8Zm32.79,45.3H68.88L68.7,66a22.56,22.56,0,0,1-3.64,5.8,15.32,15.32,0,0,0,2.64,1.61l4-7.89Zm-20-15.86a64.37,64.37,0,0,0,6.87.44c2.41,0,5.3-1.72,5.68-5.66,0-.23,0-.47,0-.72a1.4,1.4,0,1,1,2.8,0c0,.46-.06.86-.09,1.24-.28,3-.66,4.74,3.47,4.84h4.7v-5a8.23,8.23,0,0,0-8.23-8.22H59.78a8.23,8.23,0,0,0-8.23,8.23c0,1.43.19,3.29.11,4.78Zm23.27,3V55.3a2.46,2.46,0,0,0,1.28.7,1.66,1.66,0,0,0,1.66-1.66c0-1.11-.76-1.38-1.48-1.67Zm-20.88.06v3.05a9.09,9.09,0,0,0,18-.29,3.86,3.86,0,0,1,.07-.41V52.67H70.38c-3.35-.08-5-1-5.7-2.47a8,8,0,0,1-6.16,2.73c-1.44,0-2.93-.08-4.47-.2Zm-2.8,2.38V52.46L50,52.3a1.67,1.67,0,0,0,.12,3.33,2.43,2.43,0,0,0,1.16-.52Zm3.11,10.44,4,7.89A15.32,15.32,0,0,0,61,71.83,22.56,22.56,0,0,1,57.35,66l-.18-.48Zm6.06.46A20.6,20.6,0,0,0,63,69.9,20.68,20.68,0,0,0,65.63,66a11.85,11.85,0,0,1-5.21,0Zm3.33,16H62.4C58.18,82,46,82,45,81.51a3.24,3.24,0,0,1-.41-1V70.59c.47-5.24,5-7.78,9.26-7.84h.66a11.81,11.81,0,0,1-2.83-4.63,4.47,4.47,0,1,1-3-8.4l0-4.83a11,11,0,0,1,11-11H66.9a11,11,0,0,1,11,11v5.32a4.46,4.46,0,1,1-3.68,8.13,11.71,11.71,0,0,1-2.75,4.4h.66c4.22.06,8.79,2.6,9.26,7.84v9.94a3.24,3.24,0,0,1-.41,1c-.92.45-13.14.52-17.26.54Zm-16.33-2.6c2.15-.16,11.55-.19,15-.2h1.25c3.42,0,12.83,0,15,.2V70.72a5.51,5.51,0,0,0-4-4.77l-5,9.83c-1,2-4.68-.51-6.53-1.9A16.74,16.74,0,0,1,58,76.52a1.71,1.71,0,0,1-1.55-.74l-5-9.83a5.54,5.54,0,0,0-4,4.77v8.73ZM27.06,65.55H24.25l-.17.48a22.56,22.56,0,0,1-3.64,5.8,15.29,15.29,0,0,0,2.63,1.61l4-7.89ZM7,49.69a64.7,64.7,0,0,0,6.87.44,5.8,5.8,0,0,0,5.68-5.66c0-.23,0-.47.05-.72a1.4,1.4,0,1,1,2.8,0c0,.46-.06.86-.1,1.24-.27,3-.66,4.74,3.48,4.84H30.5v-5a8.22,8.22,0,0,0-8.22-8.22H15.15a8.24,8.24,0,0,0-8.23,8.23c0,1.43.19,3.29.11,4.78Zm23.27,3V55.3a2.52,2.52,0,0,0,1.29.7,1.66,1.66,0,0,0,1.66-1.66c0-1.11-.77-1.38-1.49-1.67Zm-20.88.06v3.05a9.09,9.09,0,0,0,18-.29c0-.15.05-.29.07-.41V52.67H25.76c-3.36-.08-5-1-5.7-2.47a8,8,0,0,1-6.16,2.73c-1.45,0-2.94-.08-4.48-.2Zm-2.8,2.38V52.46L5.34,52.3a1.67,1.67,0,0,0,.12,3.33,2.39,2.39,0,0,0,1.16-.52ZM9.74,65.55l4,7.89a15.29,15.29,0,0,0,2.63-1.61A22.56,22.56,0,0,1,12.72,66l-.17-.48Zm6,.46A20.68,20.68,0,0,0,18.4,69.9,21.17,21.17,0,0,0,21,66a11.89,11.89,0,0,1-5.22,0ZM14,33.93a10.38,10.38,0,0,1,1.12,0H22.5a4.35,4.35,0,0,0-8.47,0Zm5.09,48.12H17.77C13.55,82,1.34,82,.41,81.51a3.51,3.51,0,0,1-.41-1V70.59c.47-5.24,5.05-7.78,9.27-7.84h.65a11.93,11.93,0,0,1-2.83-4.63,4.38,4.38,0,0,1-1.63.31,4.47,4.47,0,0,1-1.39-8.71l.06-4.83a11,11,0,0,1,7-10.26,7.15,7.15,0,0,1,14.27-.31A11,11,0,0,1,33.3,44.9v5.32a4.46,4.46,0,1,1-3.67,8.13,12,12,0,0,1-2.75,4.4h.65c4.22.06,8.79,2.6,9.27,7.84v9.94a3.51,3.51,0,0,1-.41,1c-.93.45-13.14.52-17.27.54ZM2.8,79.45c2.15-.16,11.55-.19,15-.2H19c3.41,0,12.82,0,15,.2V70.72A5.52,5.52,0,0,0,30,66l-5,9.83c-1,2-4.68-.51-6.53-1.9a16.71,16.71,0,0,1-5.16,2.64,1.69,1.69,0,0,1-1.55-.74L6.8,66a5.53,5.53,0,0,0-4,4.77v8.73Z"/></svg>