<svg id="Слой_1" data-name="Слой 1" xmlns="http://www.w3.org/2000/svg" viewBox="0 0 74.69 69.17"><defs><style>.cls-1{fill:#ffdc00;}</style></defs><title>situation9</title><path class="cls-1" d="M14.19,17.16a4.72,4.72,0,0,0,3.29-1.32,4.28,4.28,0,0,0,.4-.45,4.45,4.45,0,0,0,.79-1.45,4,4,0,0,1-1.1.15H10.19a4,4,0,0,1-1.1-.15,4.71,4.71,0,0,0,4.48,3.22Zm-5.35-7,.07.18a1.36,1.36,0,0,0,1.28.92h7.38a1.43,1.43,0,0,0,1.34-.92V4.19a1.35,1.35,0,0,0-1.35-1.35H10.19A1.35,1.35,0,0,0,8.84,4.19v6Zm52-.09a7,7,0,0,1-6.73-1.64,5.87,5.87,0,0,1-3.34.62v3.23A4.72,4.72,0,0,0,55.44,17h.63a4.72,4.72,0,0,0,4.72-4.73V10.1ZM50.72,6.25c2.35.25,3.25-1.77,4.47-.55,2,2,3.74,2.32,5.6,1.4v-3a1.35,1.35,0,0,0-1.35-1.35H52.07a1.35,1.35,0,0,0-1.35,1.35V6.25ZM23,66.29H66V50.09H47.19a1.4,1.4,0,0,1,0-2.8H72V41.84H23v5.45H42.38a1.4,1.4,0,1,1,0,2.8H23v16.2ZM7.22,41.84V66.29h5.32V46.19a1.4,1.4,0,1,1,2.8,0v20.1h4.83V41.84ZM45.92,39V28.38l-8,7.81-.24.22c-2.11,1.66-4.45,2-6.36,0L23,28.07V39ZM8.72,24.94V39H20.17V24.69c0-1.56,1.28-2.1,2.39-1L33.31,34.45c.59.6,1.23.83,2.52-.15a1.84,1.84,0,0,0,.28-2.46L22.24,18H19.3a7.49,7.49,0,0,1-5.11,2h-.62a7.5,7.5,0,0,1-5.24-2.12H6.24C4.09,18,3.09,19,3,21.35v5.73a1.4,1.4,0,1,1-2.8,0v-5.8c.17-3.72,2.29-6,6-6.24h.37A7.49,7.49,0,0,1,6,12.44V4.19A4.15,4.15,0,0,1,10.19,0h7.38a4.15,4.15,0,0,1,4.15,4.15v8.25a7.43,7.43,0,0,1-.51,2.72h1.61a3.57,3.57,0,0,1,1,.41l10.7,10.71,3.15-3.08a1.4,1.4,0,0,1,2,2l-3.13,3.06L38.18,30l.16.18A5.48,5.48,0,0,1,39,31.26l7.38-7.2c1.11-1.08,2.38-.55,2.38,1V39H60V24.94a1.4,1.4,0,1,1,2.8,0V39h3.58V21.91c.11-2.52-.87-3.69-3.3-3.95H61a7.5,7.5,0,0,1-5,1.88h-.63a7.47,7.47,0,0,1-5.34-2.23l-2.92.19-3.9,3.82a1.4,1.4,0,0,1-2-2l4.27-4.18a4.18,4.18,0,0,1,.89-.4l1.9-.12a7.5,7.5,0,0,1-.46-2.61V4.06A4.15,4.15,0,0,1,52.07-.09h7.37a4.15,4.15,0,0,1,4.15,4.15v8.25A7.55,7.55,0,0,1,63,15.17h.23c4,.38,6.11,2.8,6,6.77V39h4.22a1.43,1.43,0,0,1,1.4,1.4v8.25a1.44,1.44,0,0,1-1.4,1.4h-4.6v17.6a1.44,1.44,0,0,1-1.4,1.4H5.82a1.44,1.44,0,0,1-1.4-1.4v-26C1.62,41.06,0,39.16.17,35.94V31.82a1.4,1.4,0,1,1,2.8,0V36c-.12,1.88.55,2.92,2.95,3V24.94a1.4,1.4,0,1,1,2.8,0Zm8.76-9.1a1.23,1.23,0,0,1,.4-.45,4.28,4.28,0,0,1-.4.45Z" transform="translate(-0.16 0.09)"/></svg>