<svg id="Слой_1" data-name="Слой 1" xmlns="http://www.w3.org/2000/svg" viewBox="0 0 79.54 78.63"><defs><style>.cls-1{fill:#fd0;}</style></defs><title>sphera6</title><path class="cls-1" d="M8.52,17.75H38.77V15.63H8.52v2.12Zm11-5.12v-9a13.19,13.19,0,0,0-8.68,9ZM27.77,3.7v8.93h8.5a13.26,13.26,0,0,0-8.5-8.93Zm-3,8.93V3.06C24.36,3,24,3,23.52,3s-.67,0-1,0v9.59Zm-11.5,8.64v-.52h-2.5v1.09a7.05,7.05,0,0,1,2.5-.57Zm0,7.73V24.27c-1.68.13-2.14.85-2.27,1.8a1.48,1.48,0,0,1-.24.67c0,1.28.4,2.15,2.51,2.26ZM34,24.27V29c2.11-.11,2.51-1,2.5-2.12a3.73,3.73,0,0,1-.23-.81c-.13-.95-.59-1.67-2.27-1.8Zm0-3.52v.52a7,7,0,0,1,2.5.57V20.75Zm-17.75,0v9.92c.15,1.14,1.1,2.25,5,2.21H26c3.9,0,4.85-1.07,5-2.21V20.75ZM40.45,49.33c-3.1-5.8-6.49-8.57-10.05-9l-.85.24-2.15,2.7-1.71,2.15,1.71,2.14V43.23l2.15-2.7.77-.25.08,25.38a5.12,5.12,0,0,1,3.91,3.47l.09.5c0,2.71-1.75,4.09-4.25,4.23v1.77h6V66c-3.18-3.3-3.08-7.87-.88-7.87H38l-4-9.82a1.5,1.5,0,1,1,2.78-1.12l4,9.85V49.76a1.46,1.46,0,0,1-.32-.43ZM23.77,43l3.63-4.56-1-2.53H21l-1,2.39L23.77,43ZM20,47.68l1.84-2.3L20,43.07v4.61ZM27.4,66c-3.47-.76-5.63.68-5.27,4.92h7.53c1.37,0,1.68-.35,1.73-1-.4-.9-1.13-1.39-2.61-1.38a1.49,1.49,0,0,1-1.38-2.13V66ZM20,65.59l.2,0c1.38-2.25,4-3.24,7.18-2.73V52.34l-3.63-4.56-3.7,4.65L20,65.59Zm-.8,2.89-5.8-1.4L13.08,67A8.33,8.33,0,0,1,8.15,59.1V54.63a1.5,1.5,0,1,1,3,0v4.51a5.29,5.29,0,0,0,3.16,5.07l2.71.66V40.13C11.74,41.31,7.64,44.9,4.77,51.24,1.21,59.18,3.05,65.89,10,70.88h9.13a11.65,11.65,0,0,1,.09-2.4Zm34.55-2.23a.5.5,0,0,0-.5.5v1.88a2.63,2.63,0,0,0,2.63,2.62h1.62a2.75,2.75,0,0,0,2.75-2.75V66.75a.5.5,0,0,0-.5-.5Zm9.45-.12h7.17c3.2-.59,5-2,5.66-5H37c.65,2.95,2.46,4.41,5.66,5h7.67a3.49,3.49,0,0,1,3.44-2.88h6a3.51,3.51,0,0,1,3.45,2.88Zm-7.07-8V40.75H43.77V58.13Zm13.12,0V45.88H59.15V58.13ZM66.52,42.88V25.63H48.77V37.75h8.88a1.54,1.54,0,0,1,1.5,1.5v3.63ZM17,75.63V73.88H11v1.75Zm10.13,0V73.88H20v1.75Zm12-7.49v7.49h4.12v-6.5h-.75l-.25,0a12,12,0,0,1-3.12-1ZM61.27,22.63V19.5a1.5,1.5,0,1,1,3,0v3.13H68a1.54,1.54,0,0,1,1.5,1.5V42.88h1.25a1.54,1.54,0,0,1,1.5,1.5V58l4.36-10.78a1.5,1.5,0,0,1,2.79,1.12l-4,9.82h2.32c3.18,0,2,9.42-7,11l-.26,0H63.24a5.75,5.75,0,0,1-5.72,5.12H55.9a5.62,5.62,0,0,1-5.6-5.12h-4v8a1.54,1.54,0,0,1-1.5,1.5H9.52A1.55,1.55,0,0,1,8,77.13V73.25C.12,67.35-2.08,59.18,2,50c3.33-7.33,8.39-11.78,15.23-13l.63-1.47C15.73,35.06,14.1,34,13.5,32c-3.33-.11-5.74-1.64-5.73-5.14V20.74a2.51,2.51,0,0,1-2.25-2.49V15.13a2.5,2.5,0,0,1,2.22-2.49,16.22,16.22,0,0,1,31.63,0,2.49,2.49,0,0,1,2.4,2.5v3.12a2.5,2.5,0,0,1-2.25,2.49v6.13c0,3.51-2.4,5-5.75,5.14a5.39,5.39,0,0,1-4.25,3.51l.7,1.73c4.13.36,7.6,2.8,10.55,6.9v-4.9a1.54,1.54,0,0,1,1.5-1.5h3.5V24.13a1.54,1.54,0,0,1,1.5-1.5H51V19.5a1.5,1.5,0,0,1,3,0v3.13h2.25V16.38a1.5,1.5,0,0,1,3,0v6.25ZM46,55V44.38a1.5,1.5,0,0,1,3,0V55a1.5,1.5,0,0,1-3,0Zm5.13,0V44.38a1.5,1.5,0,0,1,3,0V55a1.5,1.5,0,0,1-3,0Zm11.37-7H66a1.5,1.5,0,0,1,0,3h-3.5a1.5,1.5,0,0,1,0-3Zm0,5.25H66a1.5,1.5,0,0,1,0,3h-3.5a1.5,1.5,0,0,1,0-3Zm-.25-25.5h1.25a1.5,1.5,0,0,1,0,3H62.27a1.5,1.5,0,0,1,0-3Zm0,5.13h1.25a1.5,1.5,0,0,1,0,3H62.27a1.5,1.5,0,0,1,0-3Zm0,5.25h1.25a1.5,1.5,0,0,1,0,3H62.27a1.5,1.5,0,0,1,0-3ZM57,27.75h1.25a1.5,1.5,0,0,1,0,3H57a1.5,1.5,0,0,1,0-3Zm0,5.13h1.25a1.5,1.5,0,0,1,0,3H57a1.5,1.5,0,0,1,0-3Zm-5.25-5.13H53a1.5,1.5,0,0,1,0,3H51.77a1.5,1.5,0,0,1,0-3Zm0,5.13H53a1.5,1.5,0,0,1,0,3H51.77a1.5,1.5,0,0,1,0-3Z"/></svg>