<svg id="Слой_1" data-name="Слой 1" xmlns="http://www.w3.org/2000/svg" viewBox="0 0 71.25 72.96"><defs><style>.cls-1{fill:#fd0;}</style></defs><title>sphera11</title><path class="cls-1" d="M.46,72.58A1.54,1.54,0,0,1,0,71.46a1.44,1.44,0,0,0,.46,1.12ZM24.25,51.09H44a1.54,1.54,0,0,1,1.5,1.5V71.46A1.54,1.54,0,0,1,44,73H1.5a1.5,1.5,0,0,1-1-.38A1.44,1.44,0,0,1,0,71.46V33.71a1.54,1.54,0,0,1,1.5-1.5H22.75a1.54,1.54,0,0,1,1.5,1.5V51.09ZM17.37,35.21v5.5a1.54,1.54,0,0,1-1.5,1.5H8.5A1.54,1.54,0,0,1,7,40.71v-5.5H3V51.09H21.25V35.21Zm-7.37,0v4h4.37v-4Zm7.37,18.88v5.62a1.54,1.54,0,0,1-1.5,1.5H8.5A1.54,1.54,0,0,1,7,59.71V54.09H3V70H21.25V54.09Zm-7.37,0v4.12h4.37V54.09Zm28.75,0v5.62a1.54,1.54,0,0,1-1.5,1.5H29.87a1.54,1.54,0,0,1-1.5-1.5V54.09H24.25V70H42.5V54.09Zm-7.38,0v4.12h4.38V54.09Zm7.5,11.25H40a1.5,1.5,0,0,1,0,3H38.87a1.5,1.5,0,0,1,0-3Zm-21.24-19h1.12a1.5,1.5,0,0,1,0,3H17.63a1.5,1.5,0,1,1,0-3Zm0,19h1.12a1.5,1.5,0,0,1,0,3H17.63a1.5,1.5,0,1,1,0-3ZM3,11.26v2L35.26,5.13H36l32.26,8.16v-2L35.63,3,3,11.26ZM55.75,25.84H16v1.62H55.75V25.84Zm0,18.87H27.5a1.5,1.5,0,0,1,0-3H55.75V40.09H27.5a1.5,1.5,0,0,1,0-3H55.75V35.21H27.5a1.5,1.5,0,0,1,0-3H55.75V30.46H14.5A1.54,1.54,0,0,1,13,29V24.34a1.54,1.54,0,0,1,1.5-1.5H57.25a1.54,1.54,0,0,1,1.5,1.5V70h6.37V15.59L35.63,8.14,6.5,15.5V28.71a1.5,1.5,0,0,1-3,0V16.26l-1.63.41A1.42,1.42,0,0,1,0,15.21V10.09A1.82,1.82,0,0,1,1.13,8.63L35.26,0H36L70.12,8.63a1.84,1.84,0,0,1,1.13,1.46v5.12a1.42,1.42,0,0,1-1.87,1.46l-1.26-.32V70h1.26a1.5,1.5,0,0,1,0,3H48.12a1.5,1.5,0,0,1,0-3h7.63V44.71ZM32.87,11.84h5.25a3.24,3.24,0,0,1,3.25,3.25V17a3.24,3.24,0,0,1-3.25,3.25H32.87A3.24,3.24,0,0,1,29.63,17V15.09a3.24,3.24,0,0,1,3.24-3.25Zm0,3a.25.25,0,0,0-.24.25V17a.25.25,0,0,0,.24.25h5.25a.25.25,0,0,0,.25-.25V15.09a.25.25,0,0,0-.25-.25Z"/></svg>