<svg id="Слой_1" data-name="Слой 1" xmlns="http://www.w3.org/2000/svg" viewBox="0 0 71 77.87"><defs><style>.cls-1{fill:#fd0;fill-rule:evenodd;}</style></defs><title>sphera3</title><path class="cls-1" d="M7.13,61.88v8.25h7.62V65.87H11.87a2.62,2.62,0,0,1-2.62-2.62V61.88h3v1H26.87v-1h3v1.37a2.62,2.62,0,0,1-2.62,2.62h-2.5v4.26H46.62V65.87H43.75a2.62,2.62,0,0,1-2.63-2.62V61.88h3v1H58.75v-1h3v1.37a2.62,2.62,0,0,1-2.63,2.62H56.63v4.26h7.5V61.88h3v8.25H69.5a1.5,1.5,0,0,1,0,3H58.62v2.12A2.62,2.62,0,0,1,56,77.87H46.88a2.62,2.62,0,0,1-2.63-2.62V73.13H26.75v2.12a2.62,2.62,0,0,1-2.63,2.62H15a2.62,2.62,0,0,1-2.62-2.62V73.13H1.5a1.5,1.5,0,0,1,0-3H4.13V61.88Zm46.5,8.25V65.87h-4v4.26Zm-6.38,4.74h8.37V73.13H47.25v1.74Zm-25.5-4.74V65.87h-4v4.26Zm-6.37,4.74h8.37V73.13H15.38v1.74Z"/><path class="cls-1" d="M7.13,45.88v.75H20.75v-.75h3v.75h7v-.75h3v.75h12v-.75h3v.75h8.63v-.75h3v.75h3.75v-.75h3v.76a2.61,2.61,0,0,1,2.37,2.61v3.12A2.63,2.63,0,0,1,67.13,55v6.89h-3V55H38.91a1.5,1.5,0,0,1,0-3H66.5V49.63H4.75V52H31.92a1.5,1.5,0,0,1,0,3H7.13v6.88h-3V55a2.63,2.63,0,0,1-2.38-2.62V49.25a2.61,2.61,0,0,1,2.38-2.61v-.76Zm2.12,16V59.75a2.62,2.62,0,0,1,2.62-2.62H27.25a2.62,2.62,0,0,1,2.62,2.62v2.13h-3V60.13H12.25v1.75Zm31.87,0V59.75a2.62,2.62,0,0,1,2.63-2.62H59.12a2.62,2.62,0,0,1,2.63,2.62v2.13h-3V60.13H44.12v1.75Z"/><path class="cls-1" d="M7.13,29.87v16h-3v-16Zm13.12,0a2.28,2.28,0,0,1-3,0Zm11,0a2.1,2.1,0,0,1-2.56,0Zm10.85,0a2.1,2.1,0,0,1-2.56,0Zm11.41,0a2.29,2.29,0,0,1-3,0Zm13.64,0v16h-3v-16Zm-46.38,16v-.09c-1.77-1.3-3-2.95-2.75-5V38.5A1.54,1.54,0,0,1,19.5,37H25a1.54,1.54,0,0,1,1.5,1.5v2.29c.21,2.05-1,3.7-2.75,5v.09Zm10,0v-.09c-1.77-1.3-3-2.95-2.75-5V38.5A1.54,1.54,0,0,1,29.5,37H35a1.54,1.54,0,0,1,1.5,1.5v2.29c.21,2.05-1,3.7-2.75,5v.09Zm15,0V35a1.54,1.54,0,0,1,1.5-1.5H58.88a1.54,1.54,0,0,1,1.5,1.5V45.88h-3V36.5H48.75v9.38Zm5.37-7.76h3.63a1.5,1.5,0,0,1,0,3H51.12a1.5,1.5,0,0,1,0-3Zm0,4.38h3.63a1.5,1.5,0,0,1,0,3H51.12a1.5,1.5,0,0,1,0-3ZM33.5,40.88V40H31v1.06c-.11.87.55,1.47,1.26,2,.71-.57,1.37-1.17,1.26-2v-.18Zm-10,0V40H21v1.06c-.11.87.55,1.47,1.26,2,.71-.57,1.37-1.17,1.26-2v-.18Z"/><path class="cls-1" d="M4.13,29.87v-.49H1.88C-2,29.38.09,15,11.47,6.74a2.94,2.94,0,0,1-.1-.74V3a3,3,0,0,1,3-3H56.5a3,3,0,0,1,3,3V6a3.18,3.18,0,0,1-.11.82c11.29,8.28,13.38,22.56,9.48,22.56H67.13v.49h-3v-.49h-1.5c-1.86,0-3.31-1.68-4.92-2.6-2.09,1.49-3.32,2.52-4.22,3.09h-3c-.9-.54-2.13-1.49-4.14-2.83-2.13,1.38-3.38,2.33-4.28,2.84H39.52c-.87-.53-2.05-1.57-4.15-3.13-2.09,1.56-3.27,2.6-4.14,3.14H28.67c-.9-.5-2.15-1.45-4.28-2.83-2,1.34-3.24,2.29-4.14,2.84h-3c-.9-.57-2.13-1.6-4.22-3.09-1.61.92-3.06,2.6-4.92,2.6h-1v.49Zm9.48-21C7,13.5,3.64,19.3,3.38,26.38H7.72c6.74-3.88,4.51-3.86,11.06.8,6.68-4.46,4.44-4.46,11.16-.13,6.47-4.82,4.4-4.82,10.87,0,6.72-4.33,4.48-4.33,11.16.13,6.55-4.66,4.32-4.68,11.06-.8h4.34c-.26-7.07-3.59-12.86-10.2-17.46A2.93,2.93,0,0,1,56.5,9H37.81a1.5,1.5,0,0,1,0-3H56.5V3H14.37V6H32.79a1.5,1.5,0,0,1,0,3H14.37a2.73,2.73,0,0,1-.76-.1ZM53,16.25a1.88,1.88,0,1,1,1.87,1.88A1.87,1.87,0,0,1,53,16.25ZM43.13,14.5A1.88,1.88,0,1,1,45,16.37a1.87,1.87,0,0,1-1.87-1.87Zm-29,1.75A1.88,1.88,0,1,1,16,18.13a1.87,1.87,0,0,1-1.88-1.88ZM24,14.5a1.88,1.88,0,1,1,1.88,1.87A1.88,1.88,0,0,1,24,14.5Zm9.5,3.13a1.88,1.88,0,1,1,1.87,1.87,1.88,1.88,0,0,1-1.87-1.87Z"/></svg>