<svg id="Слой_1" data-name="Слой 1" xmlns="http://www.w3.org/2000/svg" viewBox="0 0 79.54 79.5"><defs><style>.cls-1{fill:#fd0;}</style></defs><title>sphera10</title><path class="cls-1" d="M46.75,48.75l6.88,6.88,1.87-1.88-6.87-6.88-1.88,1.88ZM59.62,35.87l6.88,6.88,1.88-1.87L61.5,34l-1.88,1.87ZM62.38,48.5l-1,1L75,63.13l1-1L62.38,48.5ZM56.66,50l1.53-1.53a14.05,14.05,0,0,1,3.17-3.17l1.54-1.55a57.65,57.65,0,0,1-4.43-4.07L52.22,45.9c1.41,1.2,3.09,2.66,4.44,4.07ZM10.13,15.12v-8c0-2.82-1.16-4-3.52-4.14C4,3.12,3.13,4.12,3,5.92v9.2ZM22.47,76.5H63.33c1.55-.11,2.66-1,2.8-4.31v-.44H23.38v1.4a6.82,6.82,0,0,1-.9,3.35ZM61.38,30.41V10.57c.36-5.14-1.48-7.3-5.31-7.57H12.13a8.37,8.37,0,0,1,1,4.12V72.38c0,2.57,1.09,3.94,4.1,4.11a1.53,1.53,0,0,1,.9-.47c1.4-.24,2.16-1,2.25-2.89V70.25a1.54,1.54,0,0,1,1.5-1.5H61.13v-15a1.93,1.93,0,0,1,0-.24l-1.89-1.89-.72.72c.59,1,.75,1.88.16,2.47-2,2-4.46,5.67-6.13,4-2-2-11.34-8.78-9-11.12,2-2,4.46-5.67,6.13-4l.25.25,6.65-6.65c-.59-1-.74-1.89-.15-2.48,1.55-1.55,3.4-4.14,4.94-4.4ZM7,0H56.18c5.93.39,8.63,4.36,8.2,10.68V32.37c3.31,2.86,9.08,7.67,7.18,9.57s-4.45,5.66-6.12,4l-.26-.25-.68.68L79.19,61.06c1.76,1.77-3.48,7-5.25,5.25L64.13,56.5V68.75h3.5a1.54,1.54,0,0,1,1.5,1.5v2c-.16,4-1.9,7-5.7,7.22H18.15c-5,.09-8-2.28-8-7.13V18.12H1.5A1.54,1.54,0,0,1,0,16.62V5.83C.24,2.1,2.74.15,6.57,0H7ZM26.88,42.75a12,12,0,1,1-12,12,12,12,0,0,1,12-12Zm0,3a9,9,0,1,0,9,9,9,9,0,0,0-9-9Zm0,2.5a6.5,6.5,0,1,1-6.5,6.5,6.5,6.5,0,0,1,6.5-6.5Zm0,3a3.5,3.5,0,1,0,3.5,3.5,3.5,3.5,0,0,0-3.5-3.5Zm15,12.13c1.54,0,3-.8,4.24-2.81.9-1.41,2.37-1.15,2.73.48.48,2.18,1.26,2.55,3.25,2.45h3.16a1.5,1.5,0,0,1,0,3h-3c-2.35.11-4.14-.46-5.27-2.21a7.27,7.27,0,0,1-5,2.09,1.5,1.5,0,1,1,0-3ZM17.75,7.62H57.63a1.5,1.5,0,1,1,0,3H17.75a1.5,1.5,0,0,1,0-3Zm0,5H57.63a1.5,1.5,0,0,1,0,3H17.75a1.5,1.5,0,0,1,0-3Zm0,5.13H57.63a1.5,1.5,0,0,1,0,3H17.75a1.5,1.5,0,0,1,0-3Zm0,5.13H57.63a1.5,1.5,0,0,1,0,3H17.75a1.5,1.5,0,0,1,0-3Zm0,5.37H57.63a1.5,1.5,0,0,1,0,3H17.75a1.5,1.5,0,0,1,0-3Zm0,5h34a1.5,1.5,0,0,1,0,3h-34a1.5,1.5,0,0,1,0-3Zm0,5H49.88a1.5,1.5,0,0,1,0,3H17.75a1.5,1.5,0,0,1,0-3Z"/></svg>