<svg id="Слой_1" data-name="Слой 1" xmlns="http://www.w3.org/2000/svg" viewBox="0 0 56.57 84.92"><defs><style>.cls-1{fill:#fd0;}</style></defs><title>sphera2</title><path class="cls-1" d="M20.14,60.24a8.06,8.06,0,0,1-1.57,1.53,42.56,42.56,0,0,1,1.74,5.9,24.51,24.51,0,0,1,3.6-3.4l-3.77-4Zm16.33-4,3.22,3.21H45.5l.2,0c6.45.86,10,5.41,10.86,12.78v11a1.5,1.5,0,0,1-3,0V72.56c-.76-6.34-3.55-9.41-8.17-10.07H40.08c-2.38,9.89-1.49,11.71-6.59,7l1.84,13.72a1.5,1.5,0,1,1-3,.4L30.19,67.48a7.36,7.36,0,0,1-3.7,0l-2.29,16a1.5,1.5,0,0,1-3-.42l2-13.84c-2.33,2.33-5.22,4.88-5.47,1.65a31.34,31.34,0,0,0-2.1-8.36H11.21C6.54,63.46,3.9,66,3,70.36V83.07a1.5,1.5,0,0,1-3,0V70.21l0-.29c1.13-5.72,4.82-9.23,10.74-10.4l.29,0h5.11a9.74,9.74,0,0,0,4.09-5.73A18.92,18.92,0,0,1,9.4,37.24c-3.22-1-4.79-3.49-4.7-7.07V13.85c.4-3.12,2.41-4.89,5.43-5.38C12.22,3,15.47-.22,20.15,0H39.07l.24,0C47.23,1.31,51.5,6.09,51.7,14V31.77a1.5,1.5,0,0,1-3,0V14.07C48.53,7.67,45.41,4.09,39,3H20.07c-6.27-.33-6.2,8.18-8.73,8.35s-3.4,1.12-3.64,2.78V30.23c0,1.95.51,3.13,1.69,3.78V23.43a1.56,1.56,0,0,1,1.45-1.5c7.71-.26,4.85-9.45,8.52-7.07,7.66,5,14.42,7.57,20.32,7.94a1.5,1.5,0,1,1-.19,3c-6.11-.38-12.8-2.87-20-7.32-1.16,3.44-3.28,5.75-7.06,6.33V37a15.93,15.93,0,0,0,31.85,0V25.34a1.5,1.5,0,1,1,3,0V37a19,19,0,0,1-24.19,17.8,18.07,18.07,0,0,1-1.23,2.84l4.78,5.1A3.1,3.1,0,0,1,27,64l-.06.46a4.74,4.74,0,0,0,2.85-.07l-.19-1.45a1.5,1.5,0,0,1,3-.4l.31,2.27,2.92,2.73c.31-1.31.59-4.37,1.38-6.32L34.35,58.4a1.5,1.5,0,1,1,2.12-2.12Z"/></svg>