<svg id="Слой_1" data-name="Слой 1" xmlns="http://www.w3.org/2000/svg" viewBox="0 0 82.67 82.02"><defs><style>.cls-1{fill:#fd0;}</style></defs><title>sphera8</title><path class="cls-1" d="M29.9,79V74H17.23v5Zm46.85,0V71.86l0-.18a2,2,0,0,0,0-1,1.47,1.47,0,0,0-.42,0H44.15V79ZM44.15,55.51H54.76l2.06-26.85a3.24,3.24,0,0,1,2.32-2.2H65.5A3.6,3.6,0,0,1,68,28.83l3,38.78h5.29c2.75-.09,3.72,2,3.46,4.34V79h1.42a1.5,1.5,0,0,1,0,3H1.5a1.5,1.5,0,0,1,0-3H3.28V37.57a1.39,1.39,0,0,1,2-1.41l5.31,2V31a1.5,1.5,0,1,1,3,0v8.29l22.55,8.6a1.5,1.5,0,0,1-1.07,2.81l-28.82-11V79h8v-6.5a1.54,1.54,0,0,1,1.5-1.5H31.4a1.54,1.54,0,0,1,1.5,1.5V79h8.25V53.16L39,52.38a1.5,1.5,0,1,1,1.05-2.81c.54.2,4.06.88,4.06,2.55v3.39Zm10,8.7h-10v3.4h9.69l.26-3.4Zm-10-3H54.33l.2-2.7H44.15v2.7ZM66.61,49.85H58.2l-.57,7.46H60a1.5,1.5,0,1,1,0,3H57.4l-.56,7.3H68l-.57-7.3H65a1.5,1.5,0,0,1,0-3h2.15l-.58-7.46Zm-.82-10.46H59l-.57,7.46h7.94l-.58-7.46Zm-6.56-3h6.33L65,29.61l-5.27-.15-.53,6.93ZM72.9,73.17v2a1.5,1.5,0,1,1-3,0v-2a1.5,1.5,0,1,1,3,0Zm-22.39,0v2a1.5,1.5,0,0,1-3,0v-2a1.5,1.5,0,0,1,3,0Zm7.38,0v2a1.5,1.5,0,0,1-3,0v-2a1.5,1.5,0,0,1,3,0Zm7.67,0v2a1.5,1.5,0,0,1-3,0v-2a1.5,1.5,0,0,1,3,0ZM18,62.36V50.45l-5.33-1.93V53.4a1.5,1.5,0,0,1-3,0v-7a1.4,1.4,0,0,1,2-1.41l24.82,9a2,2,0,0,1,1,1.41v8.49a1.54,1.54,0,0,1-1.5,1.5H11.14a1.54,1.54,0,0,1-1.5-1.5v-6.2a1.5,1.5,0,0,1,3,0v4.7Zm11.16-7.87v7.87h5.33V56.42l-5.33-1.93Zm-3,7.87v-9L21,51.54V62.36ZM57.64,22.88V20.7c0-.92-.26-1.1-1.17-1.05-2.83.22-4.56-1.34-4.21-4.22v-3a1.5,1.5,0,1,1,3,0v3.29c-.13.88-.12,1,1,.92a3.82,3.82,0,0,1,4.36,3.91v2.31a1.5,1.5,0,0,1-3,0ZM62.23,24V21.23c0-3.07,2.64-3.94,5.34-3.75,1.58.08,2-.39,2-1.79V12.1c0-1-.25-1.74-2.44-1.76H62.42c-2.24.12-4.34-.83-4.13-3.53V2a1.5,1.5,0,0,1,3,0V7a2.8,2.8,0,0,1,0,.29,2.22,2.22,0,0,0,1.12.11h4.78c3.18,0,5.51,1.51,5.42,4.78V15.7c0,3.22-2,4.94-5.2,4.77-.6,0-2.12-.22-2.14.77V24a1.5,1.5,0,1,1-3,0Zm1.61-19.9V1.5a1.5,1.5,0,0,1,3,0V4.12a1.5,1.5,0,1,1-3,0Z"/></svg>