<svg id="Слой_1" data-name="Слой 1" xmlns="http://www.w3.org/2000/svg" viewBox="0 0 70.7 80.06"><defs><style>.cls-1{fill:#fd0;}</style></defs><title>sphera9</title><path class="cls-1" d="M55.75,65.57A68.29,68.29,0,0,1,38,79.48a6.41,6.41,0,0,1-5.27,0C8.69,66.07-1.62,44.85.21,16.92a6.54,6.54,0,0,1,3.34-4.84L3.72,12,33.42.11,34,0h2.76l.56.11L67,12l.17.09a6.58,6.58,0,0,1,3.35,4.84c1.17,18-2.59,35.05-14.75,48.65Zm-2.24-2c11.57-12.93,15.11-29.23,14-46.31a3.44,3.44,0,0,0-1.75-2.52L36.44,3H34.26L4.94,14.74a3.39,3.39,0,0,0-1.75,2.52C1.47,43.85,11.18,64,34.08,76.82a3.18,3.18,0,0,0,2.55,0A64.94,64.94,0,0,0,53.51,63.57ZM23.81,42.64h.89a1.5,1.5,0,0,1,0,3H23.14a3.15,3.15,0,0,1-2.33-2.34V36.69a3.45,3.45,0,0,1,2.47-2.47H29.5V27.44a2.87,2.87,0,0,1,2.19-2.19h7.23a2.86,2.86,0,0,1,2.19,2.19v6.78h6.23a3.47,3.47,0,0,1,2.47,2.47V43.3a3.17,3.17,0,0,1-2.34,2.34H40.84v6.64a2.61,2.61,0,0,1-2.06,2h-7a2.61,2.61,0,0,1-2-2V45.64h-.87a1.5,1.5,0,1,1,0-3h1.54A3.16,3.16,0,0,1,32.78,45s0,5.6-.22,6.36h3.86a10.38,10.38,0,0,1,1.42.09V45a3.14,3.14,0,0,1,2.33-2.33H46.8l-.09-5.42h-6.4A2.87,2.87,0,0,1,38.11,35V28.25H32.5V35c0,3-5.31,2.24-8.69,2.28v5.33Zm19-29-7.51-3.06L10.64,20.65C7.56,43.38,15.86,59.37,35.52,69,54.76,58.34,63.3,44.57,60.06,20.64L47.29,15.42a1.5,1.5,0,0,1,1.14-2.78L62,18.19a2.58,2.58,0,0,1,.92,1.17C66.53,44,57.45,61.57,36.18,71.8c0,0-.61.15-.65.15h-.36C34,72,28,68.24,26.94,67.51,10.24,56.37,4.82,39.6,7.79,19.36a2.58,2.58,0,0,1,.92-1.17l26-10.63a3.63,3.63,0,0,1,1.14,0L44,10.85a1.5,1.5,0,1,1-1.13,2.77Z"/></svg>