<svg id="Слой_1" data-name="Слой 1" xmlns="http://www.w3.org/2000/svg" viewBox="0 0 75.15 65.38"><defs><style>.cls-1{fill:#fd0;}</style></defs><title>sphera4</title><path class="cls-1" d="M21,49.88a6.25,6.25,0,1,0,6.25,6.24A6.24,6.24,0,0,0,21,49.88Zm38.25,0a6.25,6.25,0,1,0,6.25,6.24,6.24,6.24,0,0,0-6.25-6.24ZM62.18,41H51V51.94A9.28,9.28,0,0,1,62.35,47.4L62.18,41Zm-6.54-3-.35-.73L55.18,37c-.44-2,0-4.51,3-4.09H62l-.08-3c-.11-.86-.39-1-.75-1.11h-9.9c-.19,0-.18,0-.23,0V38ZM58,35.84l0,.3L59,38h3.15l-.06-2.13c-1.09,0-3.13,0-4,0ZM72.15,51.22c-1.63-.61-5.38-1.72-5.38-3.35V44.12a1.54,1.54,0,0,1,1.5-1.5h3.88V41.9C71.41,38.37,67.32,39,67,37.1L65.43,26.33c-.44-1.41-1.37-2.14-3.21-2.21H49.13a5,5,0,0,0-2.86,1.8V54.5H48V28.75c0-2.07,1.48-3,3.29-3h10l.21,0a4,4,0,0,1,3.41,3.87l.5,19.55a9.27,9.27,0,0,1,3,5.19h3.08c.35-.13.59-.37.71-1V51.22Zm0-5.6H69.77v1.27l2.38,1V45.62Zm-28.88-7.5H3.48a.67.67,0,0,0-.24.11A2.26,2.26,0,0,0,3,39.36c0,.33-.06.65.62.89H43.27V38.12Zm-38,11.63H8.56l.35-1.62H5.27v1.62Zm0-4.62h5.5c3.05,0,.52,6.19.47,6.44a1.77,1.77,0,0,1-1.47,1.18H5.27v.75l1.25,1.25h5.35a9.25,9.25,0,0,1,18.26-.25H43.27V43.25h-38v1.88ZM26.77,3H24.15V4.63h2.62V3Zm4.63,8.75V3H29.77V6.13a1.54,1.54,0,0,1-1.5,1.5H22.65a1.54,1.54,0,0,1-1.5-1.5V3H19.77v8.75Zm-14.63,0V1.5A1.54,1.54,0,0,1,18.27,0H32.9a1.54,1.54,0,0,1,1.5,1.5V11.75H40a1.54,1.54,0,0,1,1.5,1.5v10.5h2.53a9.76,9.76,0,0,1,4.79-2.61H62.3a6,6,0,0,1,6,4.45l0,.2,1.49,10c2.83,1.06,4.74,2.93,5.25,5.74l0,.27V53.5l0,.23A4.09,4.09,0,0,1,72,57.33l-.36.05H68.44a9.25,9.25,0,0,1-18.32.12H30.17a9.25,9.25,0,0,1-18.26.25h-6c-1.06,0-3.63-2.57-3.63-3.62V42.93A3.54,3.54,0,0,1,0,39.15c.06-1.7.76-3.29,2.38-3.83V25.25a1.54,1.54,0,0,1,1.5-1.5H9.65V13.25a1.54,1.54,0,0,1,1.5-1.5Zm-1.37,15v3.12a1.54,1.54,0,0,1-1.5,1.5H8.27a1.54,1.54,0,0,1-1.5-1.5V26.75H5.4v8.38H16.9V26.75Zm-5.63,0v1.62H12.4V26.75Zm20,0v3.12a1.54,1.54,0,0,1-1.5,1.5H22.65a1.54,1.54,0,0,1-1.5-1.5V26.75H19.9v8.38H31.15V26.75Zm-5.62,0v1.62h2.62V26.75Zm19.12,4.62H37.65a1.54,1.54,0,0,1-1.5-1.5V26.75h-2v8.38h9.12V31.37Zm-4.12-4.62v1.62h4.12V26.75Zm-2-12v3.12a1.54,1.54,0,0,1-1.5,1.5H30a1.54,1.54,0,0,1-1.5-1.5V14.75H27v9h11.5v-9Zm-5.63,0v1.62h2.63V14.75Zm-9,0v3.12a1.54,1.54,0,0,1-1.5,1.5H15.4a1.54,1.54,0,0,1-1.5-1.5V14.75H12.65v9H24v-9Zm-5.62,0v1.62h2.62V14.75ZM21,51.88a4.25,4.25,0,1,1-4.25,4.24A4.24,4.24,0,0,1,21,51.88Zm0,3a1.25,1.25,0,1,0,1.25,1.24A1.24,1.24,0,0,0,21,54.88Zm38.25-3A4.25,4.25,0,1,1,55,56.12a4.24,4.24,0,0,1,4.25-4.24Zm0,3a1.25,1.25,0,1,0,1.25,1.24,1.24,1.24,0,0,0-1.25-1.24Z"/></svg>