<svg id="Слой_1" data-name="Слой 1" xmlns="http://www.w3.org/2000/svg" viewBox="0 0 75.25 75.38"><defs><style>.cls-1{fill:#fd0;}</style></defs><title>sphera12</title><path class="cls-1" d="M18.06,3a7.19,7.19,0,1,0,7.19,7.19A7.18,7.18,0,0,0,18.06,3ZM67.25,46.5H29.38v1a3.25,3.25,0,0,0,3.25,3.25H64a3.26,3.26,0,0,0,3.25-3.25v-1Zm-37.87-3H67.25V27.87A3.26,3.26,0,0,0,64,24.62H32.63a3.25,3.25,0,0,0-3.25,3.25V43.5ZM5.12,38.75H8V28.62a1.5,1.5,0,0,1,3,0V38.75H26.38V27.87a6.25,6.25,0,0,1,1.29-3.81A13.26,13.26,0,0,0,18.2,20.5c-7.16-.56-12.85,4.26-13.08,12v6.21Zm65.13.12h3.5a1.54,1.54,0,0,1,1.5,1.5V73.88a1.54,1.54,0,0,1-1.5,1.5H1.5A1.54,1.54,0,0,1,0,73.88V40.25a1.54,1.54,0,0,1,1.5-1.5h.62V32.48c.2-7,4.13-12.23,9.76-14.18a10.19,10.19,0,1,1,12.18.12,16.44,16.44,0,0,1,6,3.76,6.19,6.19,0,0,1,2.58-.56H64a6.25,6.25,0,0,1,6.25,6.25v11ZM56.38,58V53.75H39.88V58ZM72.25,68H3v4.38H72.25V68ZM25.72,60.69c-7.1,3.84-13.81,3.91-20.08.15A1.43,1.43,0,0,1,4.5,59.37V47.87a1.44,1.44,0,0,1,.58-1.21,2,2,0,0,1,.32-.23c7.11-3.89,14-3.94,20.39,0a1.56,1.56,0,0,1,.59.61V41.75H3V65H72.25V41.87h-2V47.5A6.25,6.25,0,0,1,64,53.75H59.38V58h3.87a1.5,1.5,0,0,1,0,3H33.13a1.5,1.5,0,1,1,0-3h3.75V53.75H32.63a6.26,6.26,0,0,1-6.13-5V59.37a1.38,1.38,0,0,1-.78,1.32Zm-2.22-3.9c-5.53,2.42-10.9,2.46-16,.05v1.61c5,2.87,10.26,2.92,16,0V56.79Zm0-5c-5.53,2.42-10.9,2.46-16,.05v1.61c5,2.87,10.26,2.92,16,0V51.79Zm-.13-3.26c-4.87-2.7-10-2.73-15.62.06,4.87,2.71,10,2.74,15.62-.06ZM39.5,38.75V32H37.37v6.75Zm9.5,0V34.5H46.88v4.25Zm9.88,0V29.87H56.75v8.88Zm-5.13,0V28.37a1.54,1.54,0,0,1,1.5-1.5h5.13a1.55,1.55,0,0,1,1.5,1.5V38.75h1.37a1.5,1.5,0,0,1,0,3H33.38a1.5,1.5,0,1,1,0-3h1V30.5a1.54,1.54,0,0,1,1.5-1.5H41a1.54,1.54,0,0,1,1.5,1.5v8.25h1.38V33a1.54,1.54,0,0,1,1.5-1.5H50.5A1.54,1.54,0,0,1,52,33v5.75ZM26.31,60.15a1.36,1.36,0,0,1-.75.63,1.85,1.85,0,0,0,.75-.63Zm.19-.95a1.34,1.34,0,0,1-.19.95,1.55,1.55,0,0,0,.19-.78V59.2Zm0-5a1.69,1.69,0,0,1,0,.45V54.2Zm0-5a1.69,1.69,0,0,1,0,.45V49.2ZM33.75,7.88A1.25,1.25,0,1,0,35,9.12a1.24,1.24,0,0,0-1.25-1.24Zm9.5,7.37A1.25,1.25,0,1,0,44.5,16.5a1.25,1.25,0,0,0-1.25-1.25Zm9.5-9.75A1.25,1.25,0,1,0,54,6.75,1.25,1.25,0,0,0,52.75,5.5Zm7.38,7a1.25,1.25,0,1,0,1.24,1.25,1.24,1.24,0,0,0-1.24-1.25Zm9.49-9.12a1.25,1.25,0,0,0,0,2.49,1.25,1.25,0,1,0,0-2.49ZM62,9.92,65.68,6.2a4.15,4.15,0,0,1-.3-1.58,4.22,4.22,0,1,1,2.32,3.8L64,12.08a4.44,4.44,0,0,1,.33,1.67,4.25,4.25,0,1,1-8.49,0,4.34,4.34,0,0,1,.39-1.8l-1.56-1.43a4.27,4.27,0,0,1-3.77.08l-3.83,4.11a4.3,4.3,0,0,1,.39,1.79,4.25,4.25,0,0,1-8.5,0,4.34,4.34,0,0,1,.22-1.35L36,12.72a4.25,4.25,0,1,1,2-3.6,4.3,4.3,0,0,1-.17,1.2l3.28,2.5A4.3,4.3,0,0,1,45,12.61l3.88-4.17a4.12,4.12,0,0,1-.35-1.69,4.25,4.25,0,0,1,8.5,0,4.17,4.17,0,0,1-.29,1.54l1.71,1.56a4.39,4.39,0,0,1,1.71-.35A4.17,4.17,0,0,1,62,9.92Z"/></svg>