<svg id="Слой_1" data-name="Слой 1" xmlns="http://www.w3.org/2000/svg" viewBox="0 0 83.32 81.76"><defs><style>.cls-1{fill:#fd0;}</style></defs><title>sphera1</title><path class="cls-1" d="M49,25a1.54,1.54,0,0,1,1.5-1.5H74.22A2.4,2.4,0,0,1,76.76,26V45.44c-.2,2.54-2,3.86-4.48,3.94H52.64l-.22,0c-2.14-.31-3.78-1.61-3.41-4V25ZM73.76,43.63H52V45.5l0,.28a1,1,0,0,0,0,.32,1.48,1.48,0,0,0,.78.28H72.21c1.26,0,1.49-.43,1.55-1.07V43.63ZM52,40.63H73.76V26.5H52V40.63ZM58.76,30.2c-.2,4.23,1.29,5.58,4.13,5.55,2.45.06,4-1.19,4-5.51a1.5,1.5,0,0,1,3,0c0,5.17-2.19,8.57-7,8.49-5.11.06-7.39-3.34-7.14-8.69a1.5,1.5,0,1,1,3,.14Zm4.6,29.15L75.27,55c3.37-1.11,6.11.06,7.71,3.25l.11.31A5.75,5.75,0,0,1,80,65.45l-.19.08-23.6,8.75a23.12,23.12,0,0,1-8.6,1.6l-6-.38-.18,0c-3.8-.72-5.76-.12-9.63,1.83l.44,1.17c1,2.61-4.56,2.64-5.13,2.75a1.5,1.5,0,0,1-.56-3l2.26-.42L21.63,58.69,9.2,63.38l6.21,16.34a1.5,1.5,0,1,1-2.8,1.07L7.08,66.24,2,68.16A1.5,1.5,0,0,1,1,65.35l5-1.91L5.86,63a1.53,1.53,0,0,1,.87-1.94L22,55.35a1.55,1.55,0,0,1,1.94.88l.4,1.1c5.71-4.4,11.4-6.14,17-4.8l17.87,3.25a5.16,5.16,0,0,1,4.17,3.57ZM30.68,74.48c3.93-2,6.58-2.81,11.14-2l5.87.37a20.07,20.07,0,0,0,7.41-1.4l23.54-8.72a2.76,2.76,0,0,0,1.58-3.36,2.89,2.89,0,0,0-4-1.6L63.4,62.53c-1.12,3.17-3.61,4.57-7,4.08L43.62,64.36a1.5,1.5,0,0,1,.53-3l12.7,2.24c2.09.31,3.14-.37,3.69-2.19a2.14,2.14,0,0,0-1.92-2.72L40.7,55.47c-4.65-1.13-9.73.3-15.28,4.81l5.26,14.2Zm17-61V9.38C47.46,4.8,45.43,2.92,41.28,3c-4.43,0-6.58,2-6.89,6.31V13.5Zm0,5.75V16.5H34.39v2.88a1.5,1.5,0,0,1-3,0V16.5H27.63V40.88H45.51a1.5,1.5,0,0,1,0,3H27.64V45c0,1.11.36,1.64,2,1.65H45.51a1.5,1.5,0,0,1,0,3H29.63c-3,0-4.95-1.59-5-4.62V16.19a2.37,2.37,0,0,1,3-2.69h3.72V9.2C31.8,3.25,35.25,0,41.23,0s9.19,3.26,9.41,9.35V13.5h4.27c1.62.06,3.06,1,2.85,3v2.78a1.5,1.5,0,0,1-3,0s0-1.94,0-2.75H50.64v2.75a1.5,1.5,0,0,1-3,0Z"/></svg>