<svg id="Слой_1" data-name="Слой 1" xmlns="http://www.w3.org/2000/svg" viewBox="0 0 77.29 77.47"><defs><style>.cls-1{fill:#fd0;}</style></defs><title>sphera7</title><path class="cls-1" d="M10.36,47.45a26.37,26.37,0,1,1,20.52,9.8,25.93,25.93,0,0,1-15.81-5.31,1.5,1.5,0,1,1,1.82-2.38,23,23,0,0,0,14,4.69,23.38,23.38,0,1,0-18.19-8.69,1.5,1.5,0,0,1-2.33,1.89ZM37.13,24.38v5.25h6.25V24.38Zm-3,5.25V13.5H28.25V29.63Zm-18,0V17.75a1.54,1.54,0,0,1,1.5-1.5h7.62V12a1.54,1.54,0,0,1,1.5-1.5h8.88a1.54,1.54,0,0,1,1.5,1.5v9.38h7.75a1.54,1.54,0,0,1,1.5,1.5v6.75H48a1.5,1.5,0,0,1,0,3H14.75a1.5,1.5,0,0,1,0-3Zm9.12-10.38H19.13V29.63h6.12V19.25Zm-6.75,22h5.43c4.18-6.48,3.91-4.83,6.81,2,1.25-3,3.55-11,5.6-7l2.58,5.06H43.5a1.5,1.5,0,0,1,0,3H38c-1.54,0-2.67-3.44-2.87-3.82-1.22,2.92-3.87,11.61-5.76,7.15L27,42.07c-.4.61-1.15,2.18-2.23,2.18H18.5a1.5,1.5,0,0,1,0-3Zm44,25.61L70,74.33l.59.08,3.8-4.19,0-.68c-3.32-3.29,2.76-3.73,3-.76.29,4.47-.8,3.57-5,8.23-.71.78-3.38.48-4-.2l-15-15c-.81-.8-.15-2.93,0-3.54L50,55.12a30.79,30.79,0,0,1-13.5,6.12v6.51a1.5,1.5,0,0,1-3,0V61.64q-.75.06-1.5.09V74a1.5,1.5,0,0,1-3,0V61.69l-1.5-.12v6.18a1.5,1.5,0,0,1-3,0V61.09A30.88,30.88,0,1,1,51.08,7.47a1.5,1.5,0,0,1-1.95,2.29,28.28,28.28,0,1,0,3.61,3.82,1.5,1.5,0,1,1,2.35-1.86A30.7,30.7,0,0,1,61.28,25.5h6.47a1.5,1.5,0,0,1,0,3H61.66c0,.5.06,1,.08,1.5H74a1.5,1.5,0,0,1,0,3H61.68c0,.5-.08,1-.14,1.5h6.21a1.5,1.5,0,0,1,0,3H61a30.73,30.73,0,0,1-5.49,11.93L59,52.88h2.12a3.64,3.64,0,0,1,1.06.43L72.49,63.54a1.5,1.5,0,0,1-2.11,2.13l-3.46-3.44-4.44,4.63ZM55.27,56.15l1.33-1.43-3-3c-.44.48-.9.94-1.37,1.39l3,3Zm8.51,3-4.42,4.62,1,1,4.43-4.62-1-1Zm-6.55,2.49L61.65,57l-1.14-1.13h-.88l-3.41,3.65a1.86,1.86,0,0,1-.26.23l-.1.48,1.37,1.37Z"/></svg>