<svg id="Слой_1" data-name="Слой 1" xmlns="http://www.w3.org/2000/svg" viewBox="0 0 55.19 72.69"><defs><style>.cls-1{fill:#fd0;}</style></defs><title>sphera5</title><path class="cls-1" d="M5.36,12.67h7.32l0-7.31-7.3,7.3Zm10.3-9.48,0,7.25H37.94a1.5,1.5,0,0,1,0,3H15.68v.74a1.54,1.54,0,0,1-1.51,1.51l-11,0V62.94h43V3.19ZM9.19,65.94v3.75h43V9.94h-3v54.5a1.55,1.55,0,0,1-1.5,1.5Zm40-59h4.5a1.54,1.54,0,0,1,1.5,1.5V71.19a1.55,1.55,0,0,1-1.5,1.5h-46a1.54,1.54,0,0,1-1.5-1.5V65.94H1.69a1.54,1.54,0,0,1-1.5-1.5V15A1.51,1.51,0,0,1,.62,13.1L13.09.63A1.51,1.51,0,0,1,15,.19H47.69a1.54,1.54,0,0,1,1.5,1.5V6.94ZM11.44,17.44h26.5a1.5,1.5,0,0,1,0,3H11.44a1.5,1.5,0,0,1,0-3Zm0,7.25h26.5a1.5,1.5,0,0,1,0,3H11.44a1.5,1.5,0,0,1,0-3Zm0,7.25h26.5a1.5,1.5,0,1,1,0,3H11.44a1.5,1.5,0,1,1,0-3Zm0,7.25h26.5a1.5,1.5,0,0,1,0,3H11.44a1.5,1.5,0,1,1,0-3Zm0,7.25h26.5a1.5,1.5,0,0,1,0,3H11.44a1.5,1.5,0,1,1,0-3Zm0,7h26.5a1.5,1.5,0,0,1,0,3H11.44a1.5,1.5,0,1,1,0-3Z"/></svg>