<svg id="Слой_1" data-name="Слой 1" xmlns="http://www.w3.org/2000/svg" viewBox="0 0 57.7 54.41"><defs><style>.cls-1{fill:#fd0;}</style></defs><title>step6</title><path class="cls-1" d="M24.83,30.27v2.29a3.9,3.9,0,0,0,3.9,3.9h.5a3.91,3.91,0,0,0,3.9-3.9V31a5.6,5.6,0,0,1-5.43-1.54,6.24,6.24,0,0,1-2.87.79ZM26,25.41a1.14,1.14,0,0,0-1.15,1.15v1.5A3,3,0,0,0,27,27.21c1.67-1.93,1.81,2.74,6.11,1.55v-2.2A1.15,1.15,0,0,0,32,25.41Zm7.15-8.28v-2.2A1.16,1.16,0,0,0,32,13.78H26a1.15,1.15,0,0,0-1.15,1.15v1.51A3.1,3.1,0,0,0,27,15.59c1.67-1.93,1.81,2.73,6.11,1.54Zm-.72,6.11a4.16,4.16,0,0,0,.72-2.31V19.4a5.6,5.6,0,0,1-5.43-1.55,6.12,6.12,0,0,1-2.87.79v2.29a3.87,3.87,0,0,0,.74,2.3l.41,0h6a3.11,3.11,0,0,1,.43,0ZM24.33,7.58h1.52A1.13,1.13,0,0,1,27,8.68v2.9h3.92V8.68A1.13,1.13,0,0,1,32,7.58h1.5L28.86,2.67,24.33,7.58Zm10.25,27.9a6.82,6.82,0,0,1,2.55,1.17V30.23a3.48,3.48,0,0,0-1.8-3v5.36a6,6,0,0,1-.75,2.92ZM6.08,29.53v3a3.9,3.9,0,0,0,3.9,3.9h.5a3.91,3.91,0,0,0,3.9-3.9v-3Zm8.3-4.12H7.23a1.14,1.14,0,0,0-1.15,1.15v.77h8.3V25.41ZM43.2,30.87v1.69a3.91,3.91,0,0,0,3.9,3.9h.5a3.91,3.91,0,0,0,3.9-3.9V30.85l-4.6-1.61-3.7,1.63Zm1.15-5.46a1.15,1.15,0,0,0-1.15,1.15v1.91l3.21-1.42a3.07,3.07,0,0,1,.8,0l4.29,1.5v-2a1.14,1.14,0,0,0-1.15-1.15Zm-1-17.83h1.52A1.13,1.13,0,0,1,46,8.68V23.21h3.92V8.68A1.13,1.13,0,0,1,51,7.58h1.5L47.86,2.67,43.33,7.58Zm-37.75,0H7.1a1.13,1.13,0,0,1,1.1,1.1V23.21h3.92V8.68a1.13,1.13,0,0,1,1.1-1.1h1.5L10.11,2.67,5.58,7.58ZM20.83,41.11v11.1H22.5V42.93a1.1,1.1,0,0,1,2.2,0v9.28H27a1.1,1.1,0,0,1,0,2.2H12.35a1.1,1.1,0,1,1,0-2.2h2.28V42.93a1.1,1.1,0,0,1,2.2,0v9.28h1.8V41.11c-.2-2.07-1.45-3.35-4.46-3.7a6.06,6.06,0,0,1-3.69,1.25H10a6.07,6.07,0,0,1-3.69-1.24c-2.84.37-3.9,1.59-4.09,3.69v11.1H3.75V42.93a1.1,1.1,0,0,1,2.2,0v9.28H8.23a1.1,1.1,0,0,1,0,2.2H1.1A1.13,1.13,0,0,1,0,53.31V41a5.77,5.77,0,0,1,4.63-5.5,6.13,6.13,0,0,1-.75-2.95v-6A3.35,3.35,0,0,1,6,23.44V9.78H4.6c-1.5,0-2-2.07-1.07-3.2,8.08-8.79,5.05-8.75,13.26,0,1,1.12.43,3.2-1.07,3.2h-1.4V23.21h.53a1.73,1.73,0,0,1,1.73,1.72v7.63a6,6,0,0,1-.75,2.92,7.37,7.37,0,0,1,2.8,1.28V30.14a5.81,5.81,0,0,1,4.56-5.46,3.6,3.6,0,0,1,.39-.47,6.11,6.11,0,0,1-.95-3.28v-6a3.36,3.36,0,0,1,2.12-3.12v-2h-1.4c-1.5,0-2-2.07-1.07-3.2,8.08-8.79,5-8.75,13.26,0,1,1.12.43,3.2-1.07,3.2h-1.4v2a3.35,3.35,0,0,1,2.26,3.16v6a6.37,6.37,0,0,1-.94,3.3,4.12,4.12,0,0,1,.33.4,5.76,5.76,0,0,1,4.6,5.51v6.51a6.67,6.67,0,0,1,2.43-1.14A6.13,6.13,0,0,1,41,32.56v-6a3.35,3.35,0,0,1,2.75-3.3V9.78h-1.4c-1.5,0-2-2.07-1.07-3.2,8.08-8.79,5-8.75,13.26,0,1,1.12.43,3.2-1.07,3.2h-1.4v13.9a3.36,3.36,0,0,1,1.63,2.88v6A6.11,6.11,0,0,1,53,35.48,5.78,5.78,0,0,1,57.7,41v12.3a1.13,1.13,0,0,1-1.1,1.1H49.48a1.1,1.1,0,1,1,0-2.2h2.27V42.93a1.1,1.1,0,0,1,2.2,0v9.28H55.5V41.11c-.2-2.13-1.27-3.35-4.2-3.7a6.11,6.11,0,0,1-3.7,1.25h-.5a6,6,0,0,1-3.68-1.24c-2.85.37-3.9,1.59-4.09,3.69v11.1h1.55V42.93a1.1,1.1,0,0,1,2.2,0v9.28h2.27a1.1,1.1,0,1,1,0,2.2H31.1a1.1,1.1,0,1,1,0-2.2h2.28V42.93a1.1,1.1,0,0,1,2.2,0v9.28h1.55V41.11c-.2-2.13-1.28-3.35-4.21-3.7a6.06,6.06,0,0,1-3.69,1.25h-.5A6.07,6.07,0,0,1,25,37.42c-2.88.37-4,1.62-4.21,3.69Zm1.8-13.85a3.45,3.45,0,0,0-1.8,3V36.7a7.08,7.08,0,0,1,2.55-1.19,6.13,6.13,0,0,1-.75-2.95v-5.3Z"/></svg>