<svg id="Слой_1" data-name="Слой 1" xmlns="http://www.w3.org/2000/svg" viewBox="0 0 57.7 57.99"><defs><style>.cls-1{fill:#fd0;}</style></defs><title>step2</title><path class="cls-1" d="M28.6,53.86l5-5-5,0v5Zm5.76-2.58,4,.26,3.27-47L8.69,2.22,8.42,6.09H21.67a1.11,1.11,0,0,1,0,2.21L2.2,8.32l0,47.15H26.4V48.86a2.23,2.23,0,0,1,2.23-2.23h6.62l0-38.33H26.78a1.11,1.11,0,0,1,0-2.21h8.45a2.23,2.23,0,0,1,2.22,2.23V47.11a1.1,1.1,0,0,1-.32,1.4l-2.77,2.77ZM6.16,6.09C6.13,4,6-.19,8.87,0l32.92,2.3a2.23,2.23,0,0,1,2.07,2.37l-3.29,47c-.25,3.49-7,1.83-8.29,1.66l-4,4a1.1,1.1,0,0,1-1.4.32H2.23A2.23,2.23,0,0,1,0,55.44V8.32A2.23,2.23,0,0,1,2.23,6.09ZM11,14.84H26.1a1.1,1.1,0,1,1,0,2.2H11a1.1,1.1,0,1,1,0-2.2Zm-3.63,6H30.1a1.1,1.1,0,1,1,0,2.2H7.35a1.1,1.1,0,1,1,0-2.2Zm0,5.88H30.1a1.1,1.1,0,1,1,0,2.2H7.35a1.1,1.1,0,1,1,0-2.2Zm0,5.75H30.1a1.1,1.1,0,1,1,0,2.2H7.35a1.1,1.1,0,1,1,0-2.2Zm1.45,17-.64,2.25A1.1,1.1,0,0,1,6,51.14l2.13-7.38a1.08,1.08,0,1,1,2.15.28l.12,4,.75.89c2.18-3.75,2.27-2.6,4.39.8H21.1a1.1,1.1,0,1,1,0,2.2H15c-.9,0-1.59-1.56-1.85-2-1.9,3.26-2.06,2.25-4.33-.45ZM50,53.42v.9l.52.69.53-.69v-.9Zm-.12-29.83h1.71l.06-2.05-1.77,0v2Zm3.77,5.2H46.8c-.47.21-.48.42-.48.55,0,.53.11.76.28.88h6.63a1.13,1.13,0,0,1,1.1,1.1v8.54l1-.47a.88.88,0,0,0,.14-.51V29.56a1.54,1.54,0,0,0-.71-.77Zm.1-5.19a1.13,1.13,0,0,1,1,1.09v1.9H55l.31.05a3.67,3.67,0,0,1,2.32,2.25l.09.43V39a3,3,0,0,1-1,2.2l-.24.14-2.1,1v8.67A2.48,2.48,0,0,1,53.2,53v1.67a2.94,2.94,0,0,1-.23.67c-2.68,3.51-2.31,3.51-5,0a2.94,2.94,0,0,1-.23-.67V53a2.59,2.59,0,0,1-1.12-2.14V48.09a1.1,1.1,0,0,1,2.2,0v2.73a.39.39,0,0,0,.4.4h2.62a.28.28,0,0,0,.28-.28V32.42h-3.3V42.56a1.1,1.1,0,1,1-2.2,0V32.42h-.28l-.41-.08a2.89,2.89,0,0,1-1.81-3,2.79,2.79,0,0,1,2.1-2.66l.37-.07,0-1.9a1.12,1.12,0,0,1,1-1.09v-2a2.22,2.22,0,0,1,2.22-2.23H51.6a2.11,2.11,0,0,1,2.1,2.1V23.6Zm-1.2,2.19H48.83v.8H52.5v-.8Z"/></svg>