<svg id="Слой_1" data-name="Слой 1" xmlns="http://www.w3.org/2000/svg" viewBox="0 0 63.2 64.08"><defs><style>.cls-1{fill:#fd0;}</style></defs><title>step1</title><path class="cls-1" d="M23.66,52.58l.2-.2c.51-.53.92-1.19.39-1.76a1.14,1.14,0,0,0-1.58.07l-1,.94-1,.88c-1.19,1.11.2,2.6,1.39,1.49l.93-.86c.14-.14.38-.33.62-.56ZM20.05,50c.51-.47,1.89-1.52,1.07-2.39a1.13,1.13,0,0,0-1.57.07l-.81.81-1.14,1c-1.2,1.11.19,2.6,1.39,1.49l1.06-1Zm12.49,9.57a4,4,0,0,1-.53.64l-.82.76.61.61a1.08,1.08,0,0,0,1.82-.8.86.86,0,0,0-.11-.43,1.84,1.84,0,0,1-.25-.17l-.72-.61Zm-3.22.13c.61-.57,2.31-1.71,1.28-2.81a1.2,1.2,0,0,0-1.68,0l-.28.28L27.8,58l-.64.55-.3.27a1.18,1.18,0,0,0,1.75,1.59l.71-.66Zm-3.15-3.29c.61-.57,2-1.58,1.08-2.6a1.21,1.21,0,0,0-1.68,0l-.92.91-.93.82a1.17,1.17,0,1,0,1.6,1.71l.2-.21.65-.59ZM6.25,46.06l4.22-14.77L3.05,27H2.2V44.79l4.05,1.27Zm6.18-13.63L8.35,46.72l2.38.75,3.95-13.73-2.25-1.31ZM29.17,36l-3.62-1.11-9.47,2-2.71,9.39,2.78,1.62,1-.89.84-.85a3.37,3.37,0,0,1,4.73,0,3.07,3.07,0,0,1,.83,2,3.06,3.06,0,0,1,2.29,1,3.1,3.1,0,0,1,.83,2.17,3.3,3.3,0,0,1,3.06,3.06,3.33,3.33,0,0,1,3.32,2.8l1.32,1.11a1.42,1.42,0,0,1,.53.32,1.08,1.08,0,0,0,1.84-.78,1,1,0,0,0-.35-.69,1.88,1.88,0,0,1-.18-.24L31.52,53a1.1,1.1,0,1,1,1.41-1.69l5.25,4.37a.94.94,0,0,0,.61.25A1.22,1.22,0,0,0,40,54.66a1.63,1.63,0,0,0-.06-.47L34.52,49.7A1.1,1.1,0,1,1,35.93,48l4.8,4a1.29,1.29,0,0,1,.79.55,1.21,1.21,0,0,0,1.61-1.15,1.47,1.47,0,0,0-.11-.59l-8.93-7.67a1.9,1.9,0,0,0-3-.16l-2.87,1.87c-3.83,3.12-8.41-2.55-4.59-5.62L29.17,36ZM44.35,49.06,61,40.79v-11l-19,9.8a2.57,2.57,0,0,1-.83.07l-9.21-2.82a1.3,1.3,0,0,1-.28.22L25,41c-.38.33-.6.84-.31,1.86,1,.88,1.69.72,2.27.23l2.88-1.88a4,4,0,0,1,5.78.34l8.74,7.51ZM21.06,29.58H18.23a1.14,1.14,0,0,1-1.11-1.1v-2c0-1.45,3.23-1.43,3.19-4.62V18.31c-.48-3.17-2-4.41-4.6-4.3H15.3c-2.61-.11-4.12,1.13-4.6,4.3v3.55c0,3.19,3.19,3.17,3.19,4.62v2a1.14,1.14,0,0,1-1.1,1.1h-.88l4.62,2.7a1.34,1.34,0,0,1,.5,1.25l-.26.93L19.06,34a8.25,8.25,0,0,1,2-4.4Zm21,7.47c.18-4.61-1.4-6.84-4.43-7.47H34.48a1.13,1.13,0,0,1-1.1-1.1v-2c0-1.45,3.22-1.43,3.18-4.62V18.31c-.48-3.17-2-4.41-4.6-4.3h-.41c-2.61-.11-4.12,1.13-4.6,4.3v3.55c0,3.19,3.19,3.17,3.19,4.62v2a1.14,1.14,0,0,1-1.1,1.1H25.52a5,5,0,0,0-4.11,3.9l4-.83a3.32,3.32,0,0,1,.55,0l15.45,4.74.72-.37Zm0-7.47a9.43,9.43,0,0,1,2.16,6.33l11-5.67c-1.45-1-5.56.2-5.56-1.76v-2c0-1.45,3.23-1.43,3.19-4.62V18.31c-.48-3.17-2-4.41-4.61-4.3h-.4c-2.61-.11-4.12,1.13-4.6,4.3v3.55c0,3.19,3.18,3.17,3.18,4.62v2a1.13,1.13,0,0,1-1.1,1.1Zm5.59-17.77h.52c4-.16,6.29,2.13,6.89,6.26v3.77A5.81,5.81,0,0,1,52,27.13v.25c2.38.07,4.4.53,5.39,1.81L61.6,27a1,1,0,0,1,1.6,1v13.5a1.65,1.65,0,0,1-.61,1L45.31,51l0,.37a3.43,3.43,0,0,1-3.13,3.41,3.41,3.41,0,0,1-3.26,3.25,3.28,3.28,0,0,1-3.13,3,3.28,3.28,0,0,1-3.27,3,3.37,3.37,0,0,1-2.24-.88l-.77-.78a3.4,3.4,0,0,1-4.24-.57,3.25,3.25,0,0,1-.88-2.09,3.29,3.29,0,0,1-3.29-3.18,3.11,3.11,0,0,1-2.22-1,3.06,3.06,0,0,1-.82-2,3.08,3.08,0,0,1-3-3.82l-2.3-1.34-.21.74c-.38,1.31-1.91.58-2.66.34l-7.7-2.41C1.54,46.89,0,46.66,0,45.6V25.85a1.13,1.13,0,0,1,1.1-1.1H3.35a4.94,4.94,0,0,1,.55.15l4.33,2.53a1.38,1.38,0,0,1,.37-.05h3.09v-.25A5.8,5.8,0,0,1,8.5,21.84V18.23c.61-4.29,2.93-6.58,6.9-6.42h.22c-.64-1-1.42-2.19-.92-2.91C15.35,8,19.26,2.81,20.84,4l2.31,1.68a17.16,17.16,0,0,1,3.79-1.59c.56-4.19.31-4,4.79-4s4.38-.19,4.48,4a18,18,0,0,1,4.2,1.74c.3-.25,2.28-2.64,3.43-1.8.94.68,5.9,4.61,4.94,6.18l-1.06,1.72Zm-6.11,4.32A10.91,10.91,0,0,0,22,15.88a10.48,10.48,0,0,1,.54,2.19v3.77a5.81,5.81,0,0,1-3.18,5.29v.25h6l.29-.05a1,1,0,0,1,.58.05h1.76v-.25a5.81,5.81,0,0,1-3.19-5.29V18.23c.61-4.29,2.93-6.58,6.9-6.42h.22c4-.16,6.28,2.13,6.88,6.26v3.77a5.81,5.81,0,0,1-3.18,5.29v.25H37a1,1,0,0,1,.58-.05l.29.05h6.44v-.25a5.83,5.83,0,0,1-3.19-5.29V18.23a12,12,0,0,1,.49-2.1ZM20.67,13.68a13.11,13.11,0,0,1,22.19.15,5.32,5.32,0,0,1,2-1.48,1.38,1.38,0,0,1,.1-.22l1.59-2.57a18.63,18.63,0,0,0-3.29-3.35c-.29.25-2.17,2.49-3.29,1.78a15.73,15.73,0,0,0-5-2.08C33.54,5.62,34,2.8,34,2.34a18.45,18.45,0,0,0-2.24-.14,18.19,18.19,0,0,0-2.35.15c-.76,5.72-.73,2.42-5.7,5.54-1.08.68-3.27-1.53-3.47-1.67A18.25,18.25,0,0,0,17,9.54c.66.92,1.68,1.76,1.77,2.77a5.32,5.32,0,0,1,1.94,1.37Z"/></svg>