<svg id="Слой_1" data-name="Слой 1" xmlns="http://www.w3.org/2000/svg" viewBox="0 0 55.7 54.62"><defs><style>.cls-1{fill:#fd0;}</style></defs><title>step8</title><path class="cls-1" d="M41.73,15.52a1.19,1.19,0,1,1,1.18,1.19,1.18,1.18,0,0,1-1.18-1.19ZM20.39,51.37l-.15,1.05h2.89V51.37ZM49,20.23c.21,3.18,1.74,4.94,4.17,5.26V10.19a2.79,2.79,0,0,0-2.72-2.56,6,6,0,0,1,.3,4.69,3.63,3.63,0,0,1,2,3.62A4.28,4.28,0,0,1,49,20.23Zm.08-2.3a2,2,0,0,0,1.46-2.08,1.52,1.52,0,0,0-1.26-1.76L49,17.93ZM19.71,40.37H14.43L11.05,52.42h7l.86-6.12c-.15-1.41.54-3.83.83-5.93ZM52.5,43.12H50.85a8.71,8.71,0,0,1-1.18,3.55l2.83.47v-4Zm-25.62,9.3V50.27a1.12,1.12,0,0,1,1.1-1.1H39.23l.42.08,7.25,3a2,2,0,0,1,.29.17h4a2.58,2.58,0,0,0,1.29-2.09v-1l-5.33-.89a56.31,56.31,0,0,0-11.89-2,1.1,1.1,0,1,1,.14-2.19,58.18,58.18,0,0,1,11.93,2c1.86-2.79,1.7-5-.06-6.86a6.29,6.29,0,0,1-.63-2,1.1,1.1,0,1,1,2.13-.53l.31,1.23a7.25,7.25,0,0,1,1.56,2.81H52.5V34.4c0-2.07-.85-2.91-2.9-2.91H47.11L45.53,34c-3.23,3.69-6.83,3.68-10.32.32a1.1,1.1,0,1,1,1.53-1.58c2.64,2.54,4.77,2.47,7,0l.86-1.36c-1.3-.36-2.45-1.16-2.33-2.65V26.37a11.43,11.43,0,0,1-2.81.37,15.73,15.73,0,0,1-1.61-.2v2.6l-.06.34a2.3,2.3,0,0,1-2.56,1.76,1.1,1.1,0,0,1,.28-2.19l.14-3.13a7.87,7.87,0,0,1-4.69-4.78A1.1,1.1,0,0,1,33,20.39c.88,2.43,2.9,3.87,6.5,4.15,5.31-.11,6.3-3.59,7.28-5.36L47,14l.06-.3a4.08,4.08,0,0,1,.21-.56,8.35,8.35,0,0,1-2.46-3.53A26,26,0,0,1,35.42,14L36,15.64a1.1,1.1,0,0,1-2.07.76c-.15-.43-2.1-3.75-.22-4.2,4.8-1.16,8.39-3,10.87-5.35,1.89-1.83,1.79,2.29,3.85,4.33.71-1,.86-1.7-1.39-5.2-2.81-4.53-9-5-13.66-1.46a1.1,1.1,0,1,1-1.33-1.75c5.31-4,13.16-3.92,16.85,2.05l.38.6c3.26-.23,5.77,1.59,6,4.68V26.64c0,2.12-6.16,1.82-8-3.67a9,9,0,0,1-2.83,2.52v3.28c.09.2.37.4.89.52H49.6c3.27,0,5.09,1.83,5.1,5.1v16a5.79,5.79,0,0,1-.57,2h.47a1.1,1.1,0,1,1,0,2.2H1.1a1.1,1.1,0,1,1,0-2.2H8.5a24,24,0,0,1,1.14-4.93H4.35A3.85,3.85,0,0,1,.5,43.64V27.27a3.85,3.85,0,0,1,3.85-3.85h5.81a1.1,1.1,0,1,1,0,2.2H4.35A1.65,1.65,0,0,0,2.7,27.27V43.64a1.65,1.65,0,0,0,1.65,1.65h6c.29-.85.59-1.7.88-2.49A13,13,0,0,1,12.55,39a1.24,1.24,0,0,1,.49-.57.89.89,0,0,1,.56-.21H21c2.07,0,.71,3.93.26,7.12h8.61a1.65,1.65,0,0,0,1.65-1.65V27.27a1.65,1.65,0,0,0-1.65-1.65H17a1.1,1.1,0,0,1,0-2.2H29.85a3.85,3.85,0,0,1,3.85,3.85V43.64a3.85,3.85,0,0,1-3.85,3.85H20.93l-.23,1.68h3.53a1.13,1.13,0,0,1,1.1,1.1v2.15Zm10.87,0V51.37H29.08v1.05Zm2.2-.66v.66h1.59L40,51.76ZM37.76,19.4c.77,1.15,1.2,1.26,2.22-.06a1.1,1.1,0,0,1,1.74,1.36c-1.84,2.35-4.08,2.46-5.78-.07a1.1,1.1,0,0,1,1.82-1.23ZM5.23,2H26.85a4.24,4.24,0,0,1,4.23,4.23v10.5A4.23,4.23,0,0,1,26.85,21h-10c-3.65,6.17-2.94,6.19-6.54,0H5.23A4.22,4.22,0,0,1,1,16.77V6.27A4.23,4.23,0,0,1,5.23,2Zm0,2.2a2,2,0,0,0-2,2v10.5a2,2,0,0,0,2,2H11c1.14,0,2.23,2.74,2.63,3.43.39-.66,1.52-3.43,2.65-3.43H26.85a2,2,0,0,0,2-2V6.27a2,2,0,0,0-2-2Zm1,1.93H18.6a1.1,1.1,0,1,1,0,2.2H6.23a1.1,1.1,0,1,1,0-2.2Zm0,7.5H25.1a1.1,1.1,0,1,1,0,2.2H6.23a1.1,1.1,0,1,1,0-2.2Zm0-3.38H25.1a1.1,1.1,0,1,1,0,2.2H6.23a1.1,1.1,0,1,1,0-2.2Zm17-4.12H25.1a1.1,1.1,0,1,1,0,2.2H23.23a1.1,1.1,0,1,1,0-2.2ZM27.1,27.29H29a1.1,1.1,0,0,1,0,2.2H27.1a1.1,1.1,0,1,1,0-2.2Zm-22,0H7a1.1,1.1,0,0,1,0,2.2H5.1a1.1,1.1,0,1,1,0-2.2Zm5.88,0h1.87a1.1,1.1,0,1,1,0,2.2H11a1.1,1.1,0,1,1,0-2.2Zm5.12,0H18a1.1,1.1,0,0,1,0,2.2H16.1a1.1,1.1,0,1,1,0-2.2Zm5.38,0h1.87a1.1,1.1,0,1,1,0,2.2H21.48a1.1,1.1,0,1,1,0-2.2Zm16,10.36C39.27,39,41,39,43.1,37.61a1.1,1.1,0,0,1,1.25,1.82c-2.77,1.9-5.59,2-8.17,0a1.1,1.1,0,1,1,1.34-1.74Z"/></svg>