<svg id="Слой_1" data-name="Слой 1" xmlns="http://www.w3.org/2000/svg" viewBox="0 0 48.34 60.45"><defs><style>.cls-1{fill:#fd0;}</style></defs><title>step4</title><path class="cls-1" d="M14.23,38.87H40.6a1.11,1.11,0,0,1,0,2.21H14.23a1.11,1.11,0,0,1,0-2.21Zm0,5.25H40.6a1.11,1.11,0,0,1,0,2.21H14.23a1.11,1.11,0,0,1,0-2.21Zm0,5.38h18.5a1.1,1.1,0,0,1,0,2.2H14.23a1.1,1.1,0,1,1,0-2.2ZM3.5,9.73a2.09,2.09,0,0,0-1.3,1.93,2.12,2.12,0,0,0,1.3,1.9V9.73Zm0,9.37a2.06,2.06,0,0,0,0,3.83V19.1Zm0,9.38a2.09,2.09,0,0,0-1.3,1.93,2.12,2.12,0,0,0,1.3,1.9V28.48Zm0,9.37a2.06,2.06,0,0,0,0,3.83V37.85Zm0,9.38a2.09,2.09,0,0,0-1.3,1.93,2.12,2.12,0,0,0,1.3,1.9V47.23Zm0,6.12A4.36,4.36,0,0,1,0,49.16,4.28,4.28,0,0,1,3.5,45V44A4.36,4.36,0,0,1,0,39.79a4.29,4.29,0,0,1,3.5-4.22v-1A4.36,4.36,0,0,1,0,30.41,4.28,4.28,0,0,1,3.5,26.2v-1A4.36,4.36,0,0,1,0,21a4.29,4.29,0,0,1,3.5-4.22v-1A4.36,4.36,0,0,1,0,11.66,4.28,4.28,0,0,1,3.5,7.45V2.72A2.72,2.72,0,0,1,6.23,0H45.6a2.72,2.72,0,0,1,2.73,2.72V43.27a1.1,1.1,0,1,1-2.2,0V2.72a.53.53,0,0,0-.53-.52H6.23a.53.53,0,0,0-.53.52V7.61a4.3,4.3,0,0,1,2.85,3.54,1.1,1.1,0,0,1-2.19.26,2,2,0,0,0-.66-1.28V17a4.3,4.3,0,0,1,2.85,3.54,1.1,1.1,0,0,1-2.19.26A2.07,2.07,0,0,0,5.7,19.5v6.86A4.3,4.3,0,0,1,8.55,29.9a1.1,1.1,0,0,1-2.19.26,2,2,0,0,0-.66-1.28v6.86a4.3,4.3,0,0,1,2.85,3.54,1.1,1.1,0,0,1-2.19.26,2.07,2.07,0,0,0-.66-1.29v6.86a4.3,4.3,0,0,1,2.85,3.54,1.1,1.1,0,0,1-2.19.26,2,2,0,0,0-.66-1.28v10.1a.52.52,0,0,0,.53.52H45.6a.52.52,0,0,0,.53-.52s0-6.08,0-10.35a1.1,1.1,0,0,1,2.2,0c0,4.28,0,10.35,0,10.35a2.72,2.72,0,0,1-2.73,2.72H6.23A2.72,2.72,0,0,1,3.5,57.73V53.35ZM30.29,30.84a9.5,9.5,0,0,0,5.13-7.26h-8l2.83,7.26Zm-16-8.94C14.64,11.72,27,8.54,27,11.73v9.65H36.6c3.24,0-.13,12.7-10.62,12.7a11.67,11.67,0,0,1-11-7.55,1.1,1.1,0,1,1,2.06-.76A9.48,9.48,0,0,0,26,31.88a9.83,9.83,0,0,0,2.25-.27l-3.4-8.74a1.07,1.07,0,0,1-.08-.6V12.9A9.52,9.52,0,0,0,16.46,22a1.1,1.1,0,1,1-2.2-.08ZM30.6,8.84v2.52a1.1,1.1,0,0,1-2.2,0V7.74c0-.94.87-1.1,1.56-1.12A11.74,11.74,0,0,1,41.7,18.35c0,.74-.08,1.82-1.12,1.83H29.5a1.12,1.12,0,0,1-1.1-1.1V15.22a1.1,1.1,0,0,1,2.2,0V18h8.89A9.53,9.53,0,0,0,30.6,8.84Z"/></svg>