<svg id="Слой_1" data-name="Слой 1" xmlns="http://www.w3.org/2000/svg" viewBox="0 0 54.54 53.96"><defs><style>.cls-1{fill:#fd0;}</style></defs><title>step7</title><path class="cls-1" d="M53.48,22.83a9.94,9.94,0,0,1-1.16,5.81,1.43,1.43,0,0,1-.43.5l-5.75,5.75a1.1,1.1,0,0,1-1.56-1.56l5.81-5.8a9.08,9.08,0,0,0,.37-2l-10,10c0,7.19,0,16.45,0,16.45a2,2,0,0,1-2,2H2.11a2,2,0,0,1-2-2V10.71A1.12,1.12,0,0,1,.46,9.3L9.3.46A1.1,1.1,0,0,1,10.7.14h28a2,2,0,0,1,2,2V25L48,17.7c1.31-1.24,4.61-2.36,5.65.11a3.69,3.69,0,0,1-.14,5Zm-5.62-1.9,2.21,2.21,1.58-1.57c.92-1,.88-1.63.22-2.4l-.15-.24c-.7-.52-1.32-.5-2.2.33l-1.66,1.67ZM36.29,36.85l-2.13-2.14-5.43,5.46,2.1,2.1,5.46-5.42ZM29.1,43.66l-1.75-1.75-1.73,2.35c-.31.42-.29.62,0,1a1.08,1.08,0,0,1,.22.32c.25.18.45.15.79-.11l2.43-1.78ZM25,47.56l-.58.58a1.1,1.1,0,0,1-1.56-1.56l.65-.65a2.73,2.73,0,0,1,.37-3l2.75-3.75,11.91-12V2.34H11.18V9.21a2,2,0,0,1-2,2H2.34V51.76H38.51v-14l-6.67,6.63L28,47.21a2.74,2.74,0,0,1-3,.35ZM9,9V4L4,9ZM36.36,33.81,47,23.17l-.68-.68L35.71,33.15l.65.66ZM47.86,24,37.23,34.67l.62.62.77-.76a1,1,0,0,1,.52-.52l9.37-9.32L47.86,24ZM4.49,43.39H20a1.1,1.1,0,0,1,0,2.2H4.49a1.1,1.1,0,1,1,0-2.2Zm0,3.75H20a1.1,1.1,0,0,1,0,2.2H4.49a1.1,1.1,0,1,1,0-2.2Zm0-7.38H20A1.1,1.1,0,0,1,20,42H4.49a1.1,1.1,0,1,1,0-2.2Zm0-3.25h6.87a1.1,1.1,0,1,1,0,2.2H4.49a1.1,1.1,0,1,1,0-2.2Zm10.75-4.75H28.61a1.1,1.1,0,1,1,0,2.2H15.24a1.1,1.1,0,1,1,0-2.2Zm0-3.75H31.61a1.1,1.1,0,1,1,0,2.2H15.24a1.1,1.1,0,1,1,0-2.2Zm0-7H34.36a1.1,1.1,0,1,1,0,2.2H15.24a1.1,1.1,0,1,1,0-2.2Zm0-3.75H34.36a1.1,1.1,0,1,1,0,2.2H15.24a1.1,1.1,0,1,1,0-2.2ZM8,26.59a2.4,2.4,0,1,0,2.38,2.72c-1.19,1.08-2.32,1.79-3,1.08l-.75-.75a1.1,1.1,0,0,1,1.56-1.56L9.33,27A2.41,2.41,0,0,0,8,26.59Zm0-2.2a4.54,4.54,0,0,1,3,1.1l1-.94a1.1,1.1,0,0,1,1.49,1.62c-.36.33-.76.75-1.19,1.19a4.67,4.67,0,0,1,.3,1.63A4.6,4.6,0,1,1,8,24.39Zm0-8.18a2.4,2.4,0,1,0,2.4,2.4A2.4,2.4,0,0,0,8,16.21ZM8,14a4.6,4.6,0,1,1-4.6,4.6A4.6,4.6,0,0,1,8,14ZM27.14,7.46H14.34v2.68h12.8V7.46Zm1.1-2.2a1.14,1.14,0,0,1,1.1,1.1v4.88a1.14,1.14,0,0,1-1.1,1.1h-15a1.13,1.13,0,0,1-1.1-1.1V6.36a1.13,1.13,0,0,1,1.1-1.1Z"/></svg>