<svg id="Слой_1" data-name="Слой 1" xmlns="http://www.w3.org/2000/svg" viewBox="0 0 44.22 58.33"><defs><style>.cls-1{fill:#fd0;}</style></defs><title>step5</title><path class="cls-1" d="M42,8.7H2.2V55.85a.27.27,0,0,0,.27.27H41.73a.27.27,0,0,0,.27-.27S42,40,42,31.72a1.1,1.1,0,0,1,2.2,0c0,8.3,0,24.12,0,24.12a2.48,2.48,0,0,1-2.47,2.48H2.47A2.48,2.48,0,0,1,0,55.85V2.48A2.48,2.48,0,0,1,2.47,0H41.73A2.48,2.48,0,0,1,44.2,2.48V26.77a1.1,1.1,0,0,1-2.2,0V8.7ZM5.75,6.5V2.2H2.47a.27.27,0,0,0-.27.28v4ZM8,2.2V6.5H42v-4a.27.27,0,0,0-.27-.28Zm2.9.8h28.5a1.1,1.1,0,1,1,0,2.2H10.85a1.1,1.1,0,1,1,0-2.2ZM16,30a1.13,1.13,0,0,1,1.1,1.1V40a1.14,1.14,0,0,1-1.1,1.1H5.73A1.13,1.13,0,0,1,4.63,40V31.1A1.12,1.12,0,0,1,5.73,30Zm-1.11,2.2h-8v6.67h8V32.2ZM9.88,34l.9.9,1-.84a1.1,1.1,0,0,1,1.43,1.67c-2.76,2.37-2.3,2.39-4.87-.18A1.1,1.1,0,0,1,9.88,34ZM20.1,31H37.73a1.1,1.1,0,0,1,0,2.2H20.1a1.1,1.1,0,1,1,0-2.2Zm0,6.75H37.73a1.1,1.1,0,0,1,0,2.2H20.1a1.1,1.1,0,1,1,0-2.2Zm0-3.5H37.73a1.1,1.1,0,0,1,0,2.2H20.1a1.1,1.1,0,1,1,0-2.2ZM16,42.62a1.14,1.14,0,0,1,1.1,1.11V52.6A1.13,1.13,0,0,1,16,53.7H5.73a1.12,1.12,0,0,1-1.1-1.1V43.73a1.13,1.13,0,0,1,1.1-1.11Zm-1.11,2.21h-8V51.5h8V44.83Zm-5,1.74.9.91,1-.84a1.1,1.1,0,0,1,1.43,1.67c-2.76,2.36-2.3,2.39-4.87-.18a1.1,1.1,0,0,1,1.56-1.56Zm10.22-3H37.73a1.1,1.1,0,0,1,0,2.2H20.1a1.1,1.1,0,1,1,0-2.2Zm0,6.75H37.73a1.1,1.1,0,0,1,0,2.2H20.1a1.1,1.1,0,1,1,0-2.2Zm0-3.49H37.73a1.1,1.1,0,1,1,0,2.19H20.1a1.1,1.1,0,1,1,0-2.19ZM17.45,24.83a7.41,7.41,0,0,0,9.6-.47L27,23.25a1.79,1.79,0,0,0-1.77-1.8h-6a1.77,1.77,0,0,0-1.78,1.77v1.61ZM22.1,12.75a4.35,4.35,0,0,1,3.75,6.55,4,4,0,0,1,3,2.35,7.4,7.4,0,0,0-5.22-9.88,1.1,1.1,0,0,1,.5-2.15,9.62,9.62,0,1,1-4.1,0,1.1,1.1,0,1,1,.43,2.15,7.41,7.41,0,0,0-5.13,10.57,4,4,0,0,1,3-2.95,4.35,4.35,0,0,1,3.73-6.59Zm0,2.2a2.15,2.15,0,1,0,2.15,2.15A2.15,2.15,0,0,0,22.1,15Z"/></svg>