<svg id="Слой_1" data-name="Слой 1" xmlns="http://www.w3.org/2000/svg" viewBox="0 0 45.83 60.57"><defs><style>.cls-1{fill:#fd0;fill-rule:evenodd;}</style></defs><title>step3</title><path class="cls-1" d="M24,43.75h9.87a1.1,1.1,0,1,1,0,2.2H24a1.1,1.1,0,1,1,0-2.2Zm-6-1.68H12.82v5.8h5.81V45c-1.39,1.52-2.73,2.58-3.56,1.75L13.7,45.38a1.1,1.1,0,0,1,1.55-1.56l.57.57L18,42.07Zm1.74-2.2a.92.92,0,0,1,.28.05l.54-.57a1.1,1.1,0,1,1,1.6,1.5c-.4.43-.85,1-1.33,1.55V49a1.13,1.13,0,0,1-1.1,1.09h-8A1.12,1.12,0,0,1,10.63,49V41a1.13,1.13,0,0,1,1.1-1.1ZM24,31.13h9.87a1.1,1.1,0,1,1,0,2.19H24a1.1,1.1,0,1,1,0-2.19Zm-6-1.68H12.82v5.8h5.81V32.38C17.24,33.9,15.9,35,15.07,34.13L13.7,32.75a1.1,1.1,0,1,1,1.55-1.55l.57.57L18,29.45Zm1.74-2.2a.9.9,0,0,1,.28,0l.54-.57a1.1,1.1,0,1,1,1.6,1.51c-.4.43-.85,1-1.33,1.54v6.58a1.13,1.13,0,0,1-1.1,1.1h-8a1.12,1.12,0,0,1-1.1-1.1v-8a1.12,1.12,0,0,1,1.1-1.1ZM24,18.12h9.87a1.1,1.1,0,1,1,0,2.2H24a1.1,1.1,0,1,1,0-2.2Zm-6-1.67H12.82v5.8h5.81V19.38C17.24,20.9,15.9,22,15.07,21.13L13.7,19.75a1.1,1.1,0,1,1,1.55-1.55l.57.57L18,16.45Zm1.74-2.2a.9.9,0,0,1,.28,0l.54-.57a1.1,1.1,0,1,1,1.6,1.51c-.4.43-.85,1-1.33,1.54v6.58a1.14,1.14,0,0,1-1.1,1.1h-8a1.13,1.13,0,0,1-1.1-1.1v-8a1.12,1.12,0,0,1,1.1-1.1ZM13,9.25v-3H2.2V58.37H43.63V6.2H32.85l0,3.05h5.47A1.85,1.85,0,0,1,40.2,11.1V53.48a1.84,1.84,0,0,1-1.85,1.84H7.48a1.84,1.84,0,0,1-1.85-1.84V11.1A1.85,1.85,0,0,1,7.48,9.25ZM13,4V3.35A3.35,3.35,0,0,1,16.35,0H29.48a3.33,3.33,0,0,1,3.34,3.34V4H44a1.85,1.85,0,0,1,1.85,1.85V58.73A1.84,1.84,0,0,1,44,60.57H1.85A1.84,1.84,0,0,1,0,58.73V5.85A1.85,1.85,0,0,1,1.85,4ZM30.68,9.25l-.05-5.9A1.16,1.16,0,0,0,29.48,2.2H16.35A1.14,1.14,0,0,0,15.2,3.35v5.9ZM7.82,53.12H38V11.45H7.82V53.12Z"/></svg>