<svg id="Слой_1" data-name="Слой 1" xmlns="http://www.w3.org/2000/svg" viewBox="0 0 21.76 21.42"><defs><style>.cls-1{fill:#fbbb04;}</style></defs><title>tel</title><path class="cls-1" d="M14.81,21.23c1.56,1,3.61.18,4.12-.12l2.5-2.5a2.11,2.11,0,0,0-.38-3l-2.87-2.88a2,2,0,0,0-2.38,0,2.58,2.58,0,0,0-1,1.88c-1.6.83-3.18.46-4.76-1.13L8.44,12.12Q6.06,9.75,7.32,7.37a2.64,2.64,0,0,0,1.87-1A2,2,0,0,0,9.19,4L6.32,1.12a2.11,2.11,0,0,0-3-.38L.82,3.24A3.69,3.69,0,0,0,.69,7.37,28.71,28.71,0,0,0,14.81,21.23Z" transform="translate(-0.12 -0.29)"/></svg>