<svg id="Слой_1" data-name="Слой 1" xmlns="http://www.w3.org/2000/svg" viewBox="0 0 30.25 30.25"><defs><style>.cls-1{fill:#fcbc04;fill-rule:evenodd;}</style></defs><title>tg</title><path class="cls-1" d="M15.12,0A15.13,15.13,0,1,1,0,15.12,15.12,15.12,0,0,1,15.12,0Zm0,2A13.13,13.13,0,1,0,28.25,15.12,13.13,13.13,0,0,0,15.12,2ZM13.48,20.08l-.5-.46-.05.95.55-.49Zm7.73,1.71a2.43,2.43,0,0,1-3.89,1.49L15,21.43l-1.49,1.39a1.53,1.53,0,0,1-.75.38,1.44,1.44,0,0,1-.51.08,1.8,1.8,0,0,1-1.47-.85L9.11,17.82l-2.8-1c-1.5-.55-2.53-2.82-.17-4L20.53,7.13c1.2-.31,3.83-.11,3,2.66l-2.37,12ZM21.62,9a2.19,2.19,0,0,0-.47.07L7,14.7a.55.55,0,0,0-.22.14A.82.82,0,0,0,7,15l3.49,1.2,8.36-5.39c1.08-.24,1.66.31,1,1.3l-6.4,5.59,5.07,4c.45.29.61.27.78-.31l2.38-12A1.3,1.3,0,0,0,21.72,9Z"/></svg>