<svg id="Слой_1" data-name="Слой 1" xmlns="http://www.w3.org/2000/svg" viewBox="0 0 55.25 55.25"><defs><style>.cls-1{fill:#fcbc04;}</style></defs><title>vk</title><path class="cls-1" d="M27.63,0A27.63,27.63,0,1,1,0,27.63,27.63,27.63,0,0,1,27.63,0Zm0,2A25.63,25.63,0,1,0,53.25,27.63,25.62,25.62,0,0,0,27.63,2ZM14.56,21.69h5.25a11.57,11.57,0,0,0,4.13,6.37q.58,0,.75-.75V22.75a2.1,2.1,0,0,1-1-1.56h4.69c.7,0,1.07.46,1.12,1.5v5.12c.33.5.88.5,1.63,0q1.53-1.24,3.62-6.18h6.06a15.71,15.71,0,0,1-4.37,6.56c-.45.46-.41,1.06.12,1.81l3.82,3.69c.61,1.07.48,1.59-.38,1.56H34.69l-3.63-3.62a1.07,1.07,0,0,0-1.43.81l-.19,2.87H25.38q-6.61-1.5-10.82-13.62Z"/></svg>