<svg id="Слой_1" data-name="Слой 1" xmlns="http://www.w3.org/2000/svg" viewBox="0 0 30.38 30.38"><defs><style>.cls-1{fill:#fcbc04;}</style></defs><title>whatsapp</title><path class="cls-1" d="M15.19,2A13.19,13.19,0,0,0,4.07,22.29a2.55,2.55,0,0,1,.14.72l-.82,4.3,4.2-1a2.73,2.73,0,0,1,.75.12A13.19,13.19,0,1,0,15.19,2Zm0-2A15.19,15.19,0,1,1,7.65,28.38C-.28,30.21.64,31.06,2.17,23a15.19,15.19,0,0,1,13-23Zm2.33,22.85a20.67,20.67,0,0,1-10.18-10,2.65,2.65,0,0,1,.09-3l1.8-1.8a1.53,1.53,0,0,1,2.17.27l2.07,2.07a1.47,1.47,0,0,1,0,1.71,1.85,1.85,0,0,1-1.35.72c-.6,1.15-.33,2.3.81,3.43l1.17,1q1.7,1.72,3.42.82a1.93,1.93,0,0,1,.72-1.36,1.48,1.48,0,0,1,1.72,0L22,18.8A1.52,1.52,0,0,1,22.3,21l-1.8,1.8a3.17,3.17,0,0,1-3,.09Z"/></svg>