<svg id="Слой_1" data-name="Слой 1" xmlns="http://www.w3.org/2000/svg" viewBox="0 0 55.25 55.25"><defs><style>.cls-1{fill:#fcbc04;}</style></defs><title>yt</title><path class="cls-1" d="M27.62,0A27.63,27.63,0,1,1,0,27.63,27.63,27.63,0,0,1,27.62,0Zm0,2A25.63,25.63,0,1,0,53.25,27.63,25.62,25.62,0,0,0,27.62,2Zm-13,21a4.06,4.06,0,0,1,4.06-4.06H36.5A4.06,4.06,0,0,1,40.56,23v9.69a4.06,4.06,0,0,1-4.06,4.06H18.69a4.06,4.06,0,0,1-4.06-4.06V23Zm17.12,4.88-3.41-2.22-3.62-1.84-.21,4.06.21,4.05,3.62-1.84,3.41-2.21Z"/></svg>